<?xml version="1.0" encoding="utf-8"?>
<!-- Generator: Adobe Illustrator 23.0.3, SVG Export Plug-In . SVG Version: 6.00 Build 0)  -->
<svg version="1.1" id="Layer_1" xmlns="http://www.w3.org/2000/svg" xmlns:xlink="http://www.w3.org/1999/xlink" x="0px" y="0px"
	 viewBox="0 0 500 500" style="enable-background:new 0 0 500 500;" xml:space="preserve">
<style type="text/css">
	.st0{display:none;}
	.st1{display:inline;fill:#686868;}
	.st2{fill:#686868;}
</style>
<g id="calendar_1_" class="st0">
	<polygon id="XMLID_47_" class="st1" points="416.51,379.79 410.67,379.79 410.67,418.82 410.67,428.2 460.39,379.79 456.15,379.79 
			"/>
	<path id="XMLID_46_" class="st1" d="M146.47,103.25V90.72V84.8V63.65c0-2.71-2.44-4.9-5.42-4.9c-3.01,0-5.43,2.2-5.43,4.9V84.8
		v5.92v12.08c-4.42,1.92-7.51,6.33-7.51,11.46c0,6.92,5.61,12.52,12.52,12.52c6.92,0,12.53-5.6,12.53-12.52
		C153.15,109.46,150.43,105.35,146.47,103.25z"/>
	<path id="XMLID_45_" class="st1" d="M220.22,102.59V90.72V84.8V63.65c0-2.71-2.43-4.9-5.42-4.9c-3,0-5.43,2.2-5.43,4.9V84.8v5.92
		v12.82c-3.65,2.19-6.12,6.14-6.12,10.72c0,6.92,5.6,12.52,12.52,12.52c6.92,0,12.52-5.6,12.52-12.52
		C228.28,108.92,224.92,104.39,220.22,102.59z"/>
	<path id="XMLID_44_" class="st1" d="M293.4,102.63V90.72V84.8V63.65c0-2.71-2.42-4.9-5.42-4.9c-2.99,0-5.43,2.2-5.43,4.9V84.8v5.92
		v12.75c-3.73,2.16-6.26,6.16-6.26,10.78c0,6.92,5.61,12.52,12.52,12.52c6.92,0,12.52-5.6,12.52-12.52
		C301.33,108.97,298.04,104.46,293.4,102.63z"/>
	<path id="XMLID_43_" class="st1" d="M368.82,102.95V90.72V84.8V63.65c0-2.71-2.44-4.9-5.43-4.9c-2.99,0-5.42,2.2-5.42,4.9V84.8
		v5.92v12.37c-4.12,2.05-6.97,6.26-6.97,11.17c0,6.92,5.6,12.52,12.52,12.52c6.91,0,12.52-5.6,12.52-12.52
		C376.05,109.24,373.08,104.94,368.82,102.95z"/>
	<path id="XMLID_189_" class="st1" d="M430.85,75.91h-29.33v-0.05h-21.78l-0.14,12.49c10.35,4.98,12.67,17.51,12.31,25.91
		c-0.69,15.9-12.89,28.8-28.8,28.8c-15.9,0-28.16-12.9-28.8-28.8c-0.35-8.54,4.15-21.61,11.1-25.5V75.86h-40.05l-0.14,12.09
		c11.04,7.15,12.39,14.56,12.39,26.31c0,15.91-12.89,28.8-28.8,28.8s-28.07-12.91-28.8-28.8c-0.42-9.08,3.94-20.93,11.02-25.04
		V75.86H232.2l0.27,12.29c10.76,8.45,11.03,18.66,10.84,26.11c-0.42,15.91-12.89,28.8-28.8,28.8c-15.91,0-28.33-12.89-28.8-28.8
		c-0.23-7.85,2.35-19.3,12.16-25.29V75.86h-8.02h-31.9v12.7c10.9,8.04,11.31,17.3,11.06,25.7c-0.46,15.91-12.9,28.8-28.81,28.8
		c-15.9,0-28.48-12.89-28.8-28.8c-0.18-9.08,2.81-20.96,12.21-25.7l-0.14-12.7H92.63v0.05H78.89c-15.5,0-25.94,10.55-25.94,26.04
		v294.43c0,15.5,10.45,33.5,25.94,33.5h314.66V363.1h4.2h62.59V101.96C460.34,86.46,446.35,75.91,430.85,75.91z M167.96,363.1
		h-50.09v-50.99h50.09V363.1z M167.96,292.98h-50.09v-50.98h50.09V292.98z M168.16,224.52h-50.09v-50.09h50.09V224.52z
		 M188.19,174.43h50.09v50.09h-50.09V174.43z M188.19,242.89h50.09v50.09h-50.09V242.89z M238.5,363.1h-50.09v-50.99h50.09V363.1z
		 M309.88,363.1h-51.75v-50.99h51.75V363.1z M310.07,292.98h-52.02v-50.09h52.02V292.98z M310.07,224.52h-51.88v-49.82h51.88V224.52
		z M382.12,363.1l-52.3,0.49v-51.43l52.3-0.05V363.1z M381.71,292.98l-51.89,0.01l0.12-50.47l51.77-0.52V292.98z M381.64,224.52
		l-51.83,0.07l-0.13-49.64l51.96-0.52V224.52z"/>
</g>
<g id="telephone">
	<path id="XMLID_103_" class="st2" d="M89.65,220.82c42.72-14.54,59.47-22.44,52.95-51.1c0,0-2.96-9.68-5.5-14.81
		C78.41,198.45,14.21,194.74,7.02,194.17C12.57,225.25,48.36,234.88,89.65,220.82z"/>
	<path id="XMLID_102_" class="st2" d="M487.38,211.92h-0.7l0.02,0.17c-52.3,3.8-121.44-46.62-124.95-49.22
		c-0.02-0.01-0.03-0.01-0.04-0.01c-0.24-0.17-0.47-0.34-0.7-0.5c-0.16-0.04-0.34-0.09-0.49-0.18c-0.21-0.12-0.41-0.25-0.62-0.38
		c-9.05,16.25-13.6,32.26-1.61,41.61c12.36,9.63,72.26,44.16,109.36,38.7c0,0,18.95-18,21.33-29.95c-0.26,0.03-0.51,0.1-0.8,0.03
		C487.91,212.13,487.65,212.03,487.38,211.92z"/>
	<path id="XMLID_101_" class="st2" d="M490.69,191.22c1.09-0.37,2.18-0.7,3.31-0.93c1.5-19.85,0.54-76.46-22.5-92.89
		c-25.61-18.27-114.49-35.04-142.15-37.69c-28.01-2.67-116.05-14.29-192.34-2.68c0,0-88.43,12.64-104.52,25.72
		C16.78,95.54,0.86,139.77,3.9,172.56c0.16,0.04,0.3,0.1,0.45,0.18v-0.07c0.67,0.07,67.26,6.54,127.77-38.48l0.21,0.27
		c0.01-0.01,0.01-0.02,0.01-0.02c0.09-0.11,0.17-0.21,0.26-0.32c0.04-0.06,0.08-0.08,0.13-0.12c-1.2-5.89,1.93-19.2,13.74-22.52
		c13.54-3.8,157.68-9.94,201.38,3.92c0,0,23.86,10.44,18.44,25.72c0.21,0.06,0.44,0.11,0.67,0.27c0.16,0.11,0.32,0.22,0.49,0.33
		c0.16,0.11,0.33,0.24,0.49,0.35c0.03,0.02,0.04,0.04,0.06,0.07c0.17,0.11,0.36,0.25,0.53,0.36c0.08,0.06,0.11,0.13,0.17,0.21
		l0.05-0.07c0.7,0.53,71.11,52.07,121.93,48.38L490.69,191.22z"/>
	<path id="XMLID_262_" class="st2" d="M461.02,306.96l-116.9-92.37c-2.39-1.9-4.93-3.66-7.22-5.11H156.07
		c-2.37,1.61-4.9,3.52-7.35,5.7L45.94,306.37c-5.92,5.23-10.46,16-10.46,23.91v110.24c0,7.92,6.25,17.63,14.16,17.63h407.43
		c7.91,0,16.06-9.71,16.06-17.63V330.28C473.13,322.38,467.22,311.87,461.02,306.96z M212,358.86h-29.42v-29.42H212V358.86z
		 M212,311.04h-29.42v-29.42H212V311.04z M212,263.23h-29.42v-29.41H212V263.23z M263.49,358.86h-27.34l-0.18-29.42h27.52V358.86z
		 M263.49,311.04h-27.88l-0.36-29.42h28.24V311.04z M263.49,263.23h-28.6v-29.41h28.6V263.23z M314.98,358.86h-29.42v-29.42h29.42
		V358.86z M314.98,311.04h-29.42v-29.42h29.42V311.04z M314.98,263.23h-29.42v-29.41h29.42V263.23z"/>
</g>
</svg>
