<?xml version="1.0" encoding="utf-8"?>
<!-- Generator: Adobe Illustrator 23.0.3, SVG Export Plug-In . SVG Version: 6.00 Build 0)  -->
<svg version="1.1" id="Layer_1" xmlns="http://www.w3.org/2000/svg" xmlns:xlink="http://www.w3.org/1999/xlink" x="0px" y="0px"
	 viewBox="0 0 500 500" style="enable-background:new 0 0 500 500;" xml:space="preserve">
<style type="text/css">
	.st0{fill:#686868;}
</style>
<g id="calendar_1_">
	<polygon id="XMLID_47_" class="st0" points="416.51,379.79 410.67,379.79 410.67,418.82 410.67,428.2 460.39,379.79 456.15,379.79 
			"/>
	<path id="XMLID_46_" class="st0" d="M146.47,103.25V90.72V84.8V63.65c0-2.71-2.44-4.9-5.42-4.9c-3.01,0-5.43,2.2-5.43,4.9V84.8
		v5.92v12.08c-4.42,1.92-7.51,6.33-7.51,11.46c0,6.92,5.61,12.52,12.52,12.52c6.92,0,12.53-5.6,12.53-12.52
		C153.15,109.46,150.43,105.35,146.47,103.25z"/>
	<path id="XMLID_45_" class="st0" d="M220.22,102.59V90.72V84.8V63.65c0-2.71-2.43-4.9-5.42-4.9c-3,0-5.43,2.2-5.43,4.9V84.8v5.92
		v12.82c-3.65,2.19-6.12,6.14-6.12,10.72c0,6.92,5.6,12.52,12.52,12.52c6.92,0,12.52-5.6,12.52-12.52
		C228.28,108.92,224.92,104.39,220.22,102.59z"/>
	<path id="XMLID_44_" class="st0" d="M293.4,102.63V90.72V84.8V63.65c0-2.71-2.42-4.9-5.42-4.9c-2.99,0-5.43,2.2-5.43,4.9V84.8v5.92
		v12.75c-3.73,2.16-6.26,6.16-6.26,10.78c0,6.92,5.61,12.52,12.52,12.52c6.92,0,12.52-5.6,12.52-12.52
		C301.33,108.97,298.04,104.46,293.4,102.63z"/>
	<path id="XMLID_43_" class="st0" d="M368.82,102.95V90.72V84.8V63.65c0-2.71-2.44-4.9-5.43-4.9c-2.99,0-5.42,2.2-5.42,4.9V84.8
		v5.92v12.37c-4.12,2.05-6.97,6.26-6.97,11.17c0,6.92,5.6,12.52,12.52,12.52c6.91,0,12.52-5.6,12.52-12.52
		C376.05,109.24,373.08,104.94,368.82,102.95z"/>
	<path id="XMLID_189_" class="st0" d="M430.85,75.91h-29.33v-0.05h-21.78l-0.14,12.49c10.35,4.98,12.67,17.51,12.31,25.91
		c-0.69,15.9-12.89,28.8-28.8,28.8c-15.9,0-28.16-12.9-28.8-28.8c-0.35-8.54,4.15-21.61,11.1-25.5V75.86h-40.05l-0.14,12.09
		c11.04,7.15,12.39,14.56,12.39,26.31c0,15.91-12.89,28.8-28.8,28.8s-28.07-12.91-28.8-28.8c-0.42-9.08,3.94-20.93,11.02-25.04
		V75.86H232.2l0.27,12.29c10.76,8.45,11.03,18.66,10.84,26.11c-0.42,15.91-12.89,28.8-28.8,28.8c-15.91,0-28.33-12.89-28.8-28.8
		c-0.23-7.85,2.35-19.3,12.16-25.29V75.86h-8.02h-31.9v12.7c10.9,8.04,11.31,17.3,11.06,25.7c-0.46,15.91-12.9,28.8-28.81,28.8
		c-15.9,0-28.48-12.89-28.8-28.8c-0.18-9.08,2.81-20.96,12.21-25.7l-0.14-12.7H92.63v0.05H78.89c-15.5,0-25.94,10.55-25.94,26.04
		v294.43c0,15.5,10.45,33.5,25.94,33.5h314.66V363.1h4.2h62.59V101.96C460.34,86.46,446.35,75.91,430.85,75.91z M167.96,363.1
		h-50.09v-50.99h50.09V363.1z M167.96,292.98h-50.09v-50.98h50.09V292.98z M168.16,224.52h-50.09v-50.09h50.09V224.52z
		 M188.19,174.43h50.09v50.09h-50.09V174.43z M188.19,242.89h50.09v50.09h-50.09V242.89z M238.5,363.1h-50.09v-50.99h50.09V363.1z
		 M309.88,363.1h-51.75v-50.99h51.75V363.1z M310.07,292.98h-52.02v-50.09h52.02V292.98z M310.07,224.52h-51.88v-49.82h51.88V224.52
		z M382.12,363.1l-52.3,0.49v-51.43l52.3-0.05V363.1z M381.71,292.98l-51.89,0.01l0.12-50.47l51.77-0.52V292.98z M381.64,224.52
		l-51.83,0.07l-0.13-49.64l51.96-0.52V224.52z"/>
</g>
</svg>
