<?xml version="1.0" encoding="utf-8"?>
<!-- Generator: Adobe Illustrator 23.0.3, SVG Export Plug-In . SVG Version: 6.00 Build 0)  -->
<svg version="1.1" xmlns="http://www.w3.org/2000/svg" xmlns:xlink="http://www.w3.org/1999/xlink" x="0px" y="0px"
	 viewBox="0 0 399.48 199.74" style="enable-background:new 0 0 399.48 199.74;" xml:space="preserve">
<style type="text/css">
	.st0{display:none;}
	.st1{display:inline;fill:url(#SVGID_1_);}
	.st2{display:none;opacity:0.4;fill:url(#SVGID_2_);}
	.st3{fill:url(#SVGID_3_);}
	.st4{opacity:0.6;fill:url(#SVGID_4_);}
	.st5{fill:url(#SVGID_5_);}
	.st6{opacity:0.6;fill:url(#SVGID_6_);}
	.st7{fill:url(#SVGID_7_);}
	.st8{fill:url(#SVGID_8_);}
	.st9{fill:url(#SVGID_9_);}
	.st10{fill:url(#SVGID_10_);}
	.st11{fill:url(#SVGID_11_);}
	.st12{fill:url(#SVGID_12_);}
	.st13{fill:url(#SVGID_13_);}
	.st14{display:none;fill:#54535B;}
	.st15{font-family:'AntipastoPro-DemiBold';}
	.st16{font-size:47.8251px;}
	.st17{fill:#6C6C75;}
	.st18{font-family:'Poppins-Regular';}
	.st19{font-size:12px;}
	.st20{letter-spacing:6;}
	.st21{fill:#D3D3DD;}
	.st22{fill:#666666;}
	.st23{font-family:'MyriadPro-Regular';}
	.st24{font-size:49px;}
	.st25{display:inline;}
	.st26{fill:#9EB7C7;}
</style>
<g id="BACKGROUND" class="st0">
	<radialGradient id="SVGID_1_" cx="196.8387" cy="123.1936" r="279.9875" gradientUnits="userSpaceOnUse">
		<stop  offset="0" style="stop-color:#FBFBFB"/>
		<stop  offset="0.4598" style="stop-color:#F9F8FA"/>
		<stop  offset="0.8223" style="stop-color:#F3EEF7"/>
		<stop  offset="1" style="stop-color:#EEE6F5"/>
	</radialGradient>
	<rect x="-53.16" y="-126.81" class="st1" width="500" height="500"/>
</g>
<g id="OBJECTS">
	<g>
		
			<radialGradient id="SVGID_2_" cx="98.1035" cy="187.9801" r="89.8517" gradientTransform="matrix(1 0 0 0.0683 0 195.8138)" gradientUnits="userSpaceOnUse">
			<stop  offset="0.1098" style="stop-color:#666666"/>
			<stop  offset="0.2379" style="stop-color:#757575;stop-opacity:0.856"/>
			<stop  offset="0.484" style="stop-color:#9C9C9C;stop-opacity:0.5794"/>
			<stop  offset="0.82" style="stop-color:#DBDBDB;stop-opacity:0.2016"/>
			<stop  offset="0.9994" style="stop-color:#FFFFFF;stop-opacity:0"/>
		</radialGradient>
		<ellipse class="st2" cx="98.1" cy="208.66" rx="94.85" ry="7.68"/>
		<linearGradient id="SVGID_3_" gradientUnits="userSpaceOnUse" x1="10.7146" y1="97.3503" x2="177.188" y2="97.3503">
			<stop  offset="0" style="stop-color:#FA71CD"/>
			<stop  offset="1" style="stop-color:#C471F5"/>
		</linearGradient>
		<path class="st3" d="M106.61,172.44c-16.81,4.9-33.66,0.05-49.64-10.3c-28.09-18.17-34.22-53.34-18.57-82.28
			c16.5-30.51,53.23-39.05,82.93-21.19c6.17,3.71,11.47,8.32,15.84,13.56c6.4,7.68,16.48,11.24,26.17,8.83l0.83-0.21
			c10.88-2.71,16.25-14.93,10.97-24.82c-7.6-14.23-19.26-26.54-34.48-35.05C100.19-1.62,48.39,11.78,23.92,51.15
			c-25.8,41.5-12.57,95.95,29.16,121.04c17.59,10.58,37.4,14.23,56.28,11.76c3.34-0.44,5.62-3.61,4.95-6.91l0,0
			C113.6,173.54,110.04,171.44,106.61,172.44z"/>
		<linearGradient id="SVGID_4_" gradientUnits="userSpaceOnUse" x1="93.78" y1="71.6287" x2="95.4741" y2="164.4664">
			<stop  offset="0.1098" style="stop-color:#666666"/>
			<stop  offset="0.2379" style="stop-color:#757575;stop-opacity:0.856"/>
			<stop  offset="0.484" style="stop-color:#9C9C9C;stop-opacity:0.5794"/>
			<stop  offset="0.82" style="stop-color:#DBDBDB;stop-opacity:0.2016"/>
			<stop  offset="0.9994" style="stop-color:#FFFFFF;stop-opacity:0"/>
		</linearGradient>
		<path class="st4" d="M106.61,172.44c-16.81,4.9-33.66,0.05-49.64-10.3c-28.09-18.17-34.22-53.34-18.57-82.28
			c16.5-30.51,53.23-39.05,82.93-21.19c6.17,3.71,11.47,8.32,15.84,13.56c6.4,7.68,16.48,11.24,26.17,8.83l0.83-0.21
			c10.88-2.71,16.25-14.93,10.97-24.82c-7.6-14.23-19.26-26.54-34.48-35.05C100.19-1.62,48.39,11.78,23.92,51.15
			c-25.8,41.5-12.57,95.95,29.16,121.04c17.59,10.58,37.4,14.23,56.28,11.76c3.34-0.44,5.62-3.61,4.95-6.91l0,0
			C113.6,173.54,110.04,171.44,106.61,172.44z"/>
		<linearGradient id="SVGID_5_" gradientUnits="userSpaceOnUse" x1="101.8762" y1="40.0097" x2="78.9063" y2="147.2021">
			<stop  offset="0" style="stop-color:#764BA2"/>
			<stop  offset="1" style="stop-color:#667EEA"/>
		</linearGradient>
		<path class="st5" d="M35.29,80.27c18.09-29.59,56.34-39.45,86.04-21.59c6.17,3.71,11.47,8.32,15.84,13.56
			c6.4,7.68,16.48,11.24,26.17,8.83l0.83-0.21c10.88-2.71,16.25-14.93,10.97-24.82c-7.6-14.23-19.26-26.54-34.48-35.05
			C100.19-1.62,48.39,11.78,23.92,51.15c-25.8,41.5-12.57,95.95,29.16,121.04c11.66,7.01,24.29,10.96,36.99,12.12
			C16.55,171.07,21.27,103.2,35.29,80.27z"/>
		<linearGradient id="SVGID_6_" gradientUnits="userSpaceOnUse" x1="138.7659" y1="73.0105" x2="51.6881" y2="111.9753">
			<stop  offset="0.1098" style="stop-color:#666666"/>
			<stop  offset="0.2379" style="stop-color:#757575;stop-opacity:0.856"/>
			<stop  offset="0.484" style="stop-color:#9C9C9C;stop-opacity:0.5794"/>
			<stop  offset="0.82" style="stop-color:#DBDBDB;stop-opacity:0.2016"/>
			<stop  offset="0.9994" style="stop-color:#FFFFFF;stop-opacity:0"/>
		</linearGradient>
		<path class="st6" d="M35.29,80.27c18.09-29.59,56.34-39.45,86.04-21.59c6.17,3.71,11.47,8.32,15.84,13.56
			c6.4,7.68,16.48,11.24,26.17,8.83l0.83-0.21c10.88-2.71,16.25-14.93,10.97-24.82c-7.6-14.23-19.26-26.54-34.48-35.05
			C100.19-1.62,48.39,11.78,23.92,51.15c-25.8,41.5-12.57,95.95,29.16,121.04c11.66,7.01,24.29,10.96,36.99,12.12
			C16.55,171.07,21.27,103.2,35.29,80.27z"/>
		<linearGradient id="SVGID_7_" gradientUnits="userSpaceOnUse" x1="10.7214" y1="55.2053" x2="177.1812" y2="55.2053">
			<stop  offset="0" style="stop-color:#4FACFE"/>
			<stop  offset="1" style="stop-color:#00F2FE"/>
		</linearGradient>
		<path class="st7" d="M76.21,37.75c36.39-1.18,53.59,19.75,62.53,33.45c5.46,8.37,14.89,12.27,24.59,9.86l0.83-0.21
			c10.88-2.71,16.25-14.93,10.97-24.82c-7.6-14.23-19.26-26.54-34.48-35.05C100.18-1.62,48.38,11.78,23.91,51.15
			c-9.55,15.36-13.74,32.49-13.13,49.25C10.08,64.27,39.82,38.93,76.21,37.75z"/>
		<linearGradient id="SVGID_8_" gradientUnits="userSpaceOnUse" x1="10.7311" y1="67.433" x2="177.1769" y2="67.433">
			<stop  offset="0" style="stop-color:#00EDFF"/>
			<stop  offset="1" style="stop-color:#00F2FE;stop-opacity:0"/>
		</linearGradient>
		<path class="st8" d="M164.16,77.62l-0.83,0.21c-9.7,2.41-19.13-1.48-24.59-9.86c-8.94-13.7-26.14-34.63-62.53-33.45
			c-36.4,1.18-66.13,26.52-65.43,62.65c-0.02-0.52-0.02-1.04-0.03-1.56c-0.03,1.6-0.03,3.2,0.03,4.8
			c-0.69-36.13,29.04-61.47,65.43-62.65c36.39-1.18,53.59,19.75,62.53,33.45c5.46,8.37,14.89,12.27,24.59,9.86l0.83-0.21
			c8.56-2.13,13.71-10.16,12.94-18.31C176.44,69.5,171.58,75.77,164.16,77.62z"/>
		<linearGradient id="SVGID_9_" gradientUnits="userSpaceOnUse" x1="126.8503" y1="166.9016" x2="123.656" y2="181.436">
			<stop  offset="0" style="stop-color:#FA71CD"/>
			<stop  offset="1" style="stop-color:#C471F5"/>
		</linearGradient>
		<path class="st9" d="M131.82,173.05c0,3.49-2.83,6.32-6.32,6.32c-3.49,0-6.32-2.83-6.32-6.32s2.83-6.32,6.32-6.32
			C128.99,166.74,131.82,169.57,131.82,173.05z"/>
		<g>
			<linearGradient id="SVGID_10_" gradientUnits="userSpaceOnUse" x1="58.3795" y1="144.6135" x2="110.1275" y2="152.4112">
				<stop  offset="0" style="stop-color:#FF99F5"/>
				<stop  offset="0.9921" style="stop-color:#C471F5;stop-opacity:0"/>
			</linearGradient>
			<path class="st10" d="M106.61,172.44c-16.81,4.9-33.66,0.05-49.64-10.3c-17.78-11.5-26.75-29.82-26.98-49.05
				c-0.44,20.02,8.53,39.28,26.98,51.21c15.99,10.34,32.83,15.2,49.64,10.3c3.43-1,6.99,1.09,7.7,4.6c0,0.02,0.01,0.05,0.01,0.07
				c0.14-0.72,0.14-1.47-0.01-2.23C113.6,173.54,110.04,171.44,106.61,172.44z"/>
		</g>
		<linearGradient id="SVGID_11_" gradientUnits="userSpaceOnUse" x1="140.9358" y1="160.3826" x2="139.658" y2="170.2852">
			<stop  offset="0" style="stop-color:#FA71CD"/>
			<stop  offset="1" style="stop-color:#C471F5"/>
		</linearGradient>
		<path class="st11" d="M144.93,165.2c0,2.55-2.07,4.62-4.62,4.62c-2.55,0-4.62-2.07-4.62-4.62c0-2.55,2.07-4.62,4.62-4.62
			C142.86,160.58,144.93,162.65,144.93,165.2z"/>
		<linearGradient id="SVGID_12_" gradientUnits="userSpaceOnUse" x1="151.2269" y1="154.9489" x2="149.9491" y2="161.4975">
			<stop  offset="0" style="stop-color:#FA71CD"/>
			<stop  offset="1" style="stop-color:#C471F5"/>
		</linearGradient>
		<circle class="st12" cx="150.71" cy="157.6" r="2.98"/>
		<g>
			<linearGradient id="SVGID_13_" gradientUnits="userSpaceOnUse" x1="53.6421" y1="160.303" x2="76.8497" y2="60.4663">
				<stop  offset="0" style="stop-color:#90A8FC"/>
				<stop  offset="1" style="stop-color:#667EEA;stop-opacity:0"/>
			</linearGradient>
			<path class="st13" d="M35.29,80.27C47,61.11,67.16,50.24,87.97,49.79c-21.7-0.42-43.04,10.54-55.22,30.48
				c-13.69,22.39-18.49,87.59,49.68,103c2.54,0.46,5.09,0.81,7.64,1.05C16.55,171.07,21.27,103.2,35.29,80.27z"/>
		</g>
	</g>
	<g>
		<text transform="matrix(1 0 0 1 63.5756 128.8845)" class="st14 st15 st16">COMPANY NAME</text>
		<g>
			<text transform="matrix(1 0 0 1 172.4483 146.7734)" class="st17 st18 st19 st20">Legal Tech Solutions</text>
		</g>
		<path class="st21" d="M390.05,133.26H69.16c-0.46,0-0.83,0.37-0.83,0.83l0,0c0,0.46,0.37,0.83,0.83,0.83h320.88
			c0.46,0,0.83-0.37,0.83-0.83l0,0C390.88,133.63,390.51,133.26,390.05,133.26z"/>
	</g>
	<text transform="matrix(1 0 0 1 68.3313 129.7575)" class="st22 st23 st24">LT Solutions</text>
</g>
<g id="DESIGNED_BY_FREEPIK" class="st0">
	<g class="st25">
		<g>
			<g id="XMLID_1_">
				<g id="XMLID_520_">
					<path id="XMLID_528_" class="st26" d="M206.94,338.66c-0.43,0.44-0.8,0.93-1.11,1.45l-0.47-0.24c-0.07-0.3-0.35-0.5-0.66-0.47
						c-0.33,0.04-0.57,0.34-0.53,0.67c0.04,0.33,0.34,0.57,0.67,0.53c0.07-0.01,0.13-0.03,0.18-0.05l0.45,0.23
						c-0.25,0.55-0.43,1.14-0.54,1.74l0.75,0.13c0.23-1.31,0.85-2.51,1.79-3.47L206.94,338.66z"/>
					<path id="XMLID_527_" class="st26" d="M212.43,336.36c-0.17,0-0.34,0.01-0.51,0.02l-0.07-0.63c0.19-0.15,0.3-0.39,0.27-0.64
						c-0.05-0.39-0.4-0.67-0.8-0.63c-0.39,0.05-0.67,0.4-0.63,0.8c0.03,0.25,0.19,0.46,0.4,0.56l0.07,0.62
						c-0.71,0.12-1.4,0.33-2.06,0.65l0.33,0.68c0.93-0.45,1.94-0.67,3-0.67c0.5,0,0.99,0.05,1.48,0.16l0.16-0.74
						C213.53,336.42,212.98,336.36,212.43,336.36z"/>
					<path id="XMLID_526_" class="st26" d="M219.03,338.9c0.33-0.04,0.57-0.34,0.53-0.67c-0.04-0.33-0.34-0.57-0.67-0.53
						c-0.31,0.04-0.54,0.3-0.53,0.61l-0.42,0.36c-0.42-0.43-0.89-0.81-1.41-1.14l-0.4,0.64c1.13,0.71,2.02,1.73,2.56,2.93l0.69-0.31
						c-0.25-0.55-0.57-1.07-0.94-1.55l0.4-0.35C218.9,338.91,218.97,338.91,219.03,338.9z"/>
					<path id="XMLID_525_" class="st26" d="M211.88,346.57c-0.39,0.02-0.77,0.03-1.16,0.03c-0.88,0-1.73-0.06-2.48-0.18
						c-0.39-0.06-0.85-0.15-1.27-0.29c1.05,1.86,3.07,3.13,5.39,3.13c2.86,0,5.26-1.92,5.95-4.5c-0.68,0.45-1.51,0.83-2.46,1.12
						C214.68,346.24,213.3,346.48,211.88,346.57z"/>
					<path id="XMLID_521_" class="st26" d="M212.43,337.87c-3.35,0-6.08,2.67-6.08,5.94c0,0.43,0.05,0.85,0.14,1.26
						c0.67,0.48,2.71,0.89,5.35,0.73c2.88-0.17,5.3-0.96,6.67-2.16c-0.01-0.2-0.02-0.39-0.05-0.58
						C218.08,340.11,215.49,337.87,212.43,337.87z M210.27,344.39c-1.02,0-1.85-0.83-1.85-1.85c0-1.02,0.83-1.85,1.85-1.85
						c1.02,0,1.85,0.83,1.85,1.85C212.12,343.56,211.29,344.39,210.27,344.39z M215.01,343.48c-0.75,0-1.36-0.61-1.36-1.36
						s0.61-1.36,1.36-1.36c0.75,0,1.36,0.61,1.36,1.36S215.76,343.48,215.01,343.48z"/>
				</g>
				<path id="XMLID_518_" class="st26" d="M228.43,339.74c-0.29-0.12-0.81-0.31-1.38-0.24c-0.55,0.07-0.84,0.34-0.84,1.01v0.87h2.23
					v1.72h-2.23v5.45h-1.93v-5.45h-1.34v-1.72h1.34v-0.89c0-1.68,0.9-2.78,2.57-2.78c0.64,0,1.16,0.12,1.59,0.31L228.43,339.74z"/>
				<path id="XMLID_516_" class="st26" d="M233.14,343.07c-0.18-0.03-0.36-0.05-0.53-0.05c-0.9,0-1.51,0.55-1.51,1.61v3.91h-1.93
					v-7.17h1.87v0.78c0.45-0.67,1.14-0.98,2.02-0.98c0.41,0,0.85,0.13,1.09,0.34L233.14,343.07z"/>
				<path id="XMLID_513_" class="st26" d="M240.8,344.95c0,0.22-0.01,0.49-0.04,0.65h-5.08c0.21,1.04,0.93,1.49,1.84,1.49
					c0.62,0,1.3-0.25,1.81-0.69l1.13,1.24c-0.81,0.75-1.85,1.09-3.06,1.09c-2.2,0-3.72-1.5-3.72-3.75c0-2.26,1.48-3.8,3.63-3.8
					C239.38,341.18,240.8,342.72,240.8,344.95z M235.69,344.28h3.18c-0.18-0.92-0.73-1.44-1.56-1.44
					C236.39,342.85,235.86,343.4,235.69,344.28z"/>
				<path id="XMLID_510_" class="st26" d="M248.46,344.95c0,0.22-0.01,0.49-0.04,0.65h-5.08c0.21,1.04,0.93,1.49,1.84,1.49
					c0.62,0,1.3-0.25,1.81-0.69l1.13,1.24c-0.81,0.75-1.85,1.09-3.06,1.09c-2.2,0-3.72-1.5-3.72-3.75c0-2.26,1.48-3.8,3.63-3.8
					C247.04,341.18,248.45,342.72,248.46,344.95z M243.34,344.28h3.18c-0.18-0.92-0.73-1.44-1.56-1.44
					C244.05,342.85,243.51,343.4,243.34,344.28z"/>
				<path id="XMLID_507_" class="st26" d="M256.8,344.96c0,2.15-1.49,3.77-3.47,3.77c-0.96,0-1.64-0.38-2.11-0.93v3.71h-1.92v-10.13
					h1.89v0.79c0.47-0.58,1.15-0.98,2.14-0.98C255.31,341.18,256.8,342.8,256.8,344.96z M251.13,344.96c0,1.13,0.75,1.98,1.84,1.98
					c1.14,0,1.85-0.88,1.85-1.98c0-1.1-0.71-1.98-1.85-1.98C251.87,342.98,251.13,343.83,251.13,344.96z"/>
				<path id="XMLID_504_" class="st26" d="M259.91,339.03c0,0.7-0.54,1.23-1.24,1.23c-0.7,0-1.23-0.53-1.23-1.23
					c0-0.7,0.53-1.24,1.23-1.24C259.37,337.79,259.91,338.33,259.91,339.03z M259.65,348.55h-1.93v-7.17h1.93V348.55z"/>
				<path id="XMLID_502_" class="st26" d="M262.87,343.93l2.7-2.55h2.37l-3.48,3.38l3.5,3.8h-2.38l-2.72-2.9v2.9h-1.93v-10.66h1.93
					V343.93z"/>
			</g>
			<g>
				<path class="st26" d="M131.25,348.48v-1.05c-0.53,0.72-1.39,1.23-2.39,1.23c-1.85,0-3.15-1.41-3.15-3.71
					c0-2.26,1.29-3.72,3.15-3.72c0.95,0,1.82,0.47,2.39,1.25v-3.76h1.1v9.77H131.25z M131.25,346.56v-3.21
					c-0.4-0.62-1.24-1.14-2.12-1.14c-1.42,0-2.27,1.17-2.27,2.74c0,1.57,0.85,2.72,2.27,2.72
					C130.01,347.68,130.86,347.18,131.25,346.56z"/>
				<path class="st26" d="M133.77,344.94c0-2.05,1.46-3.71,3.49-3.71c2.14,0,3.4,1.67,3.4,3.79v0.28h-5.73
					c0.09,1.33,1.03,2.45,2.55,2.45c0.81,0,1.63-0.32,2.18-0.89l0.53,0.72c-0.7,0.7-1.65,1.08-2.81,1.08
					C135.28,348.66,133.77,347.15,133.77,344.94z M137.24,342.14c-1.51,0-2.26,1.27-2.31,2.36h4.64
					C139.56,343.44,138.85,342.14,137.24,342.14z"/>
				<path class="st26" d="M141.45,347.54l0.57-0.79c0.47,0.54,1.36,1.01,2.33,1.01c1.08,0,1.67-0.51,1.67-1.22
					c0-1.71-4.38-0.66-4.38-3.28c0-1.1,0.95-2.04,2.64-2.04c1.2,0,2.05,0.45,2.62,1.03l-0.51,0.76c-0.42-0.51-1.2-0.89-2.11-0.89
					c-0.97,0-1.57,0.48-1.57,1.11c0,1.55,4.38,0.53,4.38,3.28c0,1.19-0.95,2.14-2.78,2.14
					C143.14,348.66,142.16,348.31,141.45,347.54z"/>
				<path class="st26" d="M148.32,339.66c0-0.41,0.34-0.75,0.73-0.75c0.41,0,0.75,0.34,0.75,0.75c0,0.41-0.34,0.73-0.75,0.73
					C148.65,340.4,148.32,340.07,148.32,339.66z M148.51,348.48v-7.07h1.1v7.07H148.51z"/>
				<path class="st26" d="M151.42,350.3l0.56-0.82c0.59,0.7,1.29,0.97,2.3,0.97c1.17,0,2.27-0.57,2.27-2.12v-1.01
					c-0.51,0.72-1.38,1.26-2.37,1.26c-1.85,0-3.15-1.38-3.15-3.66c0-2.27,1.29-3.68,3.15-3.68c0.95,0,1.8,0.47,2.37,1.25v-1.07h1.1
					v6.87c0,2.34-1.64,3.08-3.37,3.08C153.08,351.35,152.26,351.12,151.42,350.3z M156.55,346.45v-3.09
					c-0.38-0.62-1.23-1.14-2.11-1.14c-1.42,0-2.27,1.13-2.27,2.7c0,1.55,0.85,2.7,2.27,2.7
					C155.32,347.6,156.17,347.06,156.55,346.45z"/>
				<path class="st26" d="M164.25,348.48v-4.63c0-1.24-0.63-1.64-1.58-1.64c-0.86,0-1.68,0.53-2.09,1.1v5.17h-1.1v-7.07h1.1v1.03
					c0.5-0.59,1.46-1.2,2.52-1.2c1.48,0,2.26,0.75,2.26,2.29v4.97H164.25z"/>
				<path class="st26" d="M166.77,344.94c0-2.05,1.46-3.71,3.49-3.71c2.14,0,3.4,1.67,3.4,3.79v0.28h-5.73
					c0.09,1.33,1.03,2.45,2.55,2.45c0.81,0,1.63-0.32,2.18-0.89l0.53,0.72c-0.7,0.7-1.66,1.08-2.81,1.08
					C168.28,348.66,166.77,347.15,166.77,344.94z M170.24,342.14c-1.51,0-2.26,1.27-2.31,2.36h4.64
					C172.56,343.44,171.85,342.14,170.24,342.14z"/>
				<path class="st26" d="M180.19,348.48v-1.05c-0.53,0.72-1.39,1.23-2.39,1.23c-1.85,0-3.15-1.41-3.15-3.71
					c0-2.26,1.29-3.72,3.15-3.72c0.95,0,1.82,0.47,2.39,1.25v-3.76h1.1v9.77H180.19z M180.19,346.56v-3.21
					c-0.4-0.62-1.25-1.14-2.12-1.14c-1.42,0-2.27,1.17-2.27,2.74c0,1.57,0.85,2.72,2.27,2.72
					C178.94,347.68,179.79,347.18,180.19,346.56z"/>
				<path class="st26" d="M186.53,348.48v-9.77h1.1v3.76c0.57-0.78,1.42-1.25,2.39-1.25c1.85,0,3.15,1.46,3.15,3.72
					c0,2.3-1.3,3.71-3.15,3.71c-1,0-1.86-0.51-2.39-1.23v1.05H186.53z M189.74,347.68c1.44,0,2.29-1.16,2.29-2.72
					c0-1.57-0.85-2.74-2.29-2.74c-0.86,0-1.73,0.53-2.11,1.14v3.21C188.01,347.18,188.87,347.68,189.74,347.68z"/>
				<path class="st26" d="M194.37,350.25c0.16,0.07,0.43,0.12,0.6,0.12c0.48,0,0.81-0.16,1.05-0.75l0.47-1.07l-2.96-7.15h1.19
					l2.36,5.8l2.34-5.8h1.2l-3.54,8.51c-0.42,1.03-1.14,1.42-2.08,1.44c-0.23,0-0.6-0.04-0.81-0.1L194.37,350.25z"/>
			</g>
		</g>
	</g>
</g>
</svg>
