<?xml version="1.0" encoding="utf-8"?>
<!-- Generator: Adobe Illustrator 23.0.3, SVG Export Plug-In . SVG Version: 6.00 Build 0)  -->
<svg version="1.1" xmlns="http://www.w3.org/2000/svg" xmlns:xlink="http://www.w3.org/1999/xlink" x="0px" y="0px"
	 viewBox="0 0 500 500" style="enable-background:new 0 0 500 500;" xml:space="preserve">
<style type="text/css">
	.st0{display:none;}
	.st1{display:inline;fill:url(#SVGID_1_);}
	.st2{display:none;opacity:0.4;fill:url(#SVGID_2_);}
	.st3{fill:url(#SVGID_3_);}
	.st4{opacity:0.6;fill:url(#SVGID_4_);}
	.st5{fill:url(#SVGID_5_);}
	.st6{opacity:0.6;fill:url(#SVGID_6_);}
	.st7{fill:url(#SVGID_7_);}
	.st8{fill:url(#SVGID_8_);}
	.st9{fill:url(#SVGID_9_);}
	.st10{fill:url(#SVGID_10_);}
	.st11{fill:url(#SVGID_11_);}
	.st12{fill:url(#SVGID_12_);}
	.st13{fill:url(#SVGID_13_);}
	.st14{display:none;fill:#54535B;}
	.st15{font-family:'AntipastoPro-DemiBold';}
	.st16{font-size:47.8251px;}
	.st17{fill:#6C6C75;}
	.st18{font-family:'Poppins-Regular';}
	.st19{font-size:12px;}
	.st20{letter-spacing:6;}
	.st21{fill:#D3D3DD;}
	.st22{fill:#666666;}
	.st23{font-family:'MyriadPro-Regular';}
	.st24{font-size:49px;}
	.st25{display:inline;}
	.st26{fill:#9EB7C7;}
</style>
<g id="BACKGROUND" class="st0">
	<radialGradient id="SVGID_1_" cx="250" cy="250" r="279.9875" gradientUnits="userSpaceOnUse">
		<stop  offset="0" style="stop-color:#FBFBFB"/>
		<stop  offset="0.4598" style="stop-color:#F9F8FA"/>
		<stop  offset="0.8223" style="stop-color:#F3EEF7"/>
		<stop  offset="1" style="stop-color:#EEE6F5"/>
	</radialGradient>
	<rect class="st1" width="500" height="500"/>
</g>
<g id="OBJECTS">
	<g>
		
			<radialGradient id="SVGID_2_" cx="151.2647" cy="314.7865" r="89.8517" gradientTransform="matrix(1 0 0 0.0683 0 313.9551)" gradientUnits="userSpaceOnUse">
			<stop  offset="0.1098" style="stop-color:#666666"/>
			<stop  offset="0.2379" style="stop-color:#757575;stop-opacity:0.856"/>
			<stop  offset="0.484" style="stop-color:#9C9C9C;stop-opacity:0.5794"/>
			<stop  offset="0.82" style="stop-color:#DBDBDB;stop-opacity:0.2016"/>
			<stop  offset="0.9994" style="stop-color:#FFFFFF;stop-opacity:0"/>
		</radialGradient>
		<ellipse class="st2" cx="151.26" cy="335.47" rx="94.85" ry="7.68"/>
		<linearGradient id="SVGID_3_" gradientUnits="userSpaceOnUse" x1="63.8759" y1="224.1567" x2="230.3493" y2="224.1567">
			<stop  offset="0" style="stop-color:#FA71CD"/>
			<stop  offset="1" style="stop-color:#C471F5"/>
		</linearGradient>
		<path class="st3" d="M159.77,299.25c-16.81,4.9-33.66,0.05-49.64-10.3c-28.09-18.17-34.22-53.34-18.57-82.28
			c16.5-30.51,53.23-39.05,82.93-21.19c6.17,3.71,11.47,8.32,15.84,13.56c6.4,7.68,16.48,11.24,26.17,8.83l0.83-0.21
			c10.88-2.71,16.25-14.93,10.97-24.82c-7.6-14.23-19.26-26.54-34.48-35.05c-40.47-22.61-92.27-9.21-116.74,30.16
			c-25.8,41.5-12.57,95.95,29.16,121.04c17.59,10.58,37.4,14.23,56.28,11.76c3.34-0.44,5.62-3.61,4.95-6.91l0,0
			C166.76,300.34,163.2,298.25,159.77,299.25z"/>
		<linearGradient id="SVGID_4_" gradientUnits="userSpaceOnUse" x1="146.9413" y1="198.4351" x2="148.6354" y2="291.2729">
			<stop  offset="0.1098" style="stop-color:#666666"/>
			<stop  offset="0.2379" style="stop-color:#757575;stop-opacity:0.856"/>
			<stop  offset="0.484" style="stop-color:#9C9C9C;stop-opacity:0.5794"/>
			<stop  offset="0.82" style="stop-color:#DBDBDB;stop-opacity:0.2016"/>
			<stop  offset="0.9994" style="stop-color:#FFFFFF;stop-opacity:0"/>
		</linearGradient>
		<path class="st4" d="M159.77,299.25c-16.81,4.9-33.66,0.05-49.64-10.3c-28.09-18.17-34.22-53.34-18.57-82.28
			c16.5-30.51,53.23-39.05,82.93-21.19c6.17,3.71,11.47,8.32,15.84,13.56c6.4,7.68,16.48,11.24,26.17,8.83l0.83-0.21
			c10.88-2.71,16.25-14.93,10.97-24.82c-7.6-14.23-19.26-26.54-34.48-35.05c-40.47-22.61-92.27-9.21-116.74,30.16
			c-25.8,41.5-12.57,95.95,29.16,121.04c17.59,10.58,37.4,14.23,56.28,11.76c3.34-0.44,5.62-3.61,4.95-6.91l0,0
			C166.76,300.34,163.2,298.25,159.77,299.25z"/>
		<linearGradient id="SVGID_5_" gradientUnits="userSpaceOnUse" x1="155.0375" y1="166.8161" x2="132.0676" y2="274.0085">
			<stop  offset="0" style="stop-color:#764BA2"/>
			<stop  offset="1" style="stop-color:#667EEA"/>
		</linearGradient>
		<path class="st5" d="M88.45,207.07c18.09-29.59,56.34-39.45,86.04-21.59c6.17,3.71,11.47,8.32,15.84,13.56
			c6.4,7.68,16.48,11.24,26.17,8.83l0.83-0.21c10.88-2.71,16.25-14.93,10.97-24.82c-7.6-14.23-19.26-26.54-34.48-35.05
			c-40.47-22.61-92.27-9.21-116.74,30.16c-25.8,41.5-12.57,95.95,29.16,121.04c11.66,7.01,24.29,10.96,36.99,12.12
			C69.71,297.87,74.43,230.01,88.45,207.07z"/>
		<linearGradient id="SVGID_6_" gradientUnits="userSpaceOnUse" x1="191.9272" y1="199.817" x2="104.8494" y2="238.7817">
			<stop  offset="0.1098" style="stop-color:#666666"/>
			<stop  offset="0.2379" style="stop-color:#757575;stop-opacity:0.856"/>
			<stop  offset="0.484" style="stop-color:#9C9C9C;stop-opacity:0.5794"/>
			<stop  offset="0.82" style="stop-color:#DBDBDB;stop-opacity:0.2016"/>
			<stop  offset="0.9994" style="stop-color:#FFFFFF;stop-opacity:0"/>
		</linearGradient>
		<path class="st6" d="M88.45,207.07c18.09-29.59,56.34-39.45,86.04-21.59c6.17,3.71,11.47,8.32,15.84,13.56
			c6.4,7.68,16.48,11.24,26.17,8.83l0.83-0.21c10.88-2.71,16.25-14.93,10.97-24.82c-7.6-14.23-19.26-26.54-34.48-35.05
			c-40.47-22.61-92.27-9.21-116.74,30.16c-25.8,41.5-12.57,95.95,29.16,121.04c11.66,7.01,24.29,10.96,36.99,12.12
			C69.71,297.87,74.43,230.01,88.45,207.07z"/>
		<linearGradient id="SVGID_7_" gradientUnits="userSpaceOnUse" x1="63.8827" y1="182.0117" x2="230.3425" y2="182.0117">
			<stop  offset="0" style="stop-color:#4FACFE"/>
			<stop  offset="1" style="stop-color:#00F2FE"/>
		</linearGradient>
		<path class="st7" d="M129.37,164.56c36.39-1.18,53.59,19.75,62.53,33.45c5.46,8.37,14.89,12.27,24.59,9.86l0.83-0.21
			c10.88-2.71,16.25-14.93,10.97-24.82c-7.6-14.23-19.26-26.54-34.48-35.05c-40.47-22.61-92.27-9.21-116.74,30.16
			c-9.55,15.36-13.74,32.49-13.13,49.25C63.25,191.08,92.98,165.74,129.37,164.56z"/>
		<linearGradient id="SVGID_8_" gradientUnits="userSpaceOnUse" x1="63.8924" y1="194.2394" x2="230.3382" y2="194.2394">
			<stop  offset="0" style="stop-color:#00EDFF"/>
			<stop  offset="1" style="stop-color:#00F2FE;stop-opacity:0"/>
		</linearGradient>
		<path class="st8" d="M217.32,204.43l-0.83,0.21c-9.7,2.41-19.13-1.48-24.59-9.86c-8.94-13.7-26.14-34.63-62.53-33.45
			c-36.4,1.18-66.13,26.52-65.43,62.65c-0.02-0.52-0.02-1.04-0.03-1.56c-0.03,1.6-0.03,3.2,0.03,4.8
			c-0.69-36.13,29.04-61.47,65.43-62.65c36.39-1.18,53.59,19.75,62.53,33.45c5.46,8.37,14.89,12.27,24.59,9.86l0.83-0.21
			c8.56-2.13,13.71-10.16,12.94-18.31C229.6,196.3,224.74,202.58,217.32,204.43z"/>
		<linearGradient id="SVGID_9_" gradientUnits="userSpaceOnUse" x1="180.0116" y1="293.708" x2="176.8173" y2="308.2425">
			<stop  offset="0" style="stop-color:#FA71CD"/>
			<stop  offset="1" style="stop-color:#C471F5"/>
		</linearGradient>
		<path class="st9" d="M184.98,299.86c0,3.49-2.83,6.32-6.32,6.32s-6.32-2.83-6.32-6.32s2.83-6.32,6.32-6.32
			S184.98,296.37,184.98,299.86z"/>
		<g>
			<linearGradient id="SVGID_10_" gradientUnits="userSpaceOnUse" x1="111.5407" y1="271.42" x2="163.2888" y2="279.2177">
				<stop  offset="0" style="stop-color:#FF99F5"/>
				<stop  offset="0.9921" style="stop-color:#C471F5;stop-opacity:0"/>
			</linearGradient>
			<path class="st10" d="M159.77,299.25c-16.81,4.9-33.66,0.05-49.64-10.3c-17.78-11.5-26.75-29.82-26.98-49.05
				c-0.44,20.02,8.53,39.28,26.98,51.21c15.99,10.34,32.83,15.2,49.64,10.3c3.43-1,6.99,1.09,7.7,4.6c0,0.02,0.01,0.05,0.01,0.07
				c0.14-0.72,0.14-1.47-0.01-2.23C166.76,300.34,163.2,298.25,159.77,299.25z"/>
		</g>
		<linearGradient id="SVGID_11_" gradientUnits="userSpaceOnUse" x1="194.0971" y1="287.189" x2="192.8193" y2="297.0916">
			<stop  offset="0" style="stop-color:#FA71CD"/>
			<stop  offset="1" style="stop-color:#C471F5"/>
		</linearGradient>
		<path class="st11" d="M198.09,292.01c0,2.55-2.07,4.62-4.62,4.62c-2.55,0-4.62-2.07-4.62-4.62s2.07-4.62,4.62-4.62
			C196.03,287.39,198.09,289.46,198.09,292.01z"/>
		<linearGradient id="SVGID_12_" gradientUnits="userSpaceOnUse" x1="204.3882" y1="281.7554" x2="203.1104" y2="288.3039">
			<stop  offset="0" style="stop-color:#FA71CD"/>
			<stop  offset="1" style="stop-color:#C471F5"/>
		</linearGradient>
		<circle class="st12" cx="203.87" cy="284.41" r="2.98"/>
		<g>
			<linearGradient id="SVGID_13_" gradientUnits="userSpaceOnUse" x1="106.8034" y1="287.1094" x2="130.011" y2="187.2728">
				<stop  offset="0" style="stop-color:#90A8FC"/>
				<stop  offset="1" style="stop-color:#667EEA;stop-opacity:0"/>
			</linearGradient>
			<path class="st13" d="M88.45,207.07c11.71-19.16,31.87-30.03,52.69-30.48c-21.7-0.42-43.04,10.54-55.22,30.48
				c-13.69,22.39-18.49,87.59,49.68,103c2.54,0.46,5.09,0.81,7.64,1.05C69.71,297.87,74.43,230.01,88.45,207.07z"/>
		</g>
	</g>
	<g>
		<text transform="matrix(1 0 0 1 116.7369 255.691)" class="st14 st15 st16">COMPANY NAME</text>
		<g>
			<text transform="matrix(1 0 0 1 225.6096 273.5799)" class="st17 st18 st19 st20">Legal Tech Solutions</text>
		</g>
		<path class="st21" d="M443.21,260.06H122.32c-0.46,0-0.83,0.37-0.83,0.83l0,0c0,0.46,0.37,0.83,0.83,0.83h320.88
			c0.46,0,0.83-0.37,0.83-0.83l0,0C444.04,260.43,443.67,260.06,443.21,260.06z"/>
	</g>
	<text transform="matrix(1 0 0 1 121.4926 256.564)" class="st22 st23 st24">LT Solutions</text>
</g>
<g id="DESIGNED_BY_FREEPIK" class="st0">
	<g class="st25">
		<g>
			<g id="XMLID_1_">
				<g id="XMLID_520_">
					<path id="XMLID_528_" class="st26" d="M260.1,465.47c-0.43,0.44-0.8,0.93-1.11,1.45l-0.47-0.24c-0.07-0.3-0.35-0.5-0.66-0.47
						c-0.33,0.04-0.57,0.34-0.53,0.67c0.04,0.33,0.34,0.57,0.67,0.53c0.07-0.01,0.13-0.03,0.18-0.05l0.45,0.23
						c-0.25,0.55-0.43,1.14-0.54,1.74l0.75,0.13c0.23-1.31,0.85-2.51,1.79-3.47L260.1,465.47z"/>
					<path id="XMLID_527_" class="st26" d="M265.59,463.16c-0.17,0-0.34,0.01-0.51,0.02l-0.07-0.63c0.19-0.15,0.3-0.39,0.27-0.64
						c-0.05-0.39-0.4-0.67-0.8-0.63c-0.39,0.05-0.67,0.4-0.63,0.8c0.03,0.25,0.19,0.46,0.4,0.56l0.07,0.62
						c-0.71,0.12-1.4,0.33-2.06,0.65l0.33,0.68c0.93-0.45,1.94-0.67,3-0.67c0.5,0,0.99,0.05,1.48,0.16l0.16-0.74
						C266.69,463.22,266.14,463.16,265.59,463.16z"/>
					<path id="XMLID_526_" class="st26" d="M272.19,465.71c0.33-0.04,0.57-0.34,0.53-0.67c-0.04-0.33-0.34-0.57-0.67-0.53
						c-0.31,0.04-0.54,0.3-0.53,0.61l-0.42,0.36c-0.42-0.43-0.89-0.81-1.41-1.14l-0.4,0.64c1.13,0.71,2.02,1.73,2.56,2.93l0.69-0.31
						c-0.25-0.55-0.57-1.07-0.94-1.55l0.4-0.35C272.06,465.72,272.13,465.72,272.19,465.71z"/>
					<path id="XMLID_525_" class="st26" d="M265.04,473.37c-0.39,0.02-0.77,0.03-1.16,0.03c-0.88,0-1.73-0.06-2.48-0.18
						c-0.39-0.06-0.85-0.15-1.27-0.29c1.05,1.86,3.07,3.13,5.39,3.13c2.86,0,5.26-1.92,5.95-4.5c-0.68,0.45-1.51,0.83-2.46,1.12
						C267.84,473.05,266.46,473.29,265.04,473.37z"/>
					<path id="XMLID_521_" class="st26" d="M265.59,464.68c-3.35,0-6.08,2.67-6.08,5.94c0,0.43,0.05,0.85,0.14,1.26
						c0.67,0.48,2.71,0.89,5.35,0.73c2.88-0.17,5.3-0.96,6.67-2.16c-0.01-0.19-0.02-0.39-0.05-0.58
						C271.24,466.91,268.65,464.68,265.59,464.68z M263.43,471.19c-1.02,0-1.85-0.83-1.85-1.85c0-1.02,0.83-1.85,1.85-1.85
						c1.02,0,1.85,0.83,1.85,1.85C265.28,470.36,264.45,471.19,263.43,471.19z M268.17,470.29c-0.75,0-1.36-0.61-1.36-1.36
						s0.61-1.36,1.36-1.36c0.75,0,1.36,0.61,1.36,1.36S268.92,470.29,268.17,470.29z"/>
				</g>
				<path id="XMLID_518_" class="st26" d="M281.6,466.55c-0.29-0.12-0.81-0.31-1.38-0.24c-0.55,0.07-0.84,0.34-0.84,1.01v0.87h2.23
					v1.72h-2.23v5.45h-1.93v-5.45h-1.34v-1.72h1.34v-0.89c0-1.68,0.9-2.78,2.57-2.78c0.64,0,1.16,0.12,1.59,0.31L281.6,466.55z"/>
				<path id="XMLID_516_" class="st26" d="M286.3,469.88c-0.18-0.03-0.36-0.05-0.53-0.05c-0.9,0-1.51,0.55-1.51,1.61v3.91h-1.93
					v-7.17h1.87v0.78c0.45-0.67,1.14-0.98,2.02-0.98c0.41,0,0.85,0.13,1.09,0.34L286.3,469.88z"/>
				<path id="XMLID_513_" class="st26" d="M293.97,471.76c0,0.22-0.01,0.49-0.04,0.65h-5.08c0.21,1.04,0.93,1.49,1.84,1.49
					c0.62,0,1.3-0.25,1.81-0.69l1.13,1.24c-0.81,0.75-1.85,1.09-3.06,1.09c-2.2,0-3.72-1.5-3.72-3.75c0-2.26,1.48-3.8,3.63-3.8
					C292.54,467.99,293.96,469.52,293.97,471.76z M288.85,471.09h3.18c-0.18-0.92-0.73-1.44-1.56-1.44
					C289.55,469.65,289.02,470.2,288.85,471.09z"/>
				<path id="XMLID_510_" class="st26" d="M301.62,471.76c0,0.22-0.01,0.49-0.04,0.65h-5.08c0.21,1.04,0.93,1.49,1.84,1.49
					c0.62,0,1.3-0.25,1.81-0.69l1.13,1.24c-0.81,0.75-1.85,1.09-3.06,1.09c-2.2,0-3.72-1.5-3.72-3.75c0-2.26,1.48-3.8,3.63-3.8
					C300.2,467.99,301.61,469.52,301.62,471.76z M296.5,471.09h3.18c-0.18-0.92-0.73-1.44-1.56-1.44
					C297.21,469.65,296.67,470.2,296.5,471.09z"/>
				<path id="XMLID_507_" class="st26" d="M309.96,471.76c0,2.15-1.49,3.77-3.47,3.77c-0.96,0-1.64-0.38-2.11-0.93v3.71h-1.92
					v-10.13h1.89v0.79c0.47-0.58,1.15-0.98,2.14-0.98C308.47,467.99,309.96,469.61,309.96,471.76z M304.29,471.76
					c0,1.13,0.75,1.98,1.84,1.98c1.14,0,1.85-0.88,1.85-1.98c0-1.1-0.71-1.98-1.85-1.98C305.03,469.79,304.29,470.63,304.29,471.76z
					"/>
				<path id="XMLID_504_" class="st26" d="M313.07,465.84c0,0.7-0.54,1.23-1.24,1.23c-0.7,0-1.23-0.53-1.23-1.23
					c0-0.7,0.53-1.24,1.23-1.24C312.53,464.59,313.07,465.14,313.07,465.84z M312.81,475.35h-1.93v-7.17h1.93V475.35z"/>
				<path id="XMLID_502_" class="st26" d="M316.03,470.74l2.7-2.55h2.37l-3.48,3.38l3.5,3.8h-2.38l-2.72-2.9v2.9h-1.93V464.7h1.93
					V470.74z"/>
			</g>
			<g>
				<path class="st26" d="M184.41,475.29v-1.05c-0.53,0.72-1.39,1.23-2.39,1.23c-1.85,0-3.15-1.41-3.15-3.71
					c0-2.26,1.29-3.72,3.15-3.72c0.95,0,1.82,0.47,2.39,1.25v-3.76h1.1v9.77H184.41z M184.41,473.37v-3.21
					c-0.4-0.62-1.24-1.14-2.12-1.14c-1.42,0-2.27,1.17-2.27,2.74c0,1.57,0.85,2.72,2.27,2.72
					C183.17,474.48,184.02,473.99,184.41,473.37z"/>
				<path class="st26" d="M186.93,471.74c0-2.05,1.46-3.71,3.49-3.71c2.14,0,3.4,1.67,3.4,3.79v0.28h-5.73
					c0.09,1.33,1.03,2.45,2.55,2.45c0.81,0,1.63-0.32,2.18-0.89l0.53,0.72c-0.7,0.7-1.65,1.08-2.81,1.08
					C188.44,475.46,186.93,473.96,186.93,471.74z M190.4,468.95c-1.51,0-2.26,1.27-2.31,2.36h4.64
					C192.72,470.25,192.01,468.95,190.4,468.95z"/>
				<path class="st26" d="M194.61,474.35l0.57-0.79c0.47,0.54,1.36,1.01,2.33,1.01c1.08,0,1.67-0.51,1.67-1.22
					c0-1.71-4.38-0.66-4.38-3.28c0-1.1,0.95-2.04,2.64-2.04c1.2,0,2.05,0.45,2.62,1.03l-0.51,0.76c-0.42-0.51-1.2-0.89-2.11-0.89
					c-0.97,0-1.57,0.48-1.57,1.11c0,1.55,4.38,0.53,4.38,3.28c0,1.19-0.95,2.14-2.78,2.14
					C196.31,475.46,195.32,475.11,194.61,474.35z"/>
				<path class="st26" d="M201.48,466.47c0-0.41,0.34-0.75,0.73-0.75c0.41,0,0.75,0.34,0.75,0.75c0,0.41-0.34,0.73-0.75,0.73
					C201.81,467.2,201.48,466.88,201.48,466.47z M201.67,475.29v-7.07h1.1v7.07H201.67z"/>
				<path class="st26" d="M204.58,477.11l0.56-0.82c0.59,0.7,1.29,0.97,2.3,0.97c1.17,0,2.27-0.57,2.27-2.12v-1.01
					c-0.51,0.72-1.38,1.26-2.37,1.26c-1.85,0-3.15-1.38-3.15-3.66c0-2.27,1.29-3.68,3.15-3.68c0.95,0,1.8,0.47,2.37,1.25v-1.07h1.1
					v6.87c0,2.34-1.64,3.08-3.37,3.08C206.24,478.16,205.42,477.93,204.58,477.11z M209.71,473.25v-3.09
					c-0.38-0.62-1.23-1.14-2.11-1.14c-1.42,0-2.27,1.13-2.27,2.7c0,1.55,0.85,2.7,2.27,2.7
					C208.48,474.41,209.33,473.87,209.71,473.25z"/>
				<path class="st26" d="M217.41,475.29v-4.63c0-1.24-0.63-1.64-1.58-1.64c-0.86,0-1.68,0.53-2.09,1.1v5.17h-1.1v-7.07h1.1v1.03
					c0.5-0.59,1.46-1.2,2.52-1.2c1.48,0,2.26,0.75,2.26,2.29v4.97H217.41z"/>
				<path class="st26" d="M219.93,471.74c0-2.05,1.46-3.71,3.49-3.71c2.14,0,3.4,1.67,3.4,3.79v0.28h-5.73
					c0.09,1.33,1.03,2.45,2.55,2.45c0.81,0,1.63-0.32,2.18-0.89l0.53,0.72c-0.7,0.7-1.66,1.08-2.81,1.08
					C221.44,475.46,219.93,473.96,219.93,471.74z M223.4,468.95c-1.51,0-2.26,1.27-2.31,2.36h4.64
					C225.72,470.25,225.02,468.95,223.4,468.95z"/>
				<path class="st26" d="M233.35,475.29v-1.05c-0.53,0.72-1.39,1.23-2.39,1.23c-1.85,0-3.15-1.41-3.15-3.71
					c0-2.26,1.29-3.72,3.15-3.72c0.95,0,1.82,0.47,2.39,1.25v-3.76h1.1v9.77H233.35z M233.35,473.37v-3.21
					c-0.4-0.62-1.25-1.14-2.12-1.14c-1.42,0-2.27,1.17-2.27,2.74c0,1.57,0.85,2.72,2.27,2.72
					C232.1,474.48,232.95,473.99,233.35,473.37z"/>
				<path class="st26" d="M239.69,475.29v-9.77h1.1v3.76c0.57-0.78,1.42-1.25,2.39-1.25c1.85,0,3.15,1.46,3.15,3.72
					c0,2.3-1.3,3.71-3.15,3.71c-1,0-1.86-0.51-2.39-1.23v1.05H239.69z M242.9,474.48c1.44,0,2.29-1.16,2.29-2.72
					c0-1.57-0.85-2.74-2.29-2.74c-0.86,0-1.73,0.53-2.11,1.14v3.21C241.17,473.99,242.04,474.48,242.9,474.48z"/>
				<path class="st26" d="M247.53,477.06c0.16,0.07,0.43,0.12,0.6,0.12c0.48,0,0.81-0.16,1.05-0.75l0.47-1.07l-2.96-7.15h1.19
					l2.36,5.8l2.34-5.8h1.2l-3.54,8.51c-0.42,1.03-1.14,1.42-2.08,1.44c-0.23,0-0.6-0.04-0.81-0.1L247.53,477.06z"/>
			</g>
		</g>
	</g>
</g>
</svg>
