<?xml version="1.0" encoding="utf-8"?>
<!-- Generator: Adobe Illustrator 23.0.3, SVG Export Plug-In . SVG Version: 6.00 Build 0)  -->
<svg version="1.1" id="Layer_1" xmlns="http://www.w3.org/2000/svg" xmlns:xlink="http://www.w3.org/1999/xlink" x="0px" y="0px"
	 viewBox="0 0 426.58 183.48" style="enable-background:new 0 0 426.58 183.48;" xml:space="preserve">
<style type="text/css">
	.st0{display:none;}
	.st1{display:inline;fill:#686868;}
	.st2{display:none;fill:#686868;}
	.st3{fill:#4D4D4D;}
</style>
<g id="calendar_1_" class="st0">
	<polygon id="XMLID_47_" class="st1" points="369.38,334.21 363.54,334.21 363.54,373.24 363.54,382.62 413.26,334.21 
		409.02,334.21 	"/>
	<path id="XMLID_46_" class="st1" d="M99.34,57.67V45.14v-5.92V18.07c0-2.71-2.44-4.9-5.42-4.9c-3.01,0-5.43,2.2-5.43,4.9v21.15
		v5.92v12.08c-4.42,1.92-7.51,6.33-7.51,11.46c0,6.92,5.61,12.52,12.52,12.52c6.92,0,12.53-5.6,12.53-12.52
		C106.02,63.88,103.3,59.77,99.34,57.67z"/>
	<path id="XMLID_45_" class="st1" d="M173.09,57.01V45.14v-5.92V18.07c0-2.71-2.43-4.9-5.42-4.9c-3,0-5.43,2.2-5.43,4.9v21.15v5.92
		v12.82c-3.65,2.19-6.12,6.14-6.12,10.72c0,6.92,5.6,12.52,12.52,12.52c6.92,0,12.52-5.6,12.52-12.52
		C181.15,63.34,177.79,58.81,173.09,57.01z"/>
	<path id="XMLID_44_" class="st1" d="M246.27,57.05V45.14v-5.92V18.07c0-2.71-2.42-4.9-5.42-4.9c-2.99,0-5.43,2.2-5.43,4.9v21.15
		v5.92v12.75c-3.73,2.16-6.26,6.16-6.26,10.78c0,6.92,5.61,12.52,12.52,12.52c6.92,0,12.52-5.6,12.52-12.52
		C254.2,63.39,250.91,58.88,246.27,57.05z"/>
	<path id="XMLID_43_" class="st1" d="M321.69,57.37V45.14v-5.92V18.07c0-2.71-2.44-4.9-5.43-4.9c-2.99,0-5.42,2.2-5.42,4.9v21.15
		v5.92v12.37c-4.12,2.05-6.97,6.26-6.97,11.17c0,6.92,5.6,12.52,12.52,12.52c6.91,0,12.52-5.6,12.52-12.52
		C328.92,63.66,325.95,59.36,321.69,57.37z"/>
	<path id="XMLID_189_" class="st1" d="M383.72,30.33h-29.33v-0.05h-21.78l-0.14,12.49c10.35,4.98,12.67,17.51,12.31,25.91
		c-0.69,15.9-12.89,28.8-28.8,28.8c-15.9,0-28.16-12.9-28.8-28.8c-0.35-8.54,4.15-21.61,11.1-25.5V30.28h-40.05l-0.14,12.09
		c11.04,7.15,12.39,14.56,12.39,26.31c0,15.91-12.89,28.8-28.8,28.8c-15.91,0-28.07-12.91-28.8-28.8
		c-0.42-9.08,3.94-20.93,11.02-25.04V30.28h-38.83l0.27,12.29c10.76,8.45,11.03,18.66,10.84,26.11c-0.42,15.91-12.89,28.8-28.8,28.8
		c-15.91,0-28.33-12.89-28.8-28.8c-0.23-7.85,2.35-19.3,12.16-25.29V30.28h-8.02h-31.9v12.7c10.9,8.04,11.31,17.3,11.06,25.7
		c-0.46,15.91-12.9,28.8-28.81,28.8c-15.9,0-28.48-12.89-28.8-28.8C64.1,59.6,67.1,47.72,76.5,42.98l-0.14-12.7H45.5v0.05H31.76
		c-15.5,0-25.94,10.55-25.94,26.04V350.8c0,15.5,10.45,33.5,25.94,33.5h314.66v-66.78h4.2h62.59V56.37
		C413.21,40.88,399.22,30.33,383.72,30.33z M120.83,317.52H70.74v-50.99h50.09V317.52z M120.83,247.4H70.74v-50.98h50.09V247.4z
		 M121.03,178.94H70.93v-50.09h50.09V178.94z M141.06,128.85h50.09v50.09h-50.09V128.85z M141.06,197.31h50.09v50.09h-50.09V197.31z
		 M191.37,317.52h-50.09v-50.99h50.09V317.52z M262.75,317.52H211v-50.99h51.75V317.52z M262.94,247.4h-52.02v-50.09h52.02V247.4z
		 M262.94,178.94h-51.88v-49.82h51.88V178.94z M334.99,317.52l-52.3,0.49v-51.43l52.3-0.05V317.52z M334.58,247.4l-51.89,0.01
		l0.12-50.47l51.77-0.52V247.4z M334.51,178.94l-51.83,0.07l-0.13-49.64l51.96-0.52V178.94z"/>
</g>
<g id="telephone" class="st0">
	<path id="XMLID_103_" class="st1" d="M42.52,175.24c42.72-14.54,59.47-22.44,52.95-51.1c0,0-2.96-9.68-5.5-14.81
		c-58.68,43.53-122.88,39.83-130.07,39.25C-34.56,179.67,1.23,189.3,42.52,175.24z"/>
	<path id="XMLID_102_" class="st1" d="M440.25,166.34h-0.7l0.02,0.17c-52.3,3.8-121.44-46.62-124.95-49.22
		c-0.02-0.01-0.03-0.01-0.04-0.01c-0.24-0.17-0.47-0.34-0.7-0.5c-0.16-0.04-0.34-0.09-0.49-0.18c-0.21-0.12-0.41-0.25-0.62-0.38
		c-9.05,16.25-13.6,32.26-1.61,41.61c12.36,9.63,72.26,44.16,109.36,38.7c0,0,18.95-18,21.33-29.95c-0.26,0.03-0.51,0.1-0.8,0.03
		C440.78,166.55,440.52,166.45,440.25,166.34z"/>
	<path id="XMLID_101_" class="st1" d="M443.56,145.64c1.09-0.37,2.18-0.7,3.31-0.93c1.5-19.85,0.54-76.46-22.5-92.89
		c-25.61-18.27-114.49-35.04-142.15-37.69c-28.01-2.67-116.05-14.29-192.34-2.68c0,0-88.43,12.64-104.52,25.72
		c-15.71,12.78-31.63,57.01-28.59,89.8c0.16,0.04,0.3,0.1,0.45,0.18v-0.07c0.67,0.07,67.26,6.54,127.77-38.48l0.21,0.27
		c0.01-0.01,0.01-0.02,0.01-0.02c0.09-0.11,0.17-0.21,0.26-0.32c0.04-0.06,0.08-0.08,0.13-0.12c-1.2-5.89,1.93-19.2,13.74-22.52
		c13.54-3.8,157.68-9.94,201.38,3.92c0,0,23.86,10.44,18.44,25.72c0.21,0.06,0.44,0.11,0.67,0.27c0.16,0.11,0.32,0.22,0.49,0.33
		c0.16,0.11,0.33,0.24,0.49,0.35c0.03,0.02,0.04,0.04,0.06,0.07c0.17,0.11,0.36,0.25,0.53,0.36c0.08,0.06,0.11,0.13,0.17,0.21
		l0.05-0.07c0.7,0.53,71.11,52.07,121.93,48.38L443.56,145.64z"/>
	<path id="XMLID_262_" class="st1" d="M413.89,261.38L297,169.01c-2.39-1.9-4.93-3.66-7.22-5.11H108.94
		c-2.37,1.61-4.9,3.52-7.35,5.7L-1.19,260.79c-5.92,5.23-10.46,16-10.46,23.91v110.24c0,7.92,6.25,17.63,14.16,17.63h407.43
		c7.91,0,16.06-9.71,16.06-17.63V284.7C426,276.79,420.09,266.29,413.89,261.38z M164.87,313.27h-29.42v-29.42h29.42V313.27z
		 M164.87,265.46h-29.42v-29.42h29.42V265.46z M164.87,217.65h-29.42v-29.41h29.42V217.65z M216.36,313.27h-27.34l-0.18-29.42h27.52
		V313.27z M216.36,265.46h-27.88l-0.36-29.42h28.24V265.46z M216.36,217.65h-28.6v-29.41h28.6V217.65z M267.85,313.27h-29.42v-29.42
		h29.42V313.27z M267.85,265.46h-29.42v-29.42h29.42V265.46z M267.85,217.65h-29.42v-29.41h29.42V217.65z"/>
</g>
<path id="stats_1_" class="st2" d="M428.45,359.28h-20.56V126.35c0-12.35-9.61-22.93-21.7-22.93h-66.33
	c-12.09,0-19.92,10.58-19.92,22.93v232.93l-40.08-0.1c-0.17-4.42,0.1-6.3,0.1-9.2V28.83c0-17.19-9.73-29.35-21.82-29.35h-66.32
	c-12.08,0-23.79,12.16-23.79,29.35l-0.43,329.34c0,2.9,0,1.19,0,1.19l-31.56-0.07V206.63c0-8.47-10.07-15.27-22.15-15.27H27.56
	c-12.09,0-23.46,6.8-23.46,15.27v152.65h-30.19c-7.62,0-13.79,2.57-13.79,6.92v37.41c0,4.35,6.18,7.64,13.79,7.64h223.97h6.59
	h223.97c7.62,0,15.43-3.29,15.43-7.64V366.2C443.87,361.86,436.06,359.28,428.45,359.28z"/>
<g>
	<rect x="23.23" y="133.74" class="st3" width="380.9" height="27.87"/>
	<rect x="23.23" y="23.58" class="st3" width="380.9" height="27.87"/>
	<rect x="23.23" y="79.74" class="st3" width="380.9" height="27.87"/>
</g>
</svg>
