<?xml version="1.0" encoding="utf-8"?>
<!-- Generator: Adobe Illustrator 23.0.3, SVG Export Plug-In . SVG Version: 6.00 Build 0)  -->
<svg version="1.1" id="Ñëîé_1" xmlns="http://www.w3.org/2000/svg" xmlns:xlink="http://www.w3.org/1999/xlink" x="0px" y="0px"
	 viewBox="0 0 600 350" style="enable-background:new 0 0 600 350;" xml:space="preserve">
<style type="text/css">
	.st0{fill:#020230;}
	.st1{opacity:0.8;clip-path:url(#SVGID_2_);}
	.st2{fill:url(#SVGID_3_);}
	.st3{fill:url(#SVGID_4_);}
	.st4{fill:url(#SVGID_5_);}
	.st5{fill:url(#SVGID_6_);}
	.st6{fill:url(#SVGID_7_);}
	.st7{fill:url(#SVGID_8_);}
	.st8{fill:url(#SVGID_9_);}
	.st9{fill:url(#SVGID_10_);}
	.st10{fill:url(#SVGID_11_);}
	.st11{fill:url(#SVGID_12_);}
	.st12{fill:url(#SVGID_13_);}
	.st13{fill:url(#SVGID_14_);}
	.st14{fill:url(#SVGID_15_);}
	.st15{opacity:0.4;fill:#172F78;}
	.st16{opacity:0.6;fill:#172F78;}
	.st17{fill:#172F78;}
	.st18{opacity:0.8;fill:url(#SVGID_16_);}
	.st19{opacity:0.8;fill:#172F78;}
	.st20{fill:#03A7D3;}
	.st21{opacity:0.4;fill:#03A7D3;}
	.st22{opacity:0.8;fill:#03A7D3;}
	.st23{opacity:0.6;fill:url(#SVGID_17_);}
	.st24{fill:url(#SVGID_18_);}
	.st25{fill:url(#SVGID_19_);}
	.st26{fill:#FFFFFF;}
	.st27{opacity:0.4;fill:#06033E;}
	.st28{fill:url(#SVGID_20_);}
	.st29{fill:url(#SVGID_21_);}
	.st30{fill:url(#SVGID_22_);}
	.st31{fill:url(#SVGID_23_);}
	.st32{fill:url(#SVGID_24_);}
	.st33{fill:url(#SVGID_25_);}
	.st34{fill:url(#SVGID_26_);}
	.st35{fill:url(#SVGID_27_);}
	.st36{fill:url(#SVGID_28_);}
	.st37{fill:url(#SVGID_29_);}
	.st38{fill:url(#SVGID_30_);}
	.st39{fill:#8B1E64;}
	.st40{fill:url(#SVGID_31_);}
	.st41{fill:url(#SVGID_32_);}
	.st42{fill:url(#SVGID_33_);}
	.st43{fill:url(#SVGID_34_);}
	.st44{fill:url(#SVGID_35_);}
	.st45{fill:url(#SVGID_36_);}
	.st46{opacity:0.2;fill:#03A7D3;}
	.st47{fill:url(#SVGID_37_);}
	.st48{fill:url(#SVGID_38_);}
	.st49{fill:url(#SVGID_39_);}
	.st50{fill:url(#SVGID_40_);}
	.st51{fill:url(#SVGID_41_);}
	.st52{fill:url(#SVGID_42_);}
	.st53{fill:url(#SVGID_43_);}
	.st54{fill:url(#SVGID_44_);}
	.st55{fill:url(#SVGID_45_);}
	.st56{fill:url(#SVGID_46_);}
	.st57{fill:url(#SVGID_47_);}
	.st58{fill:url(#SVGID_48_);}
	.st59{fill:url(#SVGID_49_);}
	.st60{opacity:0.3;}
	.st61{display:none;}
	.st62{display:inline;opacity:0.6;fill:url(#SVGID_50_);}
	.st63{display:inline;}
	.st64{fill:url(#SVGID_51_);}
	.st65{fill:url(#SVGID_52_);}
	.st66{fill:url(#SVGID_53_);}
	.st67{fill:url(#SVGID_54_);}
	.st68{fill:url(#SVGID_55_);}
	.st69{fill:url(#SVGID_56_);}
	.st70{fill:url(#SVGID_57_);}
</style>
<g>
	<rect x="0" class="st0" width="600" height="350"/>
	<g>
		<g>
			<defs>
				<rect id="SVGID_1_" x="0" y="0.06" width="600" height="349.88"/>
			</defs>
			<clipPath id="SVGID_2_">
				<use xlink:href="#SVGID_1_"  style="overflow:visible;"/>
			</clipPath>
			<g class="st1">
				
					<linearGradient id="SVGID_3_" gradientUnits="userSpaceOnUse" x1="1573.2056" y1="-36.0257" x2="1433.6036" y2="72.8825" gradientTransform="matrix(-1 0 0 -1 2021.929 350)">
					<stop  offset="0" style="stop-color:#183372"/>
					<stop  offset="1" style="stop-color:#020230"/>
				</linearGradient>
				<polygon class="st2" points="600,349.94 600,221.28 389.96,349.94 				"/>
				
					<linearGradient id="SVGID_4_" gradientUnits="userSpaceOnUse" x1="2085.4973" y1="316.8279" x2="1878.5432" y2="252.8072" gradientTransform="matrix(-1 0 0 -1 2021.929 350)">
					<stop  offset="0" style="stop-color:#183372"/>
					<stop  offset="1" style="stop-color:#020230"/>
				</linearGradient>
				<polygon class="st3" points="124.31,211.08 216.63,0.06 0,0.06 0,137.83 				"/>
				
					<linearGradient id="SVGID_5_" gradientUnits="userSpaceOnUse" x1="1486.6559" y1="69.4905" x2="1750.9656" y2="69.4905" gradientTransform="matrix(-1 0 0 -1 2021.929 350)">
					<stop  offset="0" style="stop-color:#183372"/>
					<stop  offset="1" style="stop-color:#020230"/>
				</linearGradient>
				<polygon class="st4" points="359.96,349.94 389.96,349.94 535.27,260.93 124.31,211.08 				"/>
				
					<linearGradient id="SVGID_6_" gradientUnits="userSpaceOnUse" x1="1410.656" y1="162.6815" x2="1635.1876" y2="162.6815" gradientTransform="matrix(-1 0 0 -1 2021.929 350)">
					<stop  offset="0" style="stop-color:#183372"/>
					<stop  offset="1" style="stop-color:#020230"/>
				</linearGradient>
				<polygon class="st5" points="535.27,260.93 480.73,113.71 310.74,233.7 				"/>
				
					<linearGradient id="SVGID_7_" gradientUnits="userSpaceOnUse" x1="1839.8651" y1="153.1109" x2="1794.9851" y2="257.8975" gradientTransform="matrix(-1 0 0 -1 2021.929 350)">
					<stop  offset="0" style="stop-color:#183372"/>
					<stop  offset="1" style="stop-color:#020230"/>
				</linearGradient>
				<polygon class="st6" points="265.78,122.07 216.63,0.06 124.31,211.08 				"/>
				
					<linearGradient id="SVGID_8_" gradientUnits="userSpaceOnUse" x1="1634.6875" y1="172.1151" x2="1821.1165" y2="172.1151" gradientTransform="matrix(-1 0 0 -1 2021.929 350)">
					<stop  offset="0" style="stop-color:#183372"/>
					<stop  offset="1" style="stop-color:#020230"/>
				</linearGradient>
				<polygon class="st7" points="310.74,233.7 265.78,122.07 124.31,211.08 				"/>
				
					<linearGradient id="SVGID_9_" gradientUnits="userSpaceOnUse" x1="1453.1969" y1="233.1213" x2="1717.2976" y2="233.1213" gradientTransform="matrix(-1 0 0 -1 2021.929 350)">
					<stop  offset="0" style="stop-color:#183372"/>
					<stop  offset="1" style="stop-color:#020230"/>
				</linearGradient>
				<polygon class="st8" points="310.74,233.7 480.73,113.71 216.63,0.06 				"/>
				
					<linearGradient id="SVGID_10_" gradientUnits="userSpaceOnUse" x1="1541.1968" y1="293.1156" x2="1805.2975" y2="293.1156" gradientTransform="matrix(-1 0 0 -1 2021.929 350)">
					<stop  offset="0" style="stop-color:#183372"/>
					<stop  offset="1" style="stop-color:#020230"/>
				</linearGradient>
				<polygon class="st9" points="480.73,113.71 438.63,0.06 216.63,0.06 				"/>
				
					<linearGradient id="SVGID_11_" gradientUnits="userSpaceOnUse" x1="2067.7349" y1="156.6651" x2="1913.7458" y2="41.7849" gradientTransform="matrix(-1 0 0 -1 2021.929 350)">
					<stop  offset="0" style="stop-color:#183372"/>
					<stop  offset="1" style="stop-color:#020230"/>
				</linearGradient>
				<polygon class="st10" points="208.91,260.93 0,137.83 0,349.94 				"/>
				
					<linearGradient id="SVGID_12_" gradientUnits="userSpaceOnUse" x1="1635.9646" y1="44.5667" x2="1800.8821" y2="44.5667" gradientTransform="matrix(-1 0 0 -1 2021.929 350)">
					<stop  offset="0" style="stop-color:#183372"/>
					<stop  offset="1" style="stop-color:#020230"/>
				</linearGradient>
				<polygon class="st11" points="359.96,349.94 208.91,260.93 195.05,349.94 				"/>
				
					<linearGradient id="SVGID_13_" gradientUnits="userSpaceOnUse" x1="2007.5778" y1="-47.5689" x2="1835.9272" y2="50.7323" gradientTransform="matrix(-1 0 0 -1 2021.929 350)">
					<stop  offset="0" style="stop-color:#183372"/>
					<stop  offset="1" style="stop-color:#020230"/>
				</linearGradient>
				<polygon class="st12" points="195.05,349.94 208.91,260.93 0,349.94 				"/>
				
					<linearGradient id="SVGID_14_" gradientUnits="userSpaceOnUse" x1="1347.9291" y1="219.5036" x2="1509.2976" y2="219.5036" gradientTransform="matrix(-1 0 0 -1 2021.929 350)">
					<stop  offset="0" style="stop-color:#183372"/>
					<stop  offset="1" style="stop-color:#020230"/>
				</linearGradient>
				<polygon class="st13" points="535.27,260.93 600,221.28 600,105.57 438.63,0.06 				"/>
				
					<linearGradient id="SVGID_15_" gradientUnits="userSpaceOnUse" x1="1422.4229" y1="390.1653" x2="1527.8115" y2="267.9649" gradientTransform="matrix(-1 0 0 -1 2021.929 350)">
					<stop  offset="0" style="stop-color:#183372"/>
					<stop  offset="1" style="stop-color:#020230"/>
				</linearGradient>
				<polygon class="st14" points="600,105.57 600,0.06 438.63,0.06 				"/>
			</g>
		</g>
		
			<rect x="379.34" y="304.6" transform="matrix(0.8518 -0.5239 0.5239 0.8518 -91.0272 287.989)" class="st15" width="168.26" height="0.55"/>
		
			<rect x="343.27" y="-83.45" transform="matrix(0.3956 -0.9184 0.9184 0.3956 157.3508 348.5913)" class="st16" width="0.55" height="276.38"/>
		<polygon class="st17" points="303.25,143.61 286.65,99.21 422.54,115 422.48,115.55 287.47,99.86 303.76,143.41 		"/>
		<polygon class="st16" points="358.13,349.17 207.86,260.9 11.81,345.21 11.59,344.7 207.9,260.29 208.02,260.36 358.41,348.7 		
			"/>
		
			<rect x="61.88" y="102.31" transform="matrix(0.5077 -0.8616 0.8616 0.5077 -119.7018 139.4421)" class="st16" width="0.55" height="144.29"/>
	</g>
	<linearGradient id="SVGID_16_" gradientUnits="userSpaceOnUse" x1="300.0001" y1="350" x2="300.0001" y2="-9.094947e-13">
		<stop  offset="0" style="stop-color:#020230"/>
		<stop  offset="0.274" style="stop-color:#030534"/>
		<stop  offset="0.5554" style="stop-color:#070D40"/>
		<stop  offset="0.8393" style="stop-color:#0D1B55"/>
		<stop  offset="1" style="stop-color:#112564"/>
	</linearGradient>
	<rect x="0" class="st18" width="600" height="350"/>
</g>
<g>
	<path class="st15" d="M171.91,146.48c0,0.87-0.71,1.58-1.58,1.58c-0.87,0-1.58-0.71-1.58-1.58c0-0.87,0.71-1.58,1.58-1.58
		C171.2,144.91,171.91,145.61,171.91,146.48z"/>
	<path class="st16" d="M77.82,87.15c0,1.29-1.05,2.34-2.34,2.34c-1.29,0-2.34-1.05-2.34-2.34c0-1.29,1.05-2.34,2.34-2.34
		C76.77,84.81,77.82,85.85,77.82,87.15z"/>
	<path class="st19" d="M76.45,87.15c0,0.54-0.43,0.97-0.97,0.97c-0.54,0-0.97-0.43-0.97-0.97c0-0.54,0.43-0.97,0.97-0.97
		C76.01,86.18,76.45,86.61,76.45,87.15z"/>
	<path class="st15" d="M194.95,123.17c0,3.45-2.8,6.25-6.25,6.25c-3.45,0-6.25-2.8-6.25-6.25c0-3.45,2.8-6.25,6.25-6.25
		C192.15,116.92,194.95,119.72,194.95,123.17z"/>
	<circle class="st19" cx="188.7" cy="123.17" r="2.6"/>
	<polygon class="st17" points="202.49,168.5 188.33,122.86 304.37,139.11 304.3,139.62 189.06,123.49 202.98,168.34 	"/>
	<g>
		<rect x="328.37" y="183.41" class="st17" width="0.54" height="10.55"/>
		<rect x="328.37" y="196.44" class="st20" width="0.54" height="3.38"/>
	</g>
	<g>
		<rect x="69.88" y="175.5" class="st20" width="0.54" height="10.55"/>
		<rect x="69.88" y="188.48" class="st17" width="0.54" height="3.01"/>
		<rect x="69.88" y="194.02" class="st17" width="0.54" height="3.01"/>
	</g>
	<g>
		<rect x="142.26" y="44.56" class="st17" width="0.54" height="10.55"/>
		<rect x="142.26" y="57.54" class="st20" width="0.54" height="3.01"/>
		<rect x="142.26" y="63.08" class="st20" width="0.54" height="3.01"/>
		<rect x="142.26" y="68.62" class="st20" width="0.54" height="8.55"/>
	</g>
	<g>
		<rect x="262.83" y="267.49" class="st17" width="0.54" height="3.38"/>
		<rect x="262.83" y="240.63" class="st17" width="0.54" height="10.7"/>
	</g>
	<g>
		<rect x="335.95" y="135.16" class="st17" width="0.54" height="3.38"/>
		<g>
			<rect x="335.95" y="122.14" class="st20" width="0.54" height="10.55"/>
			<rect x="335.95" y="108.3" class="st17" width="0.54" height="10.7"/>
			<rect x="335.95" y="92.41" class="st17" width="0.54" height="10.7"/>
		</g>
	</g>
	<g>
		<circle class="st21" cx="87.51" cy="77.08" r="5.88"/>
		<circle class="st22" cx="87.51" cy="77.08" r="2.89"/>
	</g>
	<g>
		<path class="st21" d="M130.88,249.52c0,2.19-1.78,3.97-3.97,3.97s-3.97-1.78-3.97-3.97s1.78-3.97,3.97-3.97
			S130.88,247.33,130.88,249.52z"/>
		<circle class="st22" cx="126.91" cy="249.52" r="1.95"/>
	</g>
	<g>
		<circle class="st21" cx="272" cy="202.07" r="4.13"/>
		<circle class="st22" cx="272" cy="202.07" r="2.03"/>
	</g>
	<g>
		<path class="st21" d="M167.2,113.91c0,1.77-1.43,3.2-3.2,3.2c-1.77,0-3.2-1.43-3.2-3.2c0-1.77,1.43-3.2,3.2-3.2
			C165.76,110.71,167.2,112.14,167.2,113.91z"/>
		<circle class="st22" cx="164" cy="113.91" r="1.57"/>
	</g>
	<circle class="st21" cx="284.31" cy="243.02" r="1.73"/>
	<path class="st21" d="M272.09,147.56c0,0.54-0.43,0.97-0.97,0.97c-0.54,0-0.97-0.43-0.97-0.97c0-0.54,0.43-0.97,0.97-0.97
		C271.66,146.59,272.09,147.03,272.09,147.56z"/>
	<path class="st21" d="M140.02,225.52c0,0.54-0.43,0.97-0.97,0.97c-0.54,0-0.97-0.43-0.97-0.97c0-0.54,0.43-0.97,0.97-0.97
		C139.59,224.55,140.02,224.98,140.02,225.52z"/>
	<radialGradient id="SVGID_17_" cx="123.6943" cy="110.7115" r="81.5802" gradientUnits="userSpaceOnUse">
		<stop  offset="0" style="stop-color:#F8359E"/>
		<stop  offset="0.0428" style="stop-color:#E63192"/>
		<stop  offset="0.1941" style="stop-color:#AA246C"/>
		<stop  offset="0.3446" style="stop-color:#76194B"/>
		<stop  offset="0.4909" style="stop-color:#4B1030"/>
		<stop  offset="0.6322" style="stop-color:#2B091B"/>
		<stop  offset="0.7669" style="stop-color:#13040C"/>
		<stop  offset="0.8926" style="stop-color:#050103"/>
		<stop  offset="1" style="stop-color:#000000"/>
	</radialGradient>
	<circle class="st23" cx="123.69" cy="110.71" r="81.58"/>
	<g>
		<g>
			<path class="st20" d="M198.98,195.98c-1.96,0-3.93-0.43-5.42-1.29l-36.48-21.06c-1.51-0.87-2.35-2.06-2.35-3.33
				c0-1.27,0.83-2.45,2.35-3.33l36.29-21.1c2.99-1.73,7.86-1.73,10.85,0l36.48,21.06c1.51,0.87,2.35,2.06,2.35,3.33
				c0,1.27-0.83,2.46-2.35,3.33l-36.29,21.1C202.91,195.55,200.95,195.98,198.98,195.98z M198.79,145.24c-1.84,0-3.68,0.4-5.09,1.21
				l-36.29,21.1c-1.3,0.75-2.01,1.72-2.01,2.74c0,1.02,0.71,1.99,2.01,2.74l36.48,21.06c2.81,1.62,7.37,1.62,10.17,0l36.29-21.1
				c1.3-0.75,2.01-1.72,2.01-2.74c0-1.02-0.71-1.99-2.01-2.74l-36.48-21.06C202.47,145.65,200.63,145.24,198.79,145.24z"/>
			<g>
				<linearGradient id="SVGID_18_" gradientUnits="userSpaceOnUse" x1="149.9809" y1="158.768" x2="211.7758" y2="158.768">
					<stop  offset="0" style="stop-color:#01C8EF"/>
					<stop  offset="0.1297" style="stop-color:#04B1DD"/>
					<stop  offset="0.5466" style="stop-color:#0E6BA7"/>
					<stop  offset="0.8476" style="stop-color:#154085"/>
					<stop  offset="1" style="stop-color:#172F78"/>
				</linearGradient>
				<path class="st24" d="M242.88,158.75L242.88,158.75l-0.01-17.49l-22.1,2.95l-16.55-9.56c-2.9-1.68-7.61-1.68-10.51,0l-2.58,1.64
					l-35.88,4.79v17.7c0,0.01,0,0.02,0,0.03v0.08l0.01,0c0.04,1.07,0.75,2.13,2.16,2.94l36.48,21.06c2.9,1.68,7.61,1.68,10.51,0
					l36.29-21.1c1.4-0.81,2.11-1.87,2.16-2.93l0.02,0V158.75z"/>
				<radialGradient id="SVGID_19_" cx="139.0233" cy="112.4303" r="138.0007" gradientUnits="userSpaceOnUse">
					<stop  offset="0" style="stop-color:#01C8EF"/>
					<stop  offset="0.1396" style="stop-color:#03BAE4"/>
					<stop  offset="0.4033" style="stop-color:#0895C8"/>
					<stop  offset="0.76" style="stop-color:#115A9A"/>
					<stop  offset="1" style="stop-color:#172F78"/>
				</radialGradient>
				<path class="st25" d="M240.7,138.09l-36.48-21.06c-2.9-1.68-7.61-1.68-10.51,0l-36.29,21.1c-2.9,1.68-2.9,4.39,0,6.07
					l36.48,21.06c2.9,1.68,7.61,1.68,10.51,0l36.29-21.1C243.61,142.49,243.61,139.77,240.7,138.09z"/>
				<path class="st26" d="M240.7,143.1l-36.29,21.1c-2.9,1.68-7.61,1.68-10.51,0l-36.48-21.06c-1.22-0.7-1.92-1.59-2.11-2.5
					c-0.27,1.27,0.43,2.59,2.11,3.56l36.48,21.06c2.9,1.68,7.61,1.68,10.51,0l36.29-21.1c1.69-0.97,2.39-2.3,2.11-3.56
					C242.62,141.51,241.92,142.4,240.7,143.1z"/>
				<g>
					<polygon class="st26" points="209.32,169.93 207.59,170.93 207.59,168.93 209.32,167.94 					"/>
					<polygon class="st26" points="212.93,167.85 211.21,168.84 211.21,166.85 212.93,165.85 					"/>
					<polygon class="st26" points="216.55,165.76 214.82,166.76 214.82,164.76 216.55,163.77 					"/>
					<polygon class="st26" points="213.59,171.51 211.87,172.5 211.87,170.51 213.59,169.51 					"/>
					<polygon class="st26" points="216.77,169.67 215.05,170.67 215.05,168.67 216.77,167.67 					"/>
					<polygon class="st26" points="228.14,159.07 226.41,160.07 226.41,158.07 228.14,157.07 					"/>
					<polygon class="st26" points="238.09,153.32 236.36,154.32 236.36,152.33 238.09,151.33 					"/>
					<polygon class="st26" points="220.16,163.67 218.43,164.67 218.43,162.68 220.16,161.68 					"/>
				</g>
			</g>
			<path class="st27" d="M197,156.37l-24.54-14.17c-1-0.58-0.87-1.58,0.28-2.25l23.98-13.85c1.15-0.67,2.89-0.74,3.89-0.16
				l24.54,14.17c1,0.58,0.87,1.58-0.28,2.25l-23.98,13.85C199.74,156.87,198,156.94,197,156.37z"/>
			<path class="st26" d="M187.35,171.7l-20.25-11.69c-0.48-0.28-0.88-1.03-0.88-1.67v-1.5c0-0.64,0.39-0.94,0.88-0.66l20.25,11.69
				c0.48,0.28,0.88,1.03,0.88,1.67v1.5C188.22,171.69,187.83,171.98,187.35,171.7z"/>
			<g>
				<linearGradient id="SVGID_20_" gradientUnits="userSpaceOnUse" x1="149.9809" y1="125.9555" x2="211.7758" y2="125.9555">
					<stop  offset="0" style="stop-color:#01C8EF"/>
					<stop  offset="0.1297" style="stop-color:#04B1DD"/>
					<stop  offset="0.5466" style="stop-color:#0E6BA7"/>
					<stop  offset="0.8476" style="stop-color:#154085"/>
					<stop  offset="1" style="stop-color:#172F78"/>
				</linearGradient>
				<path class="st28" d="M242.88,125.94L242.88,125.94l-0.01-17.49l-22.1,2.95l-16.55-9.56c-2.9-1.68-7.61-1.68-10.51,0l-2.58,1.64
					l-35.88,4.79v17.69c0,0.01,0,0.02,0,0.03v0.08l0.01,0c0.04,1.07,0.75,2.13,2.16,2.94l36.48,21.06c2.9,1.68,7.61,1.68,10.51,0
					l36.29-21.1c1.4-0.81,2.11-1.87,2.16-2.93l0.02,0V125.94z"/>
				<radialGradient id="SVGID_21_" cx="139.0233" cy="79.6179" r="138.0007" gradientUnits="userSpaceOnUse">
					<stop  offset="0" style="stop-color:#01C8EF"/>
					<stop  offset="0.1396" style="stop-color:#03BAE4"/>
					<stop  offset="0.4033" style="stop-color:#0895C8"/>
					<stop  offset="0.76" style="stop-color:#115A9A"/>
					<stop  offset="1" style="stop-color:#172F78"/>
				</radialGradient>
				<path class="st29" d="M240.7,105.28l-36.48-21.06c-2.9-1.68-7.61-1.68-10.51,0l-36.29,21.1c-2.9,1.68-2.9,4.39,0,6.07
					l36.48,21.06c2.9,1.68,7.61,1.68,10.51,0l36.29-21.1C243.61,109.67,243.61,106.96,240.7,105.28z"/>
				<path class="st27" d="M223.33,106.56l-21.26-12.27c-1.69-0.98-4.43-0.98-6.12,0l-21.14,12.29c-1.69,0.98-1.69,2.56,0,3.54
					l21.26,12.27c1.69,0.98,4.43,0.98,6.13,0l21.14-12.29C225.02,109.11,225.02,107.53,223.33,106.56z"/>
				<path class="st26" d="M240.7,110.29l-36.29,21.1c-2.9,1.68-7.61,1.68-10.51,0l-36.48-21.06c-1.22-0.7-1.92-1.59-2.11-2.5
					c-0.27,1.27,0.43,2.59,2.11,3.56l36.48,21.06c2.9,1.68,7.61,1.68,10.51,0l36.29-21.1c1.69-0.97,2.39-2.3,2.11-3.56
					C242.62,108.7,241.92,109.59,240.7,110.29z"/>
				<g>
					<polygon class="st26" points="209.32,137.12 207.59,138.12 207.59,136.12 209.32,135.12 					"/>
					<polygon class="st26" points="212.93,135.03 211.21,136.03 211.21,134.04 212.93,133.04 					"/>
					<polygon class="st26" points="216.55,132.95 214.82,133.94 214.82,131.95 216.55,130.95 					"/>
					<polygon class="st26" points="213.59,138.69 211.87,139.69 211.87,137.7 213.59,136.7 					"/>
					<polygon class="st26" points="216.77,136.86 215.05,137.85 215.05,135.86 216.77,134.86 					"/>
					<polygon class="st26" points="228.14,126.26 226.41,127.25 226.41,125.26 228.14,124.26 					"/>
					<polygon class="st26" points="238.09,120.51 236.36,121.51 236.36,119.51 238.09,118.52 					"/>
					<polygon class="st26" points="220.16,130.86 218.43,131.86 218.43,129.86 220.16,128.87 					"/>
				</g>
			</g>
			<g>
				<linearGradient id="SVGID_22_" gradientUnits="userSpaceOnUse" x1="149.9809" y1="93.1431" x2="211.7758" y2="93.1431">
					<stop  offset="0" style="stop-color:#01C8EF"/>
					<stop  offset="0.1297" style="stop-color:#04B1DD"/>
					<stop  offset="0.5466" style="stop-color:#0E6BA7"/>
					<stop  offset="0.8476" style="stop-color:#154085"/>
					<stop  offset="1" style="stop-color:#172F78"/>
				</linearGradient>
				<path class="st30" d="M242.88,93.12L242.88,93.12l-0.01-17.49l-22.1,2.95l-16.55-9.56c-2.9-1.68-7.61-1.68-10.51,0l-2.58,1.64
					l-35.88,4.79v17.69c0,0.01,0,0.02,0,0.03v0.08l0.01,0c0.04,1.07,0.75,2.13,2.16,2.94l36.48,21.06c2.9,1.68,7.61,1.68,10.51,0
					l36.29-21.1c1.4-0.81,2.11-1.87,2.16-2.93l0.02,0V93.12z"/>
				<radialGradient id="SVGID_23_" cx="139.0233" cy="46.8054" r="138.0007" gradientUnits="userSpaceOnUse">
					<stop  offset="0" style="stop-color:#01C8EF"/>
					<stop  offset="0.1396" style="stop-color:#03BAE4"/>
					<stop  offset="0.4033" style="stop-color:#0895C8"/>
					<stop  offset="0.76" style="stop-color:#115A9A"/>
					<stop  offset="1" style="stop-color:#172F78"/>
				</radialGradient>
				<path class="st31" d="M240.7,72.47l-36.48-21.06c-2.9-1.68-7.61-1.68-10.51,0l-36.29,21.1c-2.9,1.68-2.9,4.39,0,6.07
					l36.48,21.06c2.9,1.68,7.61,1.68,10.51,0l36.29-21.1C243.61,76.86,243.61,74.14,240.7,72.47z"/>
				<path class="st26" d="M240.7,77.48l-36.29,21.1c-2.9,1.68-7.61,1.68-10.51,0l-36.48-21.06c-1.22-0.7-1.92-1.59-2.11-2.5
					c-0.27,1.27,0.43,2.59,2.11,3.56l36.48,21.06c2.9,1.68,7.61,1.68,10.51,0l36.29-21.1c1.69-0.97,2.39-2.3,2.11-3.56
					C242.62,75.89,241.92,76.77,240.7,77.48z"/>
				<g>
					<polygon class="st26" points="209.32,104.31 207.59,105.3 207.59,103.31 209.32,102.31 					"/>
					<polygon class="st26" points="212.93,102.22 211.21,103.22 211.21,101.22 212.93,100.23 					"/>
					<polygon class="st26" points="216.55,100.13 214.82,101.13 214.82,99.14 216.55,98.14 					"/>
					<polygon class="st26" points="213.59,105.88 211.87,106.88 211.87,104.88 213.59,103.89 					"/>
					<polygon class="st26" points="216.77,104.04 215.05,105.04 215.05,103.05 216.77,102.05 					"/>
					<polygon class="st26" points="228.14,93.44 226.41,94.44 226.41,92.45 228.14,91.45 					"/>
					<polygon class="st26" points="238.09,87.7 236.36,88.69 236.36,86.7 238.09,85.7 					"/>
					<polygon class="st26" points="220.16,98.05 218.43,99.05 218.43,97.05 220.16,96.05 					"/>
				</g>
			</g>
		</g>
		<g>
			<path class="st20" d="M134.46,233.32c-1.97,0-3.93-0.43-5.43-1.29l-36.48-21.06c-1.51-0.87-2.35-2.06-2.35-3.33
				c0-1.27,0.83-2.46,2.35-3.33l36.29-21.1c2.99-1.73,7.86-1.73,10.85,0l36.48,21.06c1.51,0.87,2.35,2.06,2.35,3.33
				c0,1.27-0.83,2.46-2.35,3.33l-36.29,21.1C138.39,232.89,136.42,233.32,134.46,233.32z M134.26,182.58
				c-1.84,0-3.68,0.41-5.09,1.21l-36.29,21.1c-1.3,0.75-2.01,1.72-2.01,2.74c0,1.02,0.71,1.99,2.01,2.74l36.48,21.06
				c2.81,1.62,7.37,1.62,10.17,0l36.29-21.1c1.3-0.75,2.01-1.72,2.01-2.74c0-1.02-0.71-1.99-2.01-2.74l-36.48-21.06
				C137.95,182.98,136.11,182.58,134.26,182.58z"/>
			<g>
				<linearGradient id="SVGID_24_" gradientUnits="userSpaceOnUse" x1="85.4548" y1="196.1007" x2="147.2498" y2="196.1007">
					<stop  offset="0" style="stop-color:#01C8EF"/>
					<stop  offset="0.1297" style="stop-color:#04B1DD"/>
					<stop  offset="0.5466" style="stop-color:#0E6BA7"/>
					<stop  offset="0.8476" style="stop-color:#154085"/>
					<stop  offset="1" style="stop-color:#172F78"/>
				</linearGradient>
				<path class="st32" d="M178.36,196.08L178.36,196.08l-0.01-17.49l-22.1,2.95l-16.55-9.56c-2.9-1.68-7.61-1.68-10.51,0l-2.58,1.64
					l-35.88,4.79v17.69c0,0.01,0,0.02,0,0.03v0.08l0.01,0c0.04,1.07,0.75,2.13,2.16,2.94l36.48,21.06c2.9,1.68,7.61,1.68,10.51,0
					l36.29-21.1c1.4-0.81,2.11-1.87,2.16-2.93l0.02,0V196.08z"/>
				<radialGradient id="SVGID_25_" cx="74.4972" cy="149.763" r="138.0007" gradientUnits="userSpaceOnUse">
					<stop  offset="0" style="stop-color:#01C8EF"/>
					<stop  offset="0.1396" style="stop-color:#03BAE4"/>
					<stop  offset="0.4033" style="stop-color:#0895C8"/>
					<stop  offset="0.76" style="stop-color:#115A9A"/>
					<stop  offset="1" style="stop-color:#172F78"/>
				</radialGradient>
				<path class="st33" d="M176.18,175.43l-36.48-21.06c-2.9-1.68-7.61-1.68-10.51,0l-36.29,21.1c-2.9,1.68-2.9,4.39,0,6.07
					l36.48,21.06c2.9,1.68,7.61,1.68,10.51,0l36.29-21.1C179.08,179.82,179.08,177.1,176.18,175.43z"/>
				<path class="st26" d="M176.18,180.43l-36.29,21.1c-2.9,1.68-7.61,1.68-10.51,0L92.9,180.47c-1.22-0.7-1.92-1.59-2.11-2.5
					c-0.27,1.27,0.43,2.59,2.11,3.56l36.48,21.06c2.9,1.68,7.61,1.68,10.51,0l36.29-21.1c1.69-0.97,2.39-2.3,2.11-3.56
					C178.1,178.85,177.4,179.73,176.18,180.43z"/>
				<g>
					<polygon class="st26" points="144.8,207.26 143.07,208.26 143.07,206.27 144.8,205.27 					"/>
					<polygon class="st26" points="148.41,205.18 146.68,206.17 146.68,204.18 148.41,203.18 					"/>
					<polygon class="st26" points="152.02,203.09 150.29,204.09 150.29,202.09 152.02,201.1 					"/>
					<polygon class="st26" points="149.07,208.84 147.34,209.83 147.34,207.84 149.07,206.84 					"/>
					<polygon class="st26" points="152.25,207 150.52,208 150.52,206 152.25,205.01 					"/>
					<polygon class="st26" points="163.61,196.4 161.88,197.4 161.88,195.4 163.61,194.41 					"/>
					<polygon class="st26" points="173.56,190.65 171.84,191.65 171.84,189.66 173.56,188.66 					"/>
					<polygon class="st26" points="155.63,201.01 153.91,202 153.91,200.01 155.63,199.01 					"/>
				</g>
			</g>
			<path class="st27" d="M132.47,193.7l-24.54-14.17c-1-0.58-0.87-1.58,0.28-2.25l23.98-13.85c1.15-0.67,2.89-0.74,3.89-0.16
				l24.54,14.17c1,0.58,0.87,1.58-0.28,2.25l-23.98,13.85C135.21,194.2,133.47,194.27,132.47,193.7z"/>
			<path class="st26" d="M122.82,209.04l-20.25-11.69c-0.48-0.28-0.88-1.03-0.88-1.67v-1.5c0-0.64,0.39-0.94,0.88-0.66l20.25,11.69
				c0.48,0.28,0.88,1.03,0.88,1.67v1.5C123.69,209.02,123.3,209.31,122.82,209.04z"/>
			<g>
				<linearGradient id="SVGID_26_" gradientUnits="userSpaceOnUse" x1="85.4548" y1="163.2882" x2="147.2498" y2="163.2882">
					<stop  offset="0" style="stop-color:#01C8EF"/>
					<stop  offset="0.1297" style="stop-color:#04B1DD"/>
					<stop  offset="0.5466" style="stop-color:#0E6BA7"/>
					<stop  offset="0.8476" style="stop-color:#154085"/>
					<stop  offset="1" style="stop-color:#172F78"/>
				</linearGradient>
				<path class="st34" d="M178.36,163.27L178.36,163.27l-0.01-17.49l-22.1,2.95l-16.55-9.56c-2.9-1.68-7.61-1.68-10.51,0l-2.58,1.64
					l-35.88,4.79v17.7c0,0.01,0,0.02,0,0.03v0.08l0.01,0c0.04,1.07,0.75,2.13,2.16,2.94l36.48,21.06c2.9,1.68,7.61,1.68,10.51,0
					l36.29-21.1c1.4-0.81,2.11-1.87,2.16-2.93l0.02,0V163.27z"/>
				<radialGradient id="SVGID_27_" cx="74.4972" cy="116.9506" r="138.0007" gradientUnits="userSpaceOnUse">
					<stop  offset="0" style="stop-color:#01C8EF"/>
					<stop  offset="0.1396" style="stop-color:#03BAE4"/>
					<stop  offset="0.4033" style="stop-color:#0895C8"/>
					<stop  offset="0.76" style="stop-color:#115A9A"/>
					<stop  offset="1" style="stop-color:#172F78"/>
				</radialGradient>
				<path class="st35" d="M176.18,142.61l-36.48-21.06c-2.9-1.68-7.61-1.68-10.51,0l-36.29,21.1c-2.9,1.68-2.9,4.39,0,6.07
					l36.48,21.06c2.9,1.68,7.61,1.68,10.51,0l36.29-21.1C179.08,147.01,179.08,144.29,176.18,142.61z"/>
				<path class="st27" d="M158.8,143.89l-21.26-12.27c-1.69-0.98-4.43-0.98-6.12,0l-21.14,12.29c-1.69,0.98-1.69,2.56,0,3.54
					l21.26,12.27c1.69,0.98,4.43,0.98,6.13,0l21.14-12.29C160.49,146.45,160.49,144.86,158.8,143.89z"/>
				<path class="st26" d="M176.18,147.62l-36.29,21.1c-2.9,1.68-7.61,1.68-10.51,0L92.9,147.66c-1.22-0.7-1.92-1.59-2.11-2.5
					c-0.27,1.27,0.43,2.59,2.11,3.56l36.48,21.06c2.9,1.68,7.61,1.68,10.51,0l36.29-21.1c1.69-0.97,2.39-2.3,2.11-3.56
					C178.1,146.03,177.4,146.92,176.18,147.62z"/>
				<g>
					<polygon class="st26" points="144.8,174.45 143.07,175.45 143.07,173.45 144.8,172.46 					"/>
					<polygon class="st26" points="148.41,172.37 146.68,173.36 146.68,171.37 148.41,170.37 					"/>
					<polygon class="st26" points="152.02,170.28 150.29,171.28 150.29,169.28 152.02,168.29 					"/>
					<polygon class="st26" points="149.07,176.03 147.34,177.02 147.34,175.03 149.07,174.03 					"/>
					<polygon class="st26" points="152.25,174.19 150.52,175.19 150.52,173.19 152.25,172.19 					"/>
					<polygon class="st26" points="163.61,163.59 161.88,164.59 161.88,162.59 163.61,161.59 					"/>
					<polygon class="st26" points="173.56,157.84 171.84,158.84 171.84,156.85 173.56,155.85 					"/>
					<polygon class="st26" points="155.63,168.19 153.91,169.19 153.91,167.2 155.63,166.2 					"/>
				</g>
			</g>
			<g>
				<linearGradient id="SVGID_28_" gradientUnits="userSpaceOnUse" x1="85.4548" y1="130.4758" x2="147.2498" y2="130.4758">
					<stop  offset="0" style="stop-color:#01C8EF"/>
					<stop  offset="0.1297" style="stop-color:#04B1DD"/>
					<stop  offset="0.5466" style="stop-color:#0E6BA7"/>
					<stop  offset="0.8476" style="stop-color:#154085"/>
					<stop  offset="1" style="stop-color:#172F78"/>
				</linearGradient>
				<path class="st36" d="M178.36,130.46L178.36,130.46l-0.01-17.49l-22.1,2.95l-16.55-9.56c-2.9-1.68-7.61-1.68-10.51,0l-2.58,1.64
					l-35.88,4.79v17.7c0,0.01,0,0.02,0,0.03v0.08l0.01,0c0.04,1.07,0.75,2.13,2.16,2.94l36.48,21.06c2.9,1.68,7.61,1.68,10.51,0
					l36.29-21.1c1.4-0.81,2.11-1.87,2.16-2.93l0.02,0V130.46z"/>
				<radialGradient id="SVGID_29_" cx="74.4972" cy="84.1381" r="138.0007" gradientUnits="userSpaceOnUse">
					<stop  offset="0" style="stop-color:#01C8EF"/>
					<stop  offset="0.1396" style="stop-color:#03BAE4"/>
					<stop  offset="0.4033" style="stop-color:#0895C8"/>
					<stop  offset="0.76" style="stop-color:#115A9A"/>
					<stop  offset="1" style="stop-color:#172F78"/>
				</radialGradient>
				<path class="st37" d="M176.18,109.8L139.7,88.74c-2.9-1.68-7.61-1.68-10.51,0l-36.29,21.1c-2.9,1.68-2.9,4.39,0,6.07
					l36.48,21.06c2.9,1.68,7.61,1.68,10.51,0l36.29-21.1C179.08,114.19,179.08,111.48,176.18,109.8z"/>
				<radialGradient id="SVGID_30_" cx="86.6746" cy="92.4538" r="94.8803" gradientUnits="userSpaceOnUse">
					<stop  offset="0" style="stop-color:#F9636B"/>
					<stop  offset="1" style="stop-color:#B6246E"/>
				</radialGradient>
				<path class="st38" d="M176.18,109.8L139.7,88.74c-2.9-1.68-7.61-1.68-10.51,0l-36.29,21.1c-2.9,1.68-2.9,4.39,0,6.07
					l36.48,21.06c2.9,1.68,7.61,1.68,10.51,0l36.29-21.1C179.08,114.19,179.08,111.48,176.18,109.8z"/>
				<path class="st39" d="M134.6,130.15c-1.34,0-2.68-0.3-3.72-0.9l-24.17-13.96c-1.08-0.63-1.68-1.48-1.68-2.42
					c0-0.94,0.6-1.8,1.68-2.42l24.04-13.98c2.09-1.21,5.36-1.2,7.44,0l24.17,13.96c1.08,0.63,1.68,1.48,1.68,2.42
					c0,0.94-0.6,1.8-1.68,2.42l-24.04,13.98C137.28,129.85,135.94,130.15,134.6,130.15z M134.48,96.51c-1.18,0-2.35,0.26-3.25,0.77
					l-24.04,13.98c-0.78,0.45-1.21,1.02-1.21,1.6c0,0.58,0.43,1.15,1.21,1.6l24.17,13.95c1.79,1.03,4.7,1.03,6.49,0l24.04-13.98
					c0.78-0.45,1.21-1.02,1.21-1.6c0-0.58-0.43-1.15-1.21-1.6l-24.17-13.96C136.83,96.77,135.65,96.51,134.48,96.51z"/>
				<path class="st26" d="M176.18,114.81l-36.29,21.1c-2.9,1.68-7.61,1.68-10.51,0L92.9,114.85c-1.22-0.7-1.92-1.59-2.11-2.5
					c-0.27,1.27,0.43,2.59,2.11,3.56l36.48,21.06c2.9,1.68,7.61,1.68,10.51,0l36.29-21.1c1.69-0.97,2.39-2.3,2.11-3.56
					C178.1,113.22,177.4,114.11,176.18,114.81z"/>
				<g>
					<polygon class="st26" points="144.8,141.64 143.07,142.64 143.07,140.64 144.8,139.64 					"/>
					<polygon class="st26" points="148.41,139.55 146.68,140.55 146.68,138.56 148.41,137.56 					"/>
					<polygon class="st26" points="152.02,137.47 150.29,138.46 150.29,136.47 152.02,135.47 					"/>
					<polygon class="st26" points="149.07,143.21 147.34,144.21 147.34,142.22 149.07,141.22 					"/>
					<polygon class="st26" points="152.25,141.38 150.52,142.37 150.52,140.38 152.25,139.38 					"/>
					<polygon class="st26" points="163.61,130.78 161.88,131.77 161.88,129.78 163.61,128.78 					"/>
					<polygon class="st26" points="173.56,125.03 171.84,126.03 171.84,124.03 173.56,123.04 					"/>
					<polygon class="st26" points="155.63,135.38 153.91,136.38 153.91,134.38 155.63,133.39 					"/>
				</g>
			</g>
		</g>
		<g>
			<path class="st20" d="M263.27,233.28c-1.96,0-3.93-0.43-5.42-1.29l-36.48-21.06c-1.51-0.87-2.35-2.06-2.35-3.33
				c0-1.27,0.83-2.46,2.35-3.33l36.29-21.1c2.99-1.73,7.86-1.73,10.85,0l36.48,21.06c1.51,0.87,2.35,2.06,2.35,3.33
				c0,1.27-0.83,2.45-2.35,3.33l-36.29,21.1C267.21,232.85,265.24,233.28,263.27,233.28z M263.08,182.54
				c-1.84,0-3.68,0.41-5.09,1.21l-36.29,21.1c-1.3,0.75-2.01,1.72-2.01,2.74c0,1.02,0.71,1.99,2.01,2.74l36.48,21.06
				c2.81,1.62,7.37,1.62,10.17,0l36.29-21.1c1.3-0.75,2.01-1.72,2.01-2.74c0-1.02-0.71-1.99-2.01-2.74l-36.48-21.06
				C266.77,182.95,264.92,182.54,263.08,182.54z"/>
			<g>
				<linearGradient id="SVGID_31_" gradientUnits="userSpaceOnUse" x1="214.274" y1="196.0639" x2="276.069" y2="196.0639">
					<stop  offset="0" style="stop-color:#01C8EF"/>
					<stop  offset="0.1297" style="stop-color:#04B1DD"/>
					<stop  offset="0.5466" style="stop-color:#0E6BA7"/>
					<stop  offset="0.8476" style="stop-color:#154085"/>
					<stop  offset="1" style="stop-color:#172F78"/>
				</linearGradient>
				<path class="st40" d="M307.17,196.04L307.17,196.04l-0.01-17.49l-22.1,2.95l-16.55-9.56c-2.9-1.68-7.61-1.68-10.51,0l-2.58,1.64
					l-35.88,4.79v17.7c0,0.01,0,0.02,0,0.03v0.08l0.01,0c0.04,1.07,0.75,2.13,2.16,2.94l36.48,21.06c2.9,1.68,7.61,1.68,10.51,0
					l36.29-21.1c1.4-0.81,2.11-1.87,2.16-2.93l0.02,0V196.04z"/>
				<radialGradient id="SVGID_32_" cx="203.3165" cy="149.7263" r="138.0007" gradientUnits="userSpaceOnUse">
					<stop  offset="0" style="stop-color:#01C8EF"/>
					<stop  offset="0.1396" style="stop-color:#03BAE4"/>
					<stop  offset="0.4033" style="stop-color:#0895C8"/>
					<stop  offset="0.76" style="stop-color:#115A9A"/>
					<stop  offset="1" style="stop-color:#172F78"/>
				</radialGradient>
				<path class="st41" d="M305,175.39l-36.48-21.06c-2.9-1.68-7.61-1.68-10.51,0l-36.29,21.1c-2.9,1.68-2.9,4.39,0,6.07l36.48,21.06
					c2.9,1.68,7.61,1.68,10.51,0l36.29-21.1C307.9,179.78,307.9,177.07,305,175.39z"/>
				<path class="st26" d="M305,180.4l-36.29,21.1c-2.9,1.68-7.61,1.68-10.51,0l-36.48-21.06c-1.22-0.7-1.92-1.59-2.11-2.5
					c-0.27,1.27,0.43,2.59,2.11,3.56l36.48,21.06c2.9,1.68,7.61,1.68,10.51,0l36.29-21.1c1.69-0.97,2.39-2.3,2.11-3.56
					C306.91,178.81,306.21,179.7,305,180.4z"/>
				<g>
					<polygon class="st26" points="273.61,207.23 271.89,208.22 271.89,206.23 273.61,205.23 					"/>
					<polygon class="st26" points="277.23,205.14 275.5,206.14 275.5,204.14 277.23,203.15 					"/>
					<polygon class="st26" points="280.84,203.05 279.11,204.05 279.11,202.06 280.84,201.06 					"/>
					<polygon class="st26" points="277.89,208.8 276.16,209.8 276.16,207.8 277.89,206.81 					"/>
					<polygon class="st26" points="281.07,206.96 279.34,207.96 279.34,205.97 281.07,204.97 					"/>
					<polygon class="st26" points="292.43,196.36 290.7,197.36 290.7,195.37 292.43,194.37 					"/>
					<polygon class="st26" points="302.38,190.62 300.66,191.62 300.66,189.62 302.38,188.62 					"/>
					<polygon class="st26" points="284.45,200.97 282.73,201.97 282.73,199.97 284.45,198.98 					"/>
				</g>
			</g>
			<path class="st27" d="M261.29,193.66l-24.54-14.17c-1-0.58-0.87-1.58,0.28-2.25l23.98-13.85c1.15-0.66,2.89-0.74,3.89-0.16
				l24.54,14.17c1,0.58,0.87,1.58-0.28,2.25l-23.98,13.85C264.03,194.16,262.29,194.24,261.29,193.66z"/>
			<path class="st26" d="M251.64,209l-20.25-11.69c-0.48-0.28-0.88-1.03-0.88-1.67v-1.5c0-0.64,0.39-0.94,0.88-0.66l20.25,11.69
				c0.48,0.28,0.88,1.03,0.88,1.67v1.5C252.51,208.98,252.12,209.28,251.64,209z"/>
			<g>
				<linearGradient id="SVGID_33_" gradientUnits="userSpaceOnUse" x1="214.274" y1="163.2514" x2="276.069" y2="163.2514">
					<stop  offset="0" style="stop-color:#01C8EF"/>
					<stop  offset="0.1297" style="stop-color:#04B1DD"/>
					<stop  offset="0.5466" style="stop-color:#0E6BA7"/>
					<stop  offset="0.8476" style="stop-color:#154085"/>
					<stop  offset="1" style="stop-color:#172F78"/>
				</linearGradient>
				<path class="st42" d="M307.17,163.23L307.17,163.23l-0.01-17.49l-22.1,2.95l-16.55-9.56c-2.9-1.68-7.61-1.68-10.51,0l-2.58,1.64
					l-35.88,4.79v17.7c0,0.01,0,0.02,0,0.03v0.08l0.01,0c0.04,1.07,0.75,2.13,2.16,2.94l36.48,21.06c2.9,1.68,7.61,1.68,10.51,0
					l36.29-21.1c1.4-0.81,2.11-1.87,2.16-2.93l0.02,0V163.23z"/>
				<radialGradient id="SVGID_34_" cx="203.3165" cy="116.9138" r="138.0007" gradientUnits="userSpaceOnUse">
					<stop  offset="0" style="stop-color:#01C8EF"/>
					<stop  offset="0.1396" style="stop-color:#03BAE4"/>
					<stop  offset="0.4033" style="stop-color:#0895C8"/>
					<stop  offset="0.76" style="stop-color:#115A9A"/>
					<stop  offset="1" style="stop-color:#172F78"/>
				</radialGradient>
				<path class="st43" d="M305,142.58l-36.48-21.06c-2.9-1.68-7.61-1.68-10.51,0l-36.29,21.1c-2.9,1.68-2.9,4.39,0,6.07l36.48,21.06
					c2.9,1.68,7.61,1.68,10.51,0l36.29-21.1C307.9,146.97,307.9,144.25,305,142.58z"/>
				<path class="st27" d="M287.62,143.85l-21.26-12.27c-1.69-0.98-4.43-0.98-6.13,0l-21.14,12.29c-1.69,0.98-1.69,2.56,0,3.54
					l21.26,12.27c1.69,0.98,4.43,0.98,6.13,0l21.14-12.29C289.31,146.41,289.31,144.83,287.62,143.85z"/>
				<path class="st26" d="M305,147.59l-36.29,21.1c-2.9,1.68-7.61,1.68-10.51,0l-36.48-21.06c-1.22-0.7-1.92-1.59-2.11-2.5
					c-0.27,1.27,0.43,2.59,2.11,3.56l36.48,21.06c2.9,1.68,7.61,1.68,10.51,0l36.29-21.1c1.69-0.97,2.39-2.3,2.11-3.56
					C306.91,146,306.21,146.88,305,147.59z"/>
				<g>
					<polygon class="st26" points="273.61,174.41 271.89,175.41 271.89,173.42 273.61,172.42 					"/>
					<polygon class="st26" points="277.23,172.33 275.5,173.33 275.5,171.33 277.23,170.33 					"/>
					<polygon class="st26" points="280.84,170.24 279.11,171.24 279.11,169.25 280.84,168.25 					"/>
					<polygon class="st26" points="277.89,175.99 276.16,176.99 276.16,174.99 277.89,173.99 					"/>
					<polygon class="st26" points="281.07,174.15 279.34,175.15 279.34,173.15 281.07,172.16 					"/>
					<polygon class="st26" points="292.43,163.55 290.7,164.55 290.7,162.55 292.43,161.56 					"/>
					<polygon class="st26" points="302.38,157.81 300.66,158.8 300.66,156.81 302.38,155.81 					"/>
					<polygon class="st26" points="284.45,168.16 282.73,169.15 282.73,167.16 284.45,166.16 					"/>
				</g>
			</g>
			<g>
				<linearGradient id="SVGID_35_" gradientUnits="userSpaceOnUse" x1="214.274" y1="130.439" x2="276.069" y2="130.439">
					<stop  offset="0" style="stop-color:#01C8EF"/>
					<stop  offset="0.1297" style="stop-color:#04B1DD"/>
					<stop  offset="0.5466" style="stop-color:#0E6BA7"/>
					<stop  offset="0.8476" style="stop-color:#154085"/>
					<stop  offset="1" style="stop-color:#172F78"/>
				</linearGradient>
				<path class="st44" d="M307.17,130.42L307.17,130.42l-0.01-17.49l-22.1,2.95l-16.55-9.56c-2.9-1.68-7.61-1.68-10.51,0l-2.58,1.64
					l-35.88,4.79v17.69c0,0.01,0,0.02,0,0.03v0.08l0.01,0c0.04,1.07,0.75,2.13,2.16,2.94l36.48,21.06c2.9,1.68,7.61,1.68,10.51,0
					l36.29-21.1c1.4-0.81,2.11-1.87,2.16-2.93l0.02,0V130.42z"/>
				<radialGradient id="SVGID_36_" cx="203.3165" cy="84.1013" r="138.0007" gradientUnits="userSpaceOnUse">
					<stop  offset="0" style="stop-color:#01C8EF"/>
					<stop  offset="0.1396" style="stop-color:#03BAE4"/>
					<stop  offset="0.4033" style="stop-color:#0895C8"/>
					<stop  offset="0.76" style="stop-color:#115A9A"/>
					<stop  offset="1" style="stop-color:#172F78"/>
				</radialGradient>
				<path class="st45" d="M305,109.76L268.52,88.7c-2.9-1.68-7.61-1.68-10.51,0l-36.29,21.1c-2.9,1.68-2.9,4.39,0,6.07l36.48,21.06
					c2.9,1.68,7.61,1.68,10.51,0l36.29-21.1C307.9,114.16,307.9,111.44,305,109.76z"/>
				<path class="st26" d="M305,114.77l-36.29,21.1c-2.9,1.68-7.61,1.68-10.51,0l-36.48-21.06c-1.22-0.7-1.92-1.59-2.11-2.5
					c-0.27,1.27,0.43,2.59,2.11,3.56l36.48,21.06c2.9,1.68,7.61,1.68,10.51,0l36.29-21.1c1.69-0.97,2.39-2.3,2.11-3.56
					C306.91,113.18,306.21,114.07,305,114.77z"/>
				<g>
					<polygon class="st26" points="273.61,141.6 271.89,142.6 271.89,140.6 273.61,139.61 					"/>
					<polygon class="st26" points="277.23,139.52 275.5,140.51 275.5,138.52 277.23,137.52 					"/>
					<polygon class="st26" points="280.84,137.43 279.11,138.43 279.11,136.43 280.84,135.44 					"/>
					<polygon class="st26" points="277.89,143.18 276.16,144.17 276.16,142.18 277.89,141.18 					"/>
					<polygon class="st26" points="281.07,141.34 279.34,142.34 279.34,140.34 281.07,139.35 					"/>
					<polygon class="st26" points="292.43,130.74 290.7,131.74 290.7,129.74 292.43,128.75 					"/>
					<polygon class="st26" points="302.38,124.99 300.66,125.99 300.66,124 302.38,123 					"/>
					<polygon class="st26" points="284.45,135.34 282.73,136.34 282.73,134.35 284.45,133.35 					"/>
				</g>
			</g>
		</g>
		<g>
			<path class="st20" d="M198.75,270.61c-1.96,0-3.93-0.43-5.42-1.29l-36.48-21.06c-1.51-0.87-2.35-2.06-2.35-3.33
				c0-1.27,0.83-2.46,2.35-3.33l36.29-21.1c2.99-1.73,7.86-1.73,10.85,0l36.48,21.06c1.51,0.87,2.35,2.06,2.35,3.33
				c0,1.27-0.83,2.46-2.35,3.33l-36.29,21.1C202.68,270.18,200.71,270.61,198.75,270.61z M198.56,219.87
				c-1.84,0-3.68,0.41-5.09,1.21l-36.29,21.1c-1.3,0.75-2.01,1.72-2.01,2.74c0,1.02,0.71,1.99,2.01,2.74l36.48,21.06
				c2.81,1.62,7.37,1.62,10.17,0l36.29-21.1c1.3-0.75,2.01-1.72,2.01-2.74c0-1.02-0.71-1.99-2.01-2.74l-36.48-21.06
				C202.24,220.28,200.4,219.87,198.56,219.87z"/>
			<path class="st46" d="M231.27,242.52l-28.57-16.5c-2.27-1.31-5.96-1.31-8.23,0l-28.42,16.53c-2.27,1.31-2.27,3.44,0,4.75
				l28.57,16.5c2.27,1.31,5.96,1.31,8.23,0l28.42-16.53C233.54,245.96,233.54,243.83,231.27,242.52z"/>
			<g>
				<linearGradient id="SVGID_37_" gradientUnits="userSpaceOnUse" x1="149.7479" y1="233.3966" x2="211.5429" y2="233.3966">
					<stop  offset="0" style="stop-color:#01C8EF"/>
					<stop  offset="0.1297" style="stop-color:#04B1DD"/>
					<stop  offset="0.5466" style="stop-color:#0E6BA7"/>
					<stop  offset="0.8476" style="stop-color:#154085"/>
					<stop  offset="1" style="stop-color:#172F78"/>
				</linearGradient>
				<path class="st47" d="M242.65,233.38L242.65,233.38l-0.01-17.49l-22.1,2.95l-16.55-9.56c-2.9-1.68-7.61-1.68-10.51,0l-2.58,1.64
					l-35.88,4.79v17.7c0,0.01,0,0.02,0,0.03v0.08l0.01,0c0.04,1.07,0.75,2.13,2.16,2.94l36.48,21.06c2.9,1.68,7.61,1.68,10.51,0
					l36.29-21.1c1.4-0.81,2.11-1.87,2.16-2.93l0.02,0V233.38z"/>
				<radialGradient id="SVGID_38_" cx="138.7904" cy="187.0589" r="138.0007" gradientUnits="userSpaceOnUse">
					<stop  offset="0" style="stop-color:#01C8EF"/>
					<stop  offset="0.1396" style="stop-color:#03BAE4"/>
					<stop  offset="0.4033" style="stop-color:#0895C8"/>
					<stop  offset="0.76" style="stop-color:#115A9A"/>
					<stop  offset="1" style="stop-color:#172F78"/>
				</radialGradient>
				<path class="st48" d="M240.47,212.72l-36.48-21.06c-2.9-1.68-7.61-1.68-10.51,0l-36.29,21.1c-2.9,1.68-2.9,4.39,0,6.07
					l36.48,21.06c2.9,1.68,7.61,1.68,10.51,0l36.29-21.1C243.37,217.11,243.37,214.4,240.47,212.72z"/>
				<path class="st26" d="M240.47,217.73l-36.29,21.1c-2.9,1.68-7.61,1.68-10.51,0l-36.48-21.06c-1.22-0.7-1.92-1.59-2.11-2.5
					c-0.27,1.27,0.43,2.59,2.11,3.56l36.48,21.06c2.9,1.68,7.61,1.68,10.51,0l36.29-21.1c1.69-0.97,2.39-2.3,2.11-3.56
					C242.39,216.14,241.69,217.03,240.47,217.73z"/>
				<g>
					<polygon class="st26" points="209.09,244.56 207.36,245.56 207.36,243.56 209.09,242.57 					"/>
					<polygon class="st26" points="212.7,242.47 210.97,243.47 210.97,241.48 212.7,240.48 					"/>
					<polygon class="st26" points="216.31,240.39 214.59,241.38 214.59,239.39 216.31,238.39 					"/>
					<polygon class="st26" points="213.36,246.13 211.63,247.13 211.63,245.14 213.36,244.14 					"/>
					<polygon class="st26" points="216.54,244.3 214.82,245.29 214.82,243.3 216.54,242.3 					"/>
					<polygon class="st26" points="227.9,233.7 226.18,234.69 226.18,232.7 227.9,231.7 					"/>
					<polygon class="st26" points="237.86,227.95 236.13,228.95 236.13,226.95 237.86,225.96 					"/>
					<polygon class="st26" points="219.93,238.3 218.2,239.3 218.2,237.3 219.93,236.31 					"/>
				</g>
			</g>
			<path class="st27" d="M196.77,230.99l-24.54-14.17c-1-0.58-0.87-1.58,0.28-2.25l23.98-13.85c1.15-0.66,2.89-0.74,3.89-0.16
				l24.54,14.17c1,0.58,0.87,1.58-0.28,2.25l-23.98,13.85C199.51,231.5,197.77,231.57,196.77,230.99z"/>
			<path class="st26" d="M187.11,246.33l-20.25-11.69c-0.48-0.28-0.88-1.03-0.88-1.67v-1.5c0-0.64,0.39-0.94,0.88-0.66l20.25,11.69
				c0.48,0.28,0.88,1.03,0.88,1.67v1.5C187.99,246.31,187.6,246.61,187.11,246.33z"/>
			<g>
				<linearGradient id="SVGID_39_" gradientUnits="userSpaceOnUse" x1="149.7479" y1="200.5841" x2="211.5429" y2="200.5841">
					<stop  offset="0" style="stop-color:#01C8EF"/>
					<stop  offset="0.1297" style="stop-color:#04B1DD"/>
					<stop  offset="0.5466" style="stop-color:#0E6BA7"/>
					<stop  offset="0.8476" style="stop-color:#154085"/>
					<stop  offset="1" style="stop-color:#172F78"/>
				</linearGradient>
				<path class="st49" d="M242.65,200.56L242.65,200.56l-0.01-17.49l-22.1,2.95l-16.55-9.56c-2.9-1.68-7.61-1.68-10.51,0l-2.58,1.64
					l-35.88,4.79v17.7c0,0.01,0,0.02,0,0.03v0.08l0.01,0c0.04,1.07,0.75,2.13,2.16,2.94l36.48,21.06c2.9,1.68,7.61,1.68,10.51,0
					l36.29-21.1c1.4-0.81,2.11-1.87,2.16-2.93l0.02,0V200.56z"/>
				<radialGradient id="SVGID_40_" cx="138.7904" cy="154.2465" r="138.0007" gradientUnits="userSpaceOnUse">
					<stop  offset="0" style="stop-color:#01C8EF"/>
					<stop  offset="0.1396" style="stop-color:#03BAE4"/>
					<stop  offset="0.4033" style="stop-color:#0895C8"/>
					<stop  offset="0.76" style="stop-color:#115A9A"/>
					<stop  offset="1" style="stop-color:#172F78"/>
				</radialGradient>
				<path class="st50" d="M240.47,179.91l-36.48-21.06c-2.9-1.68-7.61-1.68-10.51,0l-36.29,21.1c-2.9,1.68-2.9,4.39,0,6.07
					l36.48,21.06c2.9,1.68,7.61,1.68,10.51,0l36.29-21.1C243.37,184.3,243.37,181.59,240.47,179.91z"/>
				<path class="st27" d="M223.09,181.18l-21.26-12.27c-1.69-0.98-4.43-0.98-6.13,0l-21.14,12.29c-1.69,0.98-1.69,2.56,0,3.54
					l21.26,12.27c1.69,0.98,4.43,0.98,6.13,0l21.14-12.29C224.79,183.74,224.79,182.16,223.09,181.18z"/>
				<path class="st26" d="M240.47,184.92l-36.29,21.1c-2.9,1.68-7.61,1.68-10.51,0l-36.48-21.06c-1.22-0.7-1.92-1.59-2.11-2.5
					c-0.27,1.27,0.43,2.59,2.11,3.56l36.48,21.06c2.9,1.68,7.61,1.68,10.51,0l36.29-21.1c1.69-0.97,2.39-2.3,2.11-3.56
					C242.39,183.33,241.69,184.22,240.47,184.92z"/>
				<g>
					<polygon class="st26" points="209.09,211.75 207.36,212.74 207.36,210.75 209.09,209.75 					"/>
					<polygon class="st26" points="212.7,209.66 210.97,210.66 210.97,208.66 212.7,207.67 					"/>
					<polygon class="st26" points="216.31,207.58 214.59,208.57 214.59,206.58 216.31,205.58 					"/>
					<polygon class="st26" points="213.36,213.32 211.63,214.32 211.63,212.32 213.36,211.33 					"/>
					<polygon class="st26" points="216.54,211.48 214.82,212.48 214.82,210.49 216.54,209.49 					"/>
					<polygon class="st26" points="227.9,200.88 226.18,201.88 226.18,199.89 227.9,198.89 					"/>
					<polygon class="st26" points="237.86,195.14 236.13,196.14 236.13,194.14 237.86,193.14 					"/>
					<polygon class="st26" points="219.93,205.49 218.2,206.49 218.2,204.49 219.93,203.5 					"/>
				</g>
			</g>
			<g>
				<linearGradient id="SVGID_41_" gradientUnits="userSpaceOnUse" x1="149.7479" y1="167.7717" x2="211.5429" y2="167.7717">
					<stop  offset="0" style="stop-color:#01C8EF"/>
					<stop  offset="0.1297" style="stop-color:#04B1DD"/>
					<stop  offset="0.5466" style="stop-color:#0E6BA7"/>
					<stop  offset="0.8476" style="stop-color:#154085"/>
					<stop  offset="1" style="stop-color:#172F78"/>
				</linearGradient>
				<path class="st51" d="M242.65,167.75L242.65,167.75l-0.01-17.49l-22.1,2.95l-16.55-9.56c-2.9-1.68-7.61-1.68-10.51,0l-2.58,1.64
					l-35.88,4.79v17.7c0,0.01,0,0.02,0,0.03v0.08l0.01,0c0.04,1.07,0.75,2.13,2.16,2.94l36.48,21.06c2.9,1.68,7.61,1.68,10.51,0
					l36.29-21.1c1.4-0.81,2.11-1.87,2.16-2.93l0.02,0V167.75z"/>
				<radialGradient id="SVGID_42_" cx="138.7904" cy="121.434" r="138.0007" gradientUnits="userSpaceOnUse">
					<stop  offset="0" style="stop-color:#01C8EF"/>
					<stop  offset="0.1396" style="stop-color:#03BAE4"/>
					<stop  offset="0.4033" style="stop-color:#0895C8"/>
					<stop  offset="0.76" style="stop-color:#115A9A"/>
					<stop  offset="1" style="stop-color:#172F78"/>
				</radialGradient>
				<path class="st52" d="M240.47,147.1l-36.48-21.06c-2.9-1.68-7.61-1.68-10.51,0l-36.29,21.1c-2.9,1.68-2.9,4.39,0,6.07
					l36.48,21.06c2.9,1.68,7.61,1.68,10.51,0l36.29-21.1C243.37,151.49,243.37,148.77,240.47,147.1z"/>
				<path class="st26" d="M240.47,152.11l-36.29,21.1c-2.9,1.68-7.61,1.68-10.51,0l-36.48-21.06c-1.22-0.7-1.92-1.59-2.11-2.5
					c-0.27,1.27,0.43,2.59,2.11,3.56l36.48,21.06c2.9,1.68,7.61,1.68,10.51,0l36.29-21.1c1.69-0.97,2.39-2.3,2.11-3.56
					C242.39,150.52,241.69,151.4,240.47,152.11z"/>
				<g>
					<polygon class="st26" points="209.09,178.93 207.36,179.93 207.36,177.94 209.09,176.94 					"/>
					<polygon class="st26" points="212.7,176.85 210.97,177.85 210.97,175.85 212.7,174.85 					"/>
					<polygon class="st26" points="216.31,174.76 214.59,175.76 214.59,173.77 216.31,172.77 					"/>
					<polygon class="st26" points="213.36,180.51 211.63,181.51 211.63,179.51 213.36,178.51 					"/>
					<polygon class="st26" points="216.54,178.67 214.82,179.67 214.82,177.68 216.54,176.68 					"/>
					<polygon class="st26" points="227.9,168.07 226.18,169.07 226.18,167.07 227.9,166.08 					"/>
					<polygon class="st26" points="237.86,162.33 236.13,163.32 236.13,161.33 237.86,160.33 					"/>
					<polygon class="st26" points="219.93,172.68 218.2,173.67 218.2,171.68 219.93,170.68 					"/>
				</g>
			</g>
		</g>
	</g>
	<g>
		
			<rect x="316.92" y="203.65" transform="matrix(0.5 -0.866 0.866 0.5 -49.1348 394.6932)" class="st20" width="0.68" height="72.51"/>
		<path class="st20" d="M375.13,242.94l-20.06-11.58c-1.83-1.06-4.26-1.75-6.83-1.95l-21.53-1.69c-2.67-0.21-5.2-0.93-7.12-2.04
			l-20.06-11.58l0.34-0.59l20.07,11.58c1.83,1.06,4.25,1.75,6.83,1.95l21.53,1.69c2.67,0.21,5.2,0.94,7.12,2.04l20.06,11.58
			L375.13,242.94z"/>
		<path class="st20" d="M321.84,273.71l-20.06-11.58c-1.95-1.13-3.24-2.64-3.62-4.24l-2.93-12.43c-0.34-1.42-1.51-2.78-3.3-3.81
			l-20.06-11.58l0.34-0.59l20.06,11.58c1.96,1.13,3.24,2.64,3.62,4.24l2.93,12.43c0.34,1.42,1.51,2.78,3.3,3.81l20.06,11.58
			L321.84,273.71z"/>
		<path class="st20" d="M335.16,266.01l-21.38-12.35c-1.09-0.63-1.96-1.36-2.6-2.18l-8.61-11.08c-0.58-0.75-1.39-1.42-2.4-2.01
			l-21.38-12.35l0.34-0.59l21.38,12.35c1.09,0.63,1.96,1.36,2.6,2.18l8.61,11.08c0.58,0.75,1.39,1.42,2.4,2.01l21.38,12.35
			L335.16,266.01z"/>
		<path class="st20" d="M361.81,250.63l-21.39-12.35c-1.02-0.59-2.21-1.06-3.54-1.41l-19.18-4.97c-1.38-0.36-2.63-0.86-3.71-1.48
			l-21.38-12.35l0.34-0.59l21.39,12.35c1.02,0.59,2.22,1.07,3.54,1.41l19.18,4.97c1.39,0.36,2.63,0.86,3.71,1.48l21.39,12.35
			L361.81,250.63z"/>
	</g>
	<g>
		
			<rect x="27.61" y="231.86" transform="matrix(0.8664 -0.4994 0.4994 0.8664 -107.2719 63.5199)" class="st20" width="74.89" height="0.68"/>
		
			<rect x="36.88" y="237.22" transform="matrix(0.8664 -0.4994 0.4994 0.8664 -108.7066 68.8675)" class="st20" width="74.89" height="0.68"/>
		
			<rect x="46.16" y="242.57" transform="matrix(0.8664 -0.4994 0.4994 0.8664 -110.1413 74.2149)" class="st20" width="74.89" height="0.68"/>
		
			<rect x="55.43" y="247.92" transform="matrix(0.8664 -0.4994 0.4994 0.8664 -111.5762 79.5626)" class="st20" width="74.89" height="0.68"/>
	</g>
</g>
<g>
	<g>
		<path class="st16" d="M423.78,35.83c13.7-3.97,29.91-6.21,47.2-6.07c2.28,0.02,4.54,0.08,6.78,0.18
			c15.19,1.39,20.59,17.43,11.43,24.45c-4.2,3.22-9.27,3.19-11.43,3.17c-2.24-0.1-4.5-0.16-6.78-0.18c-17.3-0.14-33.5,2.1-47.2,6.07
			c-13.83,3.37-14.65-10.69-9.81-19.29C415.6,41.27,418.62,37.47,423.78,35.83L423.78,35.83z"/>
		<path class="st20" d="M419.9,64.25c-3.66,0-5.74-1.57-6.89-3.09c-3.33-4.39-2.12-12.11,0.71-17.14c1.65-2.94,4.73-6.79,9.98-8.47
			l0.01,0c14.19-4.12,30.56-6.24,47.29-6.08c2.25,0.02,4.54,0.08,6.79,0.18c7.64,0.7,13.77,5.35,15.65,11.85
			c1.46,5.06-0.09,10.09-4.05,13.13c-4.28,3.28-9.41,3.25-11.62,3.23c-2.24-0.1-4.52-0.16-6.78-0.18
			c-16.71-0.13-32.99,1.96-47.12,6.06C422.37,64.09,421.05,64.25,419.9,64.25z M423.87,36.11c-5.07,1.62-8.04,5.35-9.64,8.19
			c-2.74,4.87-3.93,12.3-0.76,16.5c2.03,2.68,5.57,3.49,10.24,2.36c14.17-4.11,30.55-6.22,47.28-6.08c2.27,0.02,4.55,0.08,6.79,0.18
			c2.13,0.01,7.12,0.05,11.24-3.11c3.76-2.89,5.24-7.67,3.84-12.49c-1.81-6.27-7.75-10.75-15.13-11.42
			c-2.23-0.1-4.51-0.16-6.75-0.18C454.28,29.92,438,32.01,423.87,36.11z"/>
	</g>
	<g>
		<path class="st20" d="M468.69,170.67c-1.79,0-3.59-0.39-4.95-1.18l-33.3-19.23c-1.38-0.8-2.14-1.88-2.14-3.04
			c0-1.16,0.76-2.24,2.14-3.04l33.13-19.26c2.73-1.58,7.17-1.58,9.91,0l33.3,19.23c1.38,0.8,2.14,1.88,2.14,3.04
			c0,1.16-0.76,2.24-2.14,3.04l-33.13,19.26C472.28,170.27,470.48,170.67,468.69,170.67z M468.51,124.35
			c-1.68,0-3.36,0.37-4.64,1.11l-33.13,19.26c-1.18,0.68-1.83,1.57-1.83,2.5c0,0.93,0.65,1.82,1.83,2.5l33.3,19.23
			c2.56,1.48,6.73,1.48,9.29,0l33.13-19.26c1.18-0.68,1.83-1.57,1.83-2.5c0-0.93-0.65-1.82-1.83-2.5l-33.3-19.23
			C471.88,124.72,470.2,124.35,468.51,124.35z"/>
		<g>
			<linearGradient id="SVGID_43_" gradientUnits="userSpaceOnUse" x1="423.9542" y1="136.692" x2="480.3707" y2="136.692">
				<stop  offset="0" style="stop-color:#01C8EF"/>
				<stop  offset="0.1297" style="stop-color:#04B1DD"/>
				<stop  offset="0.5466" style="stop-color:#0E6BA7"/>
				<stop  offset="0.8476" style="stop-color:#154085"/>
				<stop  offset="1" style="stop-color:#172F78"/>
			</linearGradient>
			<path class="st53" d="M508.77,136.67L508.77,136.67l-0.01-15.97l-20.18,2.69l-15.11-8.72c-2.65-1.53-6.95-1.53-9.6,0l-2.35,1.5
				l-32.76,4.37v16.15c0,0.01,0,0.02,0,0.03v0.08l0.01,0c0.04,0.97,0.69,1.94,1.97,2.68l33.3,19.23c2.65,1.53,6.95,1.53,9.6,0
				l33.13-19.26c1.28-0.74,1.93-1.7,1.97-2.67l0.02,0V136.67z"/>
			<radialGradient id="SVGID_44_" cx="413.9504" cy="94.3875" r="125.9894" gradientUnits="userSpaceOnUse">
				<stop  offset="0" style="stop-color:#01C8EF"/>
				<stop  offset="0.1396" style="stop-color:#03BAE4"/>
				<stop  offset="0.4033" style="stop-color:#0895C8"/>
				<stop  offset="0.76" style="stop-color:#115A9A"/>
				<stop  offset="1" style="stop-color:#172F78"/>
			</radialGradient>
			<path class="st54" d="M506.78,117.82l-33.3-19.23c-2.65-1.53-6.95-1.53-9.6,0l-33.13,19.26c-2.65,1.53-2.65,4.01,0,5.54
				l33.3,19.23c2.65,1.53,6.95,1.53,9.6,0l33.13-19.26C509.43,121.83,509.43,119.35,506.78,117.82z"/>
			<path class="st26" d="M506.78,122.39l-33.13,19.26c-2.65,1.53-6.95,1.53-9.6,0l-33.3-19.23c-1.11-0.64-1.75-1.45-1.93-2.29
				c-0.25,1.16,0.39,2.37,1.93,3.25l33.3,19.23c2.65,1.53,6.95,1.53,9.6,0l33.13-19.26c1.54-0.89,2.18-2.1,1.93-3.25
				C508.53,120.94,507.89,121.75,506.78,122.39z"/>
			<g>
				<polygon class="st26" points="478.13,146.88 476.55,147.79 476.55,145.97 478.13,145.06 				"/>
				<polygon class="st26" points="481.43,144.98 479.85,145.89 479.85,144.07 481.43,143.16 				"/>
				<polygon class="st26" points="484.73,143.07 483.15,143.99 483.15,142.16 484.73,141.25 				"/>
				<polygon class="st26" points="482.03,148.32 480.45,149.23 480.45,147.41 482.03,146.5 				"/>
				<polygon class="st26" points="484.93,146.64 483.36,147.55 483.36,145.73 484.93,144.82 				"/>
				<polygon class="st26" points="495.31,136.97 493.73,137.88 493.73,136.06 495.31,135.15 				"/>
				<polygon class="st26" points="504.39,131.72 502.82,132.63 502.82,130.81 504.39,129.9 				"/>
				<polygon class="st26" points="488.03,141.17 486.45,142.08 486.45,140.26 488.03,139.35 				"/>
			</g>
		</g>
		<path class="st27" d="M466.88,134.5l-22.41-12.94c-0.91-0.53-0.8-1.44,0.26-2.05l21.9-12.64c1.05-0.61,2.64-0.67,3.55-0.15
			l22.41,12.94c0.91,0.53,0.8,1.44-0.26,2.05l-21.9,12.64C469.38,134.96,467.79,135.02,466.88,134.5z"/>
		<path class="st26" d="M458.07,148.5l-18.49-10.68c-0.44-0.25-0.8-0.94-0.8-1.53v-1.37c0-0.59,0.36-0.86,0.8-0.6L458.07,145
			c0.44,0.25,0.8,0.94,0.8,1.53v1.37C458.87,148.49,458.51,148.76,458.07,148.5z"/>
		<g>
			<linearGradient id="SVGID_45_" gradientUnits="userSpaceOnUse" x1="423.9542" y1="106.7355" x2="480.3707" y2="106.7355">
				<stop  offset="0" style="stop-color:#01C8EF"/>
				<stop  offset="0.1297" style="stop-color:#04B1DD"/>
				<stop  offset="0.5466" style="stop-color:#0E6BA7"/>
				<stop  offset="0.8476" style="stop-color:#154085"/>
				<stop  offset="1" style="stop-color:#172F78"/>
			</linearGradient>
			<path class="st55" d="M508.77,106.72L508.77,106.72l-0.01-15.97l-20.18,2.69l-15.11-8.72c-2.65-1.53-6.95-1.53-9.6,0l-2.35,1.5
				l-32.76,4.37v16.15c0,0.01,0,0.02,0,0.03v0.08l0.01,0c0.04,0.97,0.69,1.94,1.97,2.68l33.3,19.23c2.65,1.53,6.95,1.53,9.6,0
				l33.13-19.26c1.28-0.74,1.93-1.7,1.97-2.67l0.02,0V106.72z"/>
			<radialGradient id="SVGID_46_" cx="413.9504" cy="64.431" r="125.9894" gradientUnits="userSpaceOnUse">
				<stop  offset="0" style="stop-color:#01C8EF"/>
				<stop  offset="0.1396" style="stop-color:#03BAE4"/>
				<stop  offset="0.4033" style="stop-color:#0895C8"/>
				<stop  offset="0.76" style="stop-color:#115A9A"/>
				<stop  offset="1" style="stop-color:#172F78"/>
			</radialGradient>
			<path class="st56" d="M506.78,87.86l-33.3-19.23c-2.65-1.53-6.95-1.53-9.6,0L430.75,87.9c-2.65,1.53-2.65,4.01,0,5.54l33.3,19.23
				c2.65,1.53,6.95,1.53,9.6,0l33.13-19.26C509.43,91.87,509.43,89.39,506.78,87.86z"/>
			<path class="st27" d="M490.92,89.02l-19.41-11.2c-1.54-0.89-4.05-0.89-5.59,0l-19.3,11.22c-1.54,0.89-1.54,2.34,0,3.23
				l19.41,11.2c1.54,0.89,4.05,0.89,5.59,0l19.3-11.22C492.46,91.36,492.46,89.92,490.92,89.02z"/>
			<path class="st26" d="M506.78,92.43l-33.13,19.26c-2.65,1.53-6.95,1.53-9.6,0l-33.3-19.23c-1.11-0.64-1.75-1.45-1.93-2.29
				c-0.25,1.16,0.39,2.37,1.93,3.25l33.3,19.23c2.65,1.53,6.95,1.53,9.6,0l33.13-19.26c1.54-0.89,2.18-2.1,1.93-3.25
				C508.53,90.98,507.89,91.79,506.78,92.43z"/>
			<g>
				<polygon class="st26" points="478.13,116.93 476.55,117.84 476.55,116.02 478.13,115.11 				"/>
				<polygon class="st26" points="481.43,115.02 479.85,115.93 479.85,114.11 481.43,113.2 				"/>
				<polygon class="st26" points="484.73,113.12 483.15,114.03 483.15,112.21 484.73,111.3 				"/>
				<polygon class="st26" points="482.03,118.36 480.45,119.27 480.45,117.45 482.03,116.54 				"/>
				<polygon class="st26" points="484.93,116.69 483.36,117.6 483.36,115.78 484.93,114.87 				"/>
				<polygon class="st26" points="495.31,107.01 493.73,107.92 493.73,106.1 495.31,105.19 				"/>
				<polygon class="st26" points="504.39,101.76 502.82,102.67 502.82,100.85 504.39,99.94 				"/>
				<polygon class="st26" points="488.03,111.21 486.45,112.12 486.45,110.3 488.03,109.39 				"/>
			</g>
		</g>
		<g>
			<linearGradient id="SVGID_47_" gradientUnits="userSpaceOnUse" x1="423.9542" y1="76.779" x2="480.3707" y2="76.779">
				<stop  offset="0" style="stop-color:#01C8EF"/>
				<stop  offset="0.1297" style="stop-color:#04B1DD"/>
				<stop  offset="0.5466" style="stop-color:#0E6BA7"/>
				<stop  offset="0.8476" style="stop-color:#154085"/>
				<stop  offset="1" style="stop-color:#172F78"/>
			</linearGradient>
			<path class="st57" d="M508.77,76.76L508.77,76.76l-0.01-15.97l-20.18,2.69l-15.11-8.72c-2.65-1.53-6.95-1.53-9.6,0l-2.35,1.5
				l-32.76,4.37v16.15c0,0.01,0,0.02,0,0.03v0.08l0.01,0c0.04,0.97,0.69,1.94,1.97,2.68l33.3,19.23c2.65,1.53,6.95,1.53,9.6,0
				l33.13-19.26c1.28-0.74,1.93-1.7,1.97-2.67l0.02,0V76.76z"/>
			<radialGradient id="SVGID_48_" cx="413.9504" cy="34.4745" r="125.9894" gradientUnits="userSpaceOnUse">
				<stop  offset="0" style="stop-color:#01C8EF"/>
				<stop  offset="0.1396" style="stop-color:#03BAE4"/>
				<stop  offset="0.4033" style="stop-color:#0895C8"/>
				<stop  offset="0.76" style="stop-color:#115A9A"/>
				<stop  offset="1" style="stop-color:#172F78"/>
			</radialGradient>
			<path class="st58" d="M506.78,57.9l-33.3-19.23c-2.65-1.53-6.95-1.53-9.6,0l-33.13,19.26c-2.65,1.53-2.65,4.01,0,5.54l33.3,19.23
				c2.65,1.53,6.95,1.53,9.6,0l33.13-19.26C509.43,61.91,509.43,59.43,506.78,57.9z"/>
			<radialGradient id="SVGID_49_" cx="425.0679" cy="42.0663" r="86.6221" gradientUnits="userSpaceOnUse">
				<stop  offset="0" style="stop-color:#F9636B"/>
				<stop  offset="1" style="stop-color:#B6246E"/>
			</radialGradient>
			<path class="st59" d="M506.78,57.9l-33.3-19.23c-2.65-1.53-6.95-1.53-9.6,0l-33.13,19.26c-2.65,1.53-2.65,4.01,0,5.54l33.3,19.23
				c2.65,1.53,6.95,1.53,9.6,0l33.13-19.26C509.43,61.91,509.43,59.43,506.78,57.9z"/>
			<path class="st39" d="M468.82,76.48c-1.22,0-2.44-0.27-3.4-0.82l-22.07-12.74c-0.99-0.57-1.53-1.36-1.53-2.21
				c0-0.85,0.54-1.64,1.53-2.21l21.95-12.76c1.91-1.1,4.89-1.1,6.79,0l22.07,12.74c0.99,0.57,1.53,1.36,1.53,2.21
				s-0.54,1.64-1.53,2.21l-21.95,12.76C471.27,76.2,470.05,76.48,468.82,76.48z M468.71,45.77c-1.07,0-2.15,0.24-2.96,0.71
				L443.8,59.24c-0.71,0.41-1.1,0.93-1.1,1.46c0,0.53,0.39,1.05,1.1,1.46l22.07,12.74c1.63,0.94,4.29,0.94,5.93,0l21.95-12.76
				c0.71-0.41,1.1-0.93,1.1-1.46c0-0.53-0.39-1.05-1.1-1.46l-22.07-12.74C470.85,46.01,469.78,45.77,468.71,45.77z"/>
			<path class="st26" d="M506.78,62.48l-33.13,19.26c-2.65,1.53-6.95,1.53-9.6,0l-33.3-19.23c-1.11-0.64-1.75-1.45-1.93-2.29
				c-0.25,1.16,0.39,2.37,1.93,3.25l33.3,19.23c2.65,1.53,6.95,1.53,9.6,0l33.13-19.26c1.54-0.89,2.18-2.1,1.93-3.25
				C508.53,61.03,507.89,61.84,506.78,62.48z"/>
			<g>
				<polygon class="st26" points="478.13,86.97 476.55,87.88 476.55,86.06 478.13,85.15 				"/>
				<polygon class="st26" points="481.43,85.07 479.85,85.98 479.85,84.16 481.43,83.25 				"/>
				<polygon class="st26" points="484.73,83.16 483.15,84.07 483.15,82.25 484.73,81.34 				"/>
				<polygon class="st26" points="482.03,88.41 480.45,89.32 480.45,87.5 482.03,86.59 				"/>
				<polygon class="st26" points="484.93,86.73 483.36,87.64 483.36,85.82 484.93,84.91 				"/>
				<polygon class="st26" points="495.31,77.05 493.73,77.96 493.73,76.14 495.31,75.23 				"/>
				<polygon class="st26" points="504.39,71.81 502.82,72.72 502.82,70.9 504.39,69.99 				"/>
				<polygon class="st26" points="488.03,81.26 486.45,82.17 486.45,80.35 488.03,79.44 				"/>
			</g>
		</g>
	</g>
	<g>
		<path class="st16" d="M474.55,121.2c-2.18,0.06-4.38,0.08-6.6,0.06c-17.36-0.14-33.45-2.66-46.88-6.89
			c-13.41-3.58-14.22,10.45-9.54,19.12c3.33,6.17,7.84,7.86,9.54,8.5c13.43,4.23,29.52,6.75,46.88,6.89c2.22,0.02,4.42,0,6.6-0.06
			c15.76-1.16,19.89-16.3,12.52-23.36C485.02,123.49,481.17,121.15,474.55,121.2L474.55,121.2z"/>
		<g>
			<g class="st60">
				<path class="st20" d="M556.15,103.99l-0.24-0.48c-0.22-0.44-0.48-1.07-0.79-1.92c-2.93-8.55-11.49-16.31-24.75-22.44
					c-9.22-5.24-11.45-12.81-11.99-15.82l0,0c-0.63-3.55,0.08-8.59,3.14-11.25c2.24-1.95,5.29-2.32,9.06-1.1
					c13.45,6.21,22.12,14.08,25.09,22.79c0.63,2.46,1.12,4.38,1.12,13.06v14.73c0,1.29,0,1.37-0.37,1.97L556.15,103.99z
					 M518.96,63.24c0.52,2.93,2.69,10.29,11.67,15.39c13.39,6.18,22.06,14.06,25.04,22.76c0.18,0.5,0.35,0.92,0.5,1.26
					c0.03-0.21,0.03-0.51,0.03-1.1V86.84c-0.01-8.61-0.49-10.5-1.09-12.89c-2.92-8.53-11.48-16.28-24.74-22.41
					c-3.53-1.14-6.39-0.81-8.46,1C519.03,55.05,518.36,59.85,518.96,63.24L518.96,63.24z"/>
				<path class="st20" d="M382.73,108.07l-0.59-0.03V80.42c0-0.25,0-0.49,0.01-0.74c0.17-4.58,1.91-9.05,5.18-13.31l0.13-0.13
					c0.63-0.62,1.49-1.47,2.38-1.6c1.19-0.17,2.25,0.43,3.06,1.73c2.72,4.35,2.47,16.81-5.08,27.96
					C383.4,100.32,383.1,103.74,382.73,108.07z M390.22,65.21c-0.1,0-0.2,0.01-0.3,0.02c-0.7,0.1-1.47,0.87-2.04,1.43l-0.1,0.1
					c-3.16,4.13-4.87,8.49-5.03,12.94c-0.01,0.24-0.01,0.48-0.01,0.72v22.97c0.57-2.68,1.73-5.51,4.6-9.39
					c7.41-10.94,7.7-23.09,5.06-27.3C391.96,66,391.24,65.21,390.22,65.21z"/>
			</g>
			<g>
				<g>
					<path class="st20" d="M389.02,122.44c-0.73,0-1.68-0.39-2.73-1.82c-3.59-4.91-3.94-9.7-4.15-12.56l0-27.64h0.59
						c0,4.17,1.36,8.29,4.04,12.24c5.89,9.74,6.59,19.36,6.07,23.51l0,0c-0.42,3.4-1.69,5.78-3.31,6.2
						C389.38,122.41,389.21,122.44,389.02,122.44z M382.73,85.24v22.8c0.2,2.78,0.54,7.46,4.04,12.23c0.62,0.85,1.58,1.79,2.62,1.53
						c1.36-0.35,2.48-2.59,2.87-5.7c0.51-4.07-0.18-13.53-5.98-23.12C384.57,90.47,383.38,87.88,382.73,85.24z"/>
					<path class="st20" d="M469.48,149.18c-0.51,0-1.02,0-1.53-0.01c-16.82-0.14-33.06-2.52-46.97-6.9
						c-1.74-0.65-6.33-2.37-9.71-8.64c-2.8-5.18-3.93-13-0.54-17.3c1.49-1.89,4.52-3.82,10.42-2.24
						c13.87,4.36,30.05,6.74,46.81,6.88c2.19,0.02,4.41,0,6.59-0.06h0.01c0.08,0,0.15,0,0.23,0c6.59,0,10.43,2.35,12.5,4.34
						c3.44,3.3,4.54,8.56,2.81,13.4c-2.16,6-7.96,9.92-15.51,10.47C472.88,149.16,471.17,149.18,469.48,149.18z M417.13,114.1
						c-2.55,0-4.57,0.87-5.93,2.6c-3.24,4.1-2.11,11.65,0.59,16.66c3.28,6.08,7.72,7.74,9.39,8.36c13.84,4.36,30.02,6.73,46.78,6.87
						c2.2,0.02,4.41,0,6.59-0.06c7.3-0.54,12.9-4.31,14.98-10.08c1.66-4.61,0.62-9.63-2.66-12.77c-2.01-1.93-5.79-4.23-12.31-4.17
						c-2.19,0.06-4.41,0.08-6.61,0.06c-16.82-0.14-33.06-2.52-46.97-6.9C419.59,114.28,418.3,114.1,417.13,114.1z"/>
					<path class="st20" d="M524.34,139.08c-2.69,0-4.92-0.98-6.48-2.89c-3.02-3.68-3.09-10.37-0.17-15.9
						c3.29-6.23,8.4-8.95,10.32-9.97c13.76-5.9,22.93-13.51,26.53-22c0.4-0.85,0.75-1.49,1.04-1.92l0.07-0.11l0.67-0.09l0.08,0.23
						c0.24,0.67,0.34,0.95,0.37,4.26v8.5c-0.08,11.99-0.78,14.18-1.68,16.96c-3.67,8.66-12.94,16.38-26.83,22.33
						C526.88,138.88,525.57,139.08,524.34,139.08z M555.96,86.91c-0.25,0.4-0.54,0.95-0.87,1.64c-3.66,8.63-12.93,16.34-26.82,22.3
						c-1.86,0.99-6.85,3.65-10.06,9.72c-2.81,5.33-2.77,11.74,0.1,15.25c1.5,1.83,4.41,3.67,9.75,2.1
						c13.71-5.88,22.88-13.49,26.48-21.98c0.87-2.7,1.57-4.86,1.64-16.75v-8.5C556.17,88.02,556.1,87.4,555.96,86.91z"/>
				</g>
			</g>
		</g>
	</g>
</g>
<g class="st61">
	
		<radialGradient id="SVGID_50_" cx="161.8963" cy="404.0316" r="65.4945" gradientTransform="matrix(1 0 0 0.4826 0 117.9607)" gradientUnits="userSpaceOnUse">
		<stop  offset="0" style="stop-color:#F8359E"/>
		<stop  offset="0.0428" style="stop-color:#E63192"/>
		<stop  offset="0.1941" style="stop-color:#AA246C"/>
		<stop  offset="0.3446" style="stop-color:#76194B"/>
		<stop  offset="0.4909" style="stop-color:#4B1030"/>
		<stop  offset="0.6322" style="stop-color:#2B091B"/>
		<stop  offset="0.7669" style="stop-color:#13040C"/>
		<stop  offset="0.8926" style="stop-color:#050103"/>
		<stop  offset="1" style="stop-color:#000000"/>
	</radialGradient>
	<ellipse class="st62" cx="161.9" cy="312.95" rx="65.49" ry="31.61"/>
	<g class="st63">
		<g>
			<linearGradient id="SVGID_51_" gradientUnits="userSpaceOnUse" x1="133.3497" y1="312.1774" x2="191.8658" y2="312.1774">
				<stop  offset="0" style="stop-color:#B6246E"/>
				<stop  offset="1" style="stop-color:#F9636B"/>
			</linearGradient>
			<path class="st64" d="M183.54,320.51h-41.86c-4.6,0-8.33-3.73-8.33-8.33l0,0c0-4.6,3.73-8.33,8.33-8.33h41.86
				c4.6,0,8.33,3.73,8.33,8.33l0,0C191.87,316.78,188.14,320.51,183.54,320.51z"/>
		</g>
		<g>
			<path class="st20" d="M254.66,320.51H212.8c-4.6,0-8.33-3.73-8.33-8.33l0,0c0-4.6,3.73-8.33,8.33-8.33h41.86
				c4.6,0,8.33,3.73,8.33,8.33l0,0C262.99,316.78,259.26,320.51,254.66,320.51z"/>
		</g>
		<g>
			<path class="st26" d="M217.21,315.18v-5.85h0.82v5.27h1.49v0.59H217.21z"/>
			<path class="st26" d="M220.08,315.18v-5.85h2.27v0.6h-1.45v1.93h1.18v0.58h-1.18v2.15h1.47v0.59H220.08z"/>
			<path class="st26" d="M222.7,315.18l1.25-5.85h0.79l1.25,5.85h-0.78l-0.27-1.48h-1.19l-0.28,1.48H222.7z M223.86,313.12h0.98
				l-0.49-2.64L223.86,313.12z"/>
			<path class="st26" d="M226.58,315.18v-5.85h1.18c0.59,0,1.03,0.12,1.3,0.36c0.28,0.24,0.42,0.64,0.42,1.19
				c0,0.75-0.24,1.21-0.72,1.37l0.84,2.94h-0.79l-0.77-2.75h-0.63v2.75H226.58z M227.4,311.85h0.31c0.36,0,0.61-0.07,0.76-0.21
				c0.15-0.14,0.23-0.39,0.23-0.76c0-0.36-0.07-0.61-0.2-0.75c-0.13-0.14-0.38-0.21-0.74-0.21h-0.36V311.85z"/>
			<path class="st26" d="M230.33,315.18v-5.85h0.55l1.66,3.89v-3.89h0.68v5.85h-0.52l-1.69-4v4H230.33z"/>
			<path class="st26" d="M235.78,315.18l0.11-5.85h0.8l1.03,4.75l1.04-4.75h0.8l0.11,5.85h-0.66l-0.06-4.25l-0.99,4.25h-0.46
				l-0.99-4.25l-0.06,4.25H235.78z"/>
			<path class="st26" d="M242.06,315.24c-0.29,0-0.54-0.04-0.75-0.13c-0.21-0.09-0.37-0.21-0.5-0.38c-0.12-0.17-0.21-0.37-0.27-0.59
				c-0.06-0.23-0.08-0.49-0.08-0.79v-2.22c0-0.61,0.12-1.07,0.37-1.39c0.25-0.31,0.66-0.47,1.23-0.47c0.57,0,0.98,0.16,1.23,0.47
				c0.25,0.32,0.37,0.78,0.37,1.38v2.22c0,0.61-0.13,1.08-0.38,1.41C243.04,315.08,242.63,315.24,242.06,315.24z M241.67,314.53
				c0.1,0.05,0.24,0.07,0.4,0.07c0.16,0,0.29-0.03,0.4-0.07c0.1-0.05,0.18-0.13,0.24-0.23c0.05-0.1,0.09-0.21,0.11-0.33
				c0.02-0.12,0.03-0.27,0.03-0.45v-2.56c0-0.18-0.01-0.32-0.03-0.44c-0.02-0.12-0.06-0.23-0.11-0.33c-0.05-0.1-0.13-0.17-0.24-0.22
				c-0.1-0.05-0.24-0.07-0.4-0.07c-0.16,0-0.29,0.02-0.4,0.07c-0.11,0.05-0.18,0.12-0.24,0.22c-0.05,0.1-0.09,0.21-0.11,0.33
				c-0.02,0.12-0.03,0.26-0.03,0.44v2.56c0,0.18,0.01,0.33,0.03,0.45c0.02,0.12,0.06,0.23,0.11,0.33
				C241.48,314.4,241.56,314.48,241.67,314.53z"/>
			<path class="st26" d="M244.47,315.18v-5.85h1.18c0.59,0,1.03,0.12,1.3,0.36c0.28,0.24,0.41,0.64,0.41,1.19
				c0,0.75-0.24,1.21-0.72,1.37l0.84,2.94h-0.79l-0.77-2.75h-0.63v2.75H244.47z M245.29,311.85h0.31c0.36,0,0.61-0.07,0.76-0.21
				c0.15-0.14,0.23-0.39,0.23-0.76c0-0.36-0.07-0.61-0.2-0.75c-0.13-0.14-0.38-0.21-0.74-0.21h-0.36V311.85z"/>
			<path class="st26" d="M248.22,315.18v-5.85h2.27v0.6h-1.45v1.93h1.18v0.58h-1.18v2.15h1.47v0.59H248.22z"/>
		</g>
		<g>
			<path class="st26" d="M148.12,315.18v-5.25h-1.07v-0.6h2.92v0.6h-1.03v5.25H148.12z"/>
			<path class="st26" d="M150.42,315.18v-5.85h1.18c0.59,0,1.03,0.12,1.3,0.36c0.28,0.24,0.41,0.64,0.41,1.19
				c0,0.75-0.24,1.21-0.72,1.37l0.84,2.94h-0.79l-0.77-2.75h-0.63v2.75H150.42z M151.23,311.85h0.31c0.36,0,0.61-0.07,0.76-0.21
				c0.15-0.14,0.23-0.39,0.23-0.76c0-0.36-0.07-0.61-0.2-0.75c-0.13-0.14-0.38-0.21-0.74-0.21h-0.36V311.85z"/>
			<path class="st26" d="M155.06,315.18v-2.07l-1.26-3.79h0.76l0.89,2.82l0.88-2.82h0.77l-1.26,3.79v2.07H155.06z"/>
			<path class="st26" d="M159.34,315.18v-5.85h0.8v5.85H159.34z"/>
			<path class="st26" d="M161.69,315.18v-5.25h-1.07v-0.6h2.92v0.6h-1.03v5.25H161.69z"/>
			<path class="st26" d="M165.64,315.18v-5.85h0.55l1.66,3.89v-3.89h0.68v5.85h-0.52l-1.69-4v4H165.64z"/>
			<path class="st26" d="M170.94,315.24c-0.29,0-0.54-0.04-0.75-0.13c-0.21-0.09-0.37-0.21-0.5-0.38c-0.12-0.17-0.21-0.37-0.27-0.59
				c-0.06-0.23-0.08-0.49-0.08-0.79v-2.22c0-0.61,0.12-1.07,0.37-1.39c0.25-0.31,0.66-0.47,1.23-0.47c0.57,0,0.98,0.16,1.22,0.47
				c0.25,0.32,0.37,0.78,0.37,1.38v2.22c0,0.61-0.13,1.08-0.38,1.41C171.91,315.08,171.51,315.24,170.94,315.24z M170.54,314.53
				c0.1,0.05,0.24,0.07,0.4,0.07c0.16,0,0.29-0.03,0.4-0.07c0.1-0.05,0.18-0.13,0.24-0.23c0.05-0.1,0.09-0.21,0.11-0.33
				c0.02-0.12,0.03-0.27,0.03-0.45v-2.56c0-0.18-0.01-0.32-0.03-0.44c-0.02-0.12-0.06-0.23-0.11-0.33c-0.05-0.1-0.13-0.17-0.24-0.22
				c-0.1-0.05-0.24-0.07-0.4-0.07c-0.16,0-0.29,0.02-0.4,0.07c-0.1,0.05-0.18,0.12-0.24,0.22c-0.05,0.1-0.09,0.21-0.11,0.33
				c-0.02,0.12-0.03,0.26-0.03,0.44v2.56c0,0.18,0.01,0.33,0.03,0.45s0.06,0.23,0.11,0.33C170.36,314.4,170.44,314.48,170.54,314.53
				z"/>
			<path class="st26" d="M174.1,315.18l-0.96-5.85h0.68l0.63,4.21l0.79-4.19h0.58l0.79,4.21l0.61-4.23h0.67l-0.94,5.85h-0.59
				l-0.82-4.33l-0.83,4.33H174.1z"/>
		</g>
	</g>
</g>
<g>
	<path class="st16" d="M517.2,284.13l-36.95-21.33c-2.09-1.21-3.79-4.45-3.79-7.24v-69.98c0-2.79,1.7-4.07,3.79-2.86l36.95,21.33
		c2.09,1.21,3.79,4.45,3.79,7.24v69.98C520.99,284.06,519.29,285.34,517.2,284.13z"/>
	<path class="st20" d="M518.71,284.9c-0.53,0-1.09-0.17-1.66-0.5l-36.95-21.33c-2.17-1.26-3.94-4.62-3.94-7.51v-69.98
		c0-1.58,0.53-2.79,1.46-3.33c0.79-0.45,1.78-0.38,2.79,0.2l36.95,21.33c2.17,1.26,3.94,4.62,3.94,7.51v69.98
		c0,1.58-0.53,2.79-1.46,3.33C519.49,284.8,519.11,284.9,518.71,284.9z M517.36,283.86c0.81,0.47,1.58,0.54,2.17,0.2
		c0.73-0.42,1.15-1.44,1.15-2.79v-69.98c0-2.69-1.63-5.81-3.63-6.97l-36.95-21.33c-0.81-0.47-1.58-0.54-2.17-0.2
		c-0.73,0.42-1.15,1.44-1.15,2.79v69.98c0,2.69,1.63,5.81,3.63,6.97L517.36,283.86z"/>
</g>
<g>
	<path class="st16" d="M421.96,284.13l36.95-21.33c2.09-1.21,3.79-4.45,3.79-7.24v-69.98c0-2.79-1.7-4.07-3.79-2.86l-36.95,21.33
		c-2.09,1.21-3.79,4.45-3.79,7.24v69.98C418.17,284.06,419.86,285.34,421.96,284.13z"/>
	<path class="st20" d="M420.45,284.9c-0.4,0-0.79-0.1-1.13-0.3c-0.93-0.54-1.46-1.75-1.46-3.33v-69.98c0-2.88,1.77-6.25,3.94-7.51
		l36.95-21.33c1.01-0.58,2-0.66,2.79-0.2c0.93,0.54,1.46,1.75,1.46,3.33v69.98c0,2.88-1.77,6.25-3.94,7.51l-36.95,21.33
		C421.54,284.73,420.97,284.9,420.45,284.9z M460.41,182.57c-0.42,0-0.88,0.14-1.35,0.41l-36.95,21.33c-2,1.16-3.63,4.28-3.63,6.97
		v69.98c0,1.35,0.42,2.37,1.15,2.8c0.59,0.34,1.36,0.27,2.17-0.2l36.95-21.33c2-1.16,3.63-4.28,3.63-6.97v-69.98
		c0-1.35-0.42-2.37-1.16-2.79C460.98,182.64,460.71,182.57,460.41,182.57z"/>
</g>
<g>
	<path class="st20" d="M468.61,324.04c-1.79,0-3.58-0.39-4.94-1.18l-33.24-19.19c-1.38-0.8-2.14-1.87-2.14-3.03
		c0-1.16,0.76-2.24,2.14-3.03l33.07-19.23c2.73-1.58,7.16-1.58,9.89,0l33.24,19.19c1.38,0.8,2.14,1.87,2.14,3.03
		c0,1.16-0.76,2.24-2.14,3.03l-33.07,19.23C472.2,323.65,470.41,324.04,468.61,324.04z M468.44,277.8c-1.68,0-3.36,0.37-4.63,1.11
		l-33.07,19.23c-1.18,0.68-1.83,1.57-1.83,2.5c0,0.93,0.65,1.82,1.83,2.5l33.24,19.19c2.55,1.48,6.71,1.48,9.27,0l33.07-19.23
		c1.18-0.68,1.83-1.57,1.83-2.5c0-0.93-0.65-1.82-1.83-2.5l-33.24-19.19C471.8,278.17,470.12,277.8,468.44,277.8z"/>
	<g>
		<linearGradient id="SVGID_52_" gradientUnits="userSpaceOnUse" x1="423.9631" y1="290.1269" x2="480.2725" y2="290.1269">
			<stop  offset="0" style="stop-color:#01C8EF"/>
			<stop  offset="0.1297" style="stop-color:#04B1DD"/>
			<stop  offset="0.5466" style="stop-color:#0E6BA7"/>
			<stop  offset="0.8476" style="stop-color:#154085"/>
			<stop  offset="1" style="stop-color:#172F78"/>
		</linearGradient>
		<path class="st65" d="M508.62,290.11L508.62,290.11l-0.01-15.94l-20.14,2.69l-15.08-8.71c-2.65-1.53-6.93-1.53-9.58,0l-2.35,1.49
			l-32.7,4.36v16.12c0,0.01,0,0.02,0,0.03v0.08l0.01,0c0.04,0.97,0.69,1.94,1.97,2.68l33.24,19.19c2.65,1.53,6.93,1.53,9.58,0
			l33.07-19.23c1.28-0.74,1.93-1.7,1.97-2.67l0.02,0V290.11z"/>
		<radialGradient id="SVGID_53_" cx="413.9782" cy="247.9026" r="125.7504" gradientUnits="userSpaceOnUse">
			<stop  offset="0" style="stop-color:#01C8EF"/>
			<stop  offset="0.1396" style="stop-color:#03BAE4"/>
			<stop  offset="0.4033" style="stop-color:#0895C8"/>
			<stop  offset="0.76" style="stop-color:#115A9A"/>
			<stop  offset="1" style="stop-color:#172F78"/>
		</radialGradient>
		<path class="st66" d="M506.63,271.29l-33.24-19.19c-2.65-1.53-6.93-1.53-9.58,0l-33.07,19.23c-2.65,1.53-2.65,4,0,5.53
			l33.24,19.19c2.65,1.53,6.93,1.53,9.58,0l33.07-19.23C509.28,275.29,509.28,272.81,506.63,271.29z"/>
		<path class="st26" d="M506.63,275.85l-33.07,19.23c-2.65,1.53-6.93,1.53-9.58,0l-33.24-19.19c-1.11-0.64-1.75-1.45-1.93-2.28
			c-0.25,1.16,0.39,2.36,1.93,3.25l33.24,19.19c2.65,1.53,6.93,1.53,9.58,0l33.07-19.23c1.54-0.89,2.17-2.09,1.93-3.25
			C508.38,274.4,507.74,275.21,506.63,275.85z"/>
		<g>
			<polygon class="st26" points="478.04,300.3 476.46,301.21 476.46,299.39 478.04,298.48 			"/>
			<polygon class="st26" points="481.33,298.4 479.75,299.31 479.75,297.49 481.33,296.58 			"/>
			<polygon class="st26" points="484.62,296.5 483.05,297.41 483.05,295.59 484.62,294.68 			"/>
			<polygon class="st26" points="481.93,301.73 480.36,302.64 480.36,300.82 481.93,299.92 			"/>
			<polygon class="st26" points="484.83,300.06 483.25,300.97 483.25,299.15 484.83,298.24 			"/>
			<polygon class="st26" points="495.18,290.4 493.61,291.31 493.61,289.49 495.18,288.58 			"/>
			<polygon class="st26" points="504.25,285.16 502.68,286.07 502.68,284.26 504.25,283.35 			"/>
			<polygon class="st26" points="487.91,294.6 486.34,295.51 486.34,293.69 487.91,292.78 			"/>
		</g>
	</g>
	<path class="st27" d="M466.81,287.94l-22.36-12.91c-0.91-0.52-0.79-1.44,0.25-2.05l21.85-12.62c1.05-0.61,2.64-0.67,3.55-0.15
		l22.36,12.91c0.91,0.52,0.8,1.44-0.25,2.05l-21.85,12.62C469.31,288.4,467.72,288.46,466.81,287.94z"/>
	<path class="st26" d="M458.01,301.91l-18.45-10.65c-0.44-0.25-0.8-0.94-0.8-1.52v-1.37c0-0.59,0.36-0.86,0.8-0.6l18.45,10.65
		c0.44,0.25,0.8,0.94,0.8,1.52v1.37C458.81,301.9,458.45,302.17,458.01,301.91z"/>
	<g>
		<linearGradient id="SVGID_54_" gradientUnits="userSpaceOnUse" x1="423.9631" y1="260.2271" x2="480.2725" y2="260.2271">
			<stop  offset="0" style="stop-color:#01C8EF"/>
			<stop  offset="0.1297" style="stop-color:#04B1DD"/>
			<stop  offset="0.5466" style="stop-color:#0E6BA7"/>
			<stop  offset="0.8476" style="stop-color:#154085"/>
			<stop  offset="1" style="stop-color:#172F78"/>
		</linearGradient>
		<path class="st67" d="M508.62,260.21L508.62,260.21l-0.01-15.94l-20.14,2.69l-15.08-8.71c-2.65-1.53-6.93-1.53-9.58,0l-2.35,1.49
			l-32.7,4.36v16.12c0,0.01,0,0.02,0,0.03v0.08l0.01,0c0.04,0.97,0.69,1.94,1.97,2.68l33.24,19.19c2.65,1.53,6.93,1.53,9.58,0
			l33.07-19.23c1.28-0.74,1.93-1.7,1.97-2.67l0.02,0V260.21z"/>
		<radialGradient id="SVGID_55_" cx="413.9782" cy="218.0029" r="125.7504" gradientUnits="userSpaceOnUse">
			<stop  offset="0" style="stop-color:#01C8EF"/>
			<stop  offset="0.1396" style="stop-color:#03BAE4"/>
			<stop  offset="0.4033" style="stop-color:#0895C8"/>
			<stop  offset="0.76" style="stop-color:#115A9A"/>
			<stop  offset="1" style="stop-color:#172F78"/>
		</radialGradient>
		<path class="st68" d="M506.63,241.39l-33.24-19.19c-2.65-1.53-6.93-1.53-9.58,0l-33.07,19.23c-2.65,1.53-2.65,4,0,5.53
			l33.24,19.19c2.65,1.53,6.93,1.53,9.58,0l33.07-19.23C509.28,245.39,509.28,242.91,506.63,241.39z"/>
		<path class="st27" d="M490.8,242.55l-19.37-11.18c-1.54-0.89-4.04-0.89-5.58,0l-19.27,11.2c-1.54,0.89-1.54,2.33,0,3.22
			l19.37,11.18c1.54,0.89,4.04,0.89,5.58,0l19.27-11.2C492.34,244.88,492.34,243.44,490.8,242.55z"/>
		<path class="st26" d="M506.63,245.95l-33.07,19.23c-2.65,1.53-6.93,1.53-9.58,0l-33.24-19.19c-1.11-0.64-1.75-1.45-1.93-2.28
			c-0.25,1.16,0.39,2.36,1.93,3.25l33.24,19.19c2.65,1.53,6.93,1.53,9.58,0l33.07-19.23c1.54-0.89,2.17-2.09,1.93-3.25
			C508.38,244.5,507.74,245.31,506.63,245.95z"/>
		<g>
			<polygon class="st26" points="478.04,270.4 476.46,271.31 476.46,269.49 478.04,268.58 			"/>
			<polygon class="st26" points="481.33,268.5 479.75,269.41 479.75,267.59 481.33,266.68 			"/>
			<polygon class="st26" points="484.62,266.6 483.05,267.51 483.05,265.69 484.62,264.78 			"/>
			<polygon class="st26" points="481.93,271.83 480.36,272.74 480.36,270.93 481.93,270.02 			"/>
			<polygon class="st26" points="484.83,270.16 483.25,271.07 483.25,269.25 484.83,268.34 			"/>
			<polygon class="st26" points="495.18,260.5 493.61,261.41 493.61,259.59 495.18,258.68 			"/>
			<polygon class="st26" points="504.25,255.26 502.68,256.17 502.68,254.36 504.25,253.45 			"/>
			<polygon class="st26" points="487.91,264.7 486.34,265.61 486.34,263.79 487.91,262.88 			"/>
		</g>
	</g>
	<g>
		<linearGradient id="SVGID_56_" gradientUnits="userSpaceOnUse" x1="423.9631" y1="230.3275" x2="480.2725" y2="230.3275">
			<stop  offset="0" style="stop-color:#01C8EF"/>
			<stop  offset="0.1297" style="stop-color:#04B1DD"/>
			<stop  offset="0.5466" style="stop-color:#0E6BA7"/>
			<stop  offset="0.8476" style="stop-color:#154085"/>
			<stop  offset="1" style="stop-color:#172F78"/>
		</linearGradient>
		<path class="st69" d="M508.62,230.31L508.62,230.31l-0.01-15.94l-20.14,2.69l-15.08-8.71c-2.65-1.53-6.93-1.53-9.58,0l-2.35,1.49
			l-32.7,4.36v16.12c0,0.01,0,0.02,0,0.03v0.08l0.01,0c0.04,0.97,0.69,1.94,1.97,2.68l33.24,19.19c2.65,1.53,6.93,1.53,9.58,0
			l33.07-19.23c1.28-0.74,1.93-1.7,1.97-2.67l0.02,0V230.31z"/>
		<radialGradient id="SVGID_57_" cx="413.9782" cy="188.1032" r="125.7504" gradientUnits="userSpaceOnUse">
			<stop  offset="0" style="stop-color:#01C8EF"/>
			<stop  offset="0.1396" style="stop-color:#03BAE4"/>
			<stop  offset="0.4033" style="stop-color:#0895C8"/>
			<stop  offset="0.76" style="stop-color:#115A9A"/>
			<stop  offset="1" style="stop-color:#172F78"/>
		</radialGradient>
		<path class="st70" d="M506.63,211.49l-33.24-19.19c-2.65-1.53-6.93-1.53-9.58,0l-33.07,19.23c-2.65,1.53-2.65,4,0,5.53
			l33.24,19.19c2.65,1.53,6.93,1.53,9.58,0l33.07-19.23C509.28,215.49,509.28,213.02,506.63,211.49z"/>
		<path class="st26" d="M506.63,216.05l-33.07,19.23c-2.65,1.53-6.93,1.53-9.58,0l-33.24-19.19c-1.11-0.64-1.75-1.45-1.93-2.28
			c-0.25,1.16,0.39,2.36,1.93,3.25l33.24,19.19c2.65,1.53,6.93,1.53,9.58,0l33.07-19.23c1.54-0.89,2.17-2.09,1.93-3.25
			C508.38,214.6,507.74,215.41,506.63,216.05z"/>
		<g>
			<polygon class="st26" points="478.04,240.5 476.46,241.41 476.46,239.59 478.04,238.68 			"/>
			<polygon class="st26" points="481.33,238.6 479.75,239.51 479.75,237.69 481.33,236.78 			"/>
			<polygon class="st26" points="484.62,236.7 483.05,237.61 483.05,235.79 484.62,234.88 			"/>
			<polygon class="st26" points="481.93,241.93 480.36,242.84 480.36,241.03 481.93,240.12 			"/>
			<polygon class="st26" points="484.83,240.26 483.25,241.17 483.25,239.35 484.83,238.44 			"/>
			<polygon class="st26" points="495.18,230.6 493.61,231.51 493.61,229.69 495.18,228.78 			"/>
			<polygon class="st26" points="504.25,225.37 502.68,226.27 502.68,224.46 504.25,223.55 			"/>
			<polygon class="st26" points="487.91,234.8 486.34,235.71 486.34,233.89 487.91,232.98 			"/>
		</g>
	</g>
	<path class="st26" d="M458.01,272.68l-18.45-10.65c-0.44-0.25-0.8-0.94-0.8-1.52v-1.37c0-0.59,0.36-0.86,0.8-0.6l18.45,10.65
		c0.44,0.25,0.8,0.94,0.8,1.52v1.37C458.81,272.67,458.45,272.94,458.01,272.68z"/>
	<path class="st26" d="M458.01,243.45l-18.45-10.66c-0.44-0.25-0.8-0.94-0.8-1.52v-1.37c0-0.59,0.36-0.86,0.8-0.6l18.45,10.65
		c0.44,0.25,0.8,0.94,0.8,1.52v1.37C458.81,243.43,458.45,243.7,458.01,243.45z"/>
</g>
</svg>
