<?xml version="1.0" encoding="utf-8"?>
<!-- Generator: Adobe Illustrator 23.0.3, SVG Export Plug-In . SVG Version: 6.00 Build 0)  -->
<svg version="1.1" id="Ñëîé_1" xmlns="http://www.w3.org/2000/svg" xmlns:xlink="http://www.w3.org/1999/xlink" x="0px" y="0px"
	 viewBox="0 0 600 350" style="enable-background:new 0 0 600 350;" xml:space="preserve">
<style type="text/css">
	.st0{fill:#020230;}
	.st1{display:none;}
	.st2{display:inline;}
	.st3{opacity:0.8;clip-path:url(#SVGID_2_);}
	.st4{fill:url(#SVGID_3_);}
	.st5{fill:url(#SVGID_4_);}
	.st6{fill:url(#SVGID_5_);}
	.st7{fill:url(#SVGID_6_);}
	.st8{fill:url(#SVGID_7_);}
	.st9{fill:url(#SVGID_8_);}
	.st10{fill:url(#SVGID_9_);}
	.st11{fill:url(#SVGID_10_);}
	.st12{fill:url(#SVGID_11_);}
	.st13{fill:url(#SVGID_12_);}
	.st14{fill:url(#SVGID_13_);}
	.st15{fill:url(#SVGID_14_);}
	.st16{fill:url(#SVGID_15_);}
	.st17{display:inline;opacity:0.4;fill:#172F78;}
	.st18{display:inline;opacity:0.6;fill:#172F78;}
	.st19{display:inline;fill:#172F78;}
	.st20{display:none;opacity:0.8;fill:url(#SVGID_16_);}
	.st21{opacity:0.4;fill:#172F78;}
	.st22{opacity:0.6;fill:#172F78;}
	.st23{opacity:0.8;fill:#172F78;}
	.st24{fill:#172F78;}
	.st25{fill:#03A7D3;}
	.st26{opacity:0.4;fill:#03A7D3;}
	.st27{opacity:0.8;fill:#03A7D3;}
	.st28{display:none;opacity:0.6;fill:url(#SVGID_17_);}
	.st29{fill:url(#SVGID_18_);}
	.st30{fill:url(#SVGID_19_);}
	.st31{fill:#FFFFFF;}
	.st32{opacity:0.4;fill:#06033E;}
	.st33{fill:url(#SVGID_20_);}
	.st34{fill:url(#SVGID_21_);}
	.st35{fill:url(#SVGID_22_);}
	.st36{fill:url(#SVGID_23_);}
	.st37{fill:url(#SVGID_24_);}
	.st38{fill:url(#SVGID_25_);}
	.st39{fill:url(#SVGID_26_);}
	.st40{fill:url(#SVGID_27_);}
	.st41{fill:url(#SVGID_28_);}
	.st42{fill:url(#SVGID_29_);}
	.st43{fill:url(#SVGID_30_);}
	.st44{fill:#8B1E64;}
	.st45{fill:url(#SVGID_31_);}
	.st46{fill:url(#SVGID_32_);}
	.st47{fill:url(#SVGID_33_);}
	.st48{fill:url(#SVGID_34_);}
	.st49{fill:url(#SVGID_35_);}
	.st50{fill:url(#SVGID_36_);}
	.st51{opacity:0.2;fill:#03A7D3;}
	.st52{fill:url(#SVGID_37_);}
	.st53{fill:url(#SVGID_38_);}
	.st54{fill:url(#SVGID_39_);}
	.st55{fill:url(#SVGID_40_);}
	.st56{fill:url(#SVGID_41_);}
	.st57{fill:url(#SVGID_42_);}
	.st58{fill:url(#SVGID_43_);}
	.st59{fill:url(#SVGID_44_);}
	.st60{fill:url(#SVGID_45_);}
	.st61{fill:url(#SVGID_46_);}
	.st62{fill:url(#SVGID_47_);}
	.st63{fill:url(#SVGID_48_);}
	.st64{fill:url(#SVGID_49_);}
	.st65{opacity:0.3;}
	.st66{display:inline;opacity:0.6;fill:url(#SVGID_50_);}
	.st67{fill:url(#SVGID_51_);}
	.st68{fill:url(#SVGID_52_);}
	.st69{fill:url(#SVGID_53_);}
	.st70{fill:url(#SVGID_54_);}
	.st71{fill:url(#SVGID_55_);}
	.st72{fill:url(#SVGID_56_);}
	.st73{fill:url(#SVGID_57_);}
	.st74{fill:url(#SVGID_58_);}
	.st75{fill:url(#SVGID_59_);}
	.st76{fill:url(#SVGID_60_);}
	.st77{fill:url(#SVGID_61_);}
	.st78{fill:url(#SVGID_62_);}
	.st79{fill:url(#SVGID_63_);}
	.st80{fill:url(#SVGID_64_);}
	.st81{fill:url(#SVGID_65_);}
</style>
<g>
	<rect x="0" class="st0" width="600" height="350"/>
	<g class="st1">
		<g class="st2">
			<defs>
				<rect id="SVGID_1_" x="0" y="0.06" width="600" height="349.88"/>
			</defs>
			<clipPath id="SVGID_2_">
				<use xlink:href="#SVGID_1_"  style="overflow:visible;"/>
			</clipPath>
			<g class="st3">
				
					<linearGradient id="SVGID_3_" gradientUnits="userSpaceOnUse" x1="1573.2056" y1="-36.0257" x2="1433.6036" y2="72.8825" gradientTransform="matrix(-1 0 0 -1 2021.929 350)">
					<stop  offset="0" style="stop-color:#183372"/>
					<stop  offset="1" style="stop-color:#020230"/>
				</linearGradient>
				<polygon class="st4" points="600,349.94 600,221.28 389.96,349.94 				"/>
				
					<linearGradient id="SVGID_4_" gradientUnits="userSpaceOnUse" x1="2085.4973" y1="316.8279" x2="1878.5432" y2="252.8072" gradientTransform="matrix(-1 0 0 -1 2021.929 350)">
					<stop  offset="0" style="stop-color:#183372"/>
					<stop  offset="1" style="stop-color:#020230"/>
				</linearGradient>
				<polygon class="st5" points="124.31,211.08 216.63,0.06 0,0.06 0,137.83 				"/>
				
					<linearGradient id="SVGID_5_" gradientUnits="userSpaceOnUse" x1="1486.6559" y1="69.4905" x2="1750.9656" y2="69.4905" gradientTransform="matrix(-1 0 0 -1 2021.929 350)">
					<stop  offset="0" style="stop-color:#183372"/>
					<stop  offset="1" style="stop-color:#020230"/>
				</linearGradient>
				<polygon class="st6" points="359.96,349.94 389.96,349.94 535.27,260.93 124.31,211.08 				"/>
				
					<linearGradient id="SVGID_6_" gradientUnits="userSpaceOnUse" x1="1410.656" y1="162.6815" x2="1635.1876" y2="162.6815" gradientTransform="matrix(-1 0 0 -1 2021.929 350)">
					<stop  offset="0" style="stop-color:#183372"/>
					<stop  offset="1" style="stop-color:#020230"/>
				</linearGradient>
				<polygon class="st7" points="535.27,260.93 480.73,113.71 310.74,233.7 				"/>
				
					<linearGradient id="SVGID_7_" gradientUnits="userSpaceOnUse" x1="1839.8651" y1="153.1109" x2="1794.9851" y2="257.8975" gradientTransform="matrix(-1 0 0 -1 2021.929 350)">
					<stop  offset="0" style="stop-color:#183372"/>
					<stop  offset="1" style="stop-color:#020230"/>
				</linearGradient>
				<polygon class="st8" points="265.78,122.07 216.63,0.06 124.31,211.08 				"/>
				
					<linearGradient id="SVGID_8_" gradientUnits="userSpaceOnUse" x1="1634.6875" y1="172.1151" x2="1821.1165" y2="172.1151" gradientTransform="matrix(-1 0 0 -1 2021.929 350)">
					<stop  offset="0" style="stop-color:#183372"/>
					<stop  offset="1" style="stop-color:#020230"/>
				</linearGradient>
				<polygon class="st9" points="310.74,233.7 265.78,122.07 124.31,211.08 				"/>
				
					<linearGradient id="SVGID_9_" gradientUnits="userSpaceOnUse" x1="1453.1969" y1="233.1213" x2="1717.2976" y2="233.1213" gradientTransform="matrix(-1 0 0 -1 2021.929 350)">
					<stop  offset="0" style="stop-color:#183372"/>
					<stop  offset="1" style="stop-color:#020230"/>
				</linearGradient>
				<polygon class="st10" points="310.74,233.7 480.73,113.71 216.63,0.06 				"/>
				
					<linearGradient id="SVGID_10_" gradientUnits="userSpaceOnUse" x1="1541.1968" y1="293.1156" x2="1805.2975" y2="293.1156" gradientTransform="matrix(-1 0 0 -1 2021.929 350)">
					<stop  offset="0" style="stop-color:#183372"/>
					<stop  offset="1" style="stop-color:#020230"/>
				</linearGradient>
				<polygon class="st11" points="480.73,113.71 438.63,0.06 216.63,0.06 				"/>
				
					<linearGradient id="SVGID_11_" gradientUnits="userSpaceOnUse" x1="2067.7349" y1="156.6651" x2="1913.7458" y2="41.7849" gradientTransform="matrix(-1 0 0 -1 2021.929 350)">
					<stop  offset="0" style="stop-color:#183372"/>
					<stop  offset="1" style="stop-color:#020230"/>
				</linearGradient>
				<polygon class="st12" points="208.91,260.93 0,137.83 0,349.94 				"/>
				
					<linearGradient id="SVGID_12_" gradientUnits="userSpaceOnUse" x1="1635.9646" y1="44.5667" x2="1800.8821" y2="44.5667" gradientTransform="matrix(-1 0 0 -1 2021.929 350)">
					<stop  offset="0" style="stop-color:#183372"/>
					<stop  offset="1" style="stop-color:#020230"/>
				</linearGradient>
				<polygon class="st13" points="359.96,349.94 208.91,260.93 195.05,349.94 				"/>
				
					<linearGradient id="SVGID_13_" gradientUnits="userSpaceOnUse" x1="2007.5778" y1="-47.5689" x2="1835.9272" y2="50.7323" gradientTransform="matrix(-1 0 0 -1 2021.929 350)">
					<stop  offset="0" style="stop-color:#183372"/>
					<stop  offset="1" style="stop-color:#020230"/>
				</linearGradient>
				<polygon class="st14" points="195.05,349.94 208.91,260.93 0,349.94 				"/>
				
					<linearGradient id="SVGID_14_" gradientUnits="userSpaceOnUse" x1="1347.9291" y1="219.5036" x2="1509.2976" y2="219.5036" gradientTransform="matrix(-1 0 0 -1 2021.929 350)">
					<stop  offset="0" style="stop-color:#183372"/>
					<stop  offset="1" style="stop-color:#020230"/>
				</linearGradient>
				<polygon class="st15" points="535.27,260.93 600,221.28 600,105.57 438.63,0.06 				"/>
				
					<linearGradient id="SVGID_15_" gradientUnits="userSpaceOnUse" x1="1422.4229" y1="390.1653" x2="1527.8115" y2="267.9649" gradientTransform="matrix(-1 0 0 -1 2021.929 350)">
					<stop  offset="0" style="stop-color:#183372"/>
					<stop  offset="1" style="stop-color:#020230"/>
				</linearGradient>
				<polygon class="st16" points="600,105.57 600,0.06 438.63,0.06 				"/>
			</g>
		</g>
		
			<rect x="379.34" y="304.6" transform="matrix(0.8518 -0.5239 0.5239 0.8518 -91.0272 287.989)" class="st17" width="168.26" height="0.55"/>
		
			<rect x="343.27" y="-83.45" transform="matrix(0.3956 -0.9184 0.9184 0.3956 157.3508 348.5913)" class="st18" width="0.55" height="276.38"/>
		<polygon class="st19" points="303.25,143.61 286.65,99.21 422.54,115 422.48,115.55 287.47,99.86 303.76,143.41 		"/>
		<polygon class="st18" points="358.13,349.17 207.86,260.9 11.81,345.21 11.59,344.7 207.9,260.29 208.02,260.36 358.41,348.7 		
			"/>
		
			<rect x="61.88" y="102.31" transform="matrix(0.5077 -0.8616 0.8616 0.5077 -119.7018 139.4421)" class="st18" width="0.55" height="144.29"/>
	</g>
	<linearGradient id="SVGID_16_" gradientUnits="userSpaceOnUse" x1="300.0001" y1="350" x2="300.0001" y2="-9.094947e-13">
		<stop  offset="0" style="stop-color:#020230"/>
		<stop  offset="0.274" style="stop-color:#030534"/>
		<stop  offset="0.5554" style="stop-color:#070D40"/>
		<stop  offset="0.8393" style="stop-color:#0D1B55"/>
		<stop  offset="1" style="stop-color:#112564"/>
	</linearGradient>
	<rect x="0" class="st20" width="600" height="350"/>
</g>
<g>
	<path class="st21" d="M282.97,106.9c0,0.87-0.71,1.58-1.58,1.58c-0.87,0-1.58-0.71-1.58-1.58c0-0.87,0.71-1.58,1.58-1.58
		C282.26,105.33,282.97,106.03,282.97,106.9z"/>
	<path class="st22" d="M188.88,47.57c0,1.29-1.05,2.34-2.34,2.34s-2.34-1.05-2.34-2.34c0-1.29,1.05-2.34,2.34-2.34
		S188.88,46.27,188.88,47.57z"/>
	<path class="st23" d="M187.51,47.57c0,0.54-0.43,0.97-0.97,0.97s-0.97-0.43-0.97-0.97c0-0.54,0.43-0.97,0.97-0.97
		S187.51,47.03,187.51,47.57z"/>
	<path class="st21" d="M306.01,83.59c0,3.45-2.8,6.25-6.25,6.25c-3.45,0-6.25-2.8-6.25-6.25s2.8-6.25,6.25-6.25
		C303.21,77.34,306.01,80.14,306.01,83.59z"/>
	<circle class="st23" cx="299.76" cy="83.59" r="2.6"/>
	<polygon class="st24" points="313.55,128.92 299.39,83.28 415.43,99.53 415.36,100.04 300.12,83.91 314.04,128.76 	"/>
	<g>
		<rect x="439.43" y="143.83" class="st24" width="0.54" height="10.55"/>
		<rect x="439.43" y="156.86" class="st25" width="0.54" height="3.38"/>
	</g>
	<g>
		<rect x="180.94" y="135.92" class="st25" width="0.54" height="10.55"/>
		<rect x="180.94" y="148.9" class="st24" width="0.54" height="3.01"/>
		<rect x="180.94" y="154.44" class="st24" width="0.54" height="3.01"/>
	</g>
	<g>
		<rect x="253.32" y="4.98" class="st24" width="0.54" height="10.55"/>
		<rect x="253.32" y="17.96" class="st25" width="0.54" height="3.01"/>
		<rect x="253.32" y="23.5" class="st25" width="0.54" height="3.01"/>
		<rect x="253.32" y="29.04" class="st25" width="0.54" height="8.55"/>
	</g>
	<g>
		<rect x="373.89" y="227.91" class="st24" width="0.54" height="3.38"/>
		<rect x="373.89" y="201.05" class="st24" width="0.54" height="10.7"/>
	</g>
	<g>
		<rect x="447.01" y="95.58" class="st24" width="0.54" height="3.38"/>
		<g>
			<rect x="447.01" y="82.56" class="st25" width="0.54" height="10.55"/>
			<rect x="447.01" y="68.72" class="st24" width="0.54" height="10.7"/>
			<rect x="447.01" y="52.83" class="st24" width="0.54" height="10.7"/>
		</g>
	</g>
	<g>
		<circle class="st26" cx="198.57" cy="37.5" r="5.88"/>
		<circle class="st27" cx="198.57" cy="37.5" r="2.89"/>
	</g>
	<g>
		<path class="st26" d="M241.94,209.94c0,2.19-1.78,3.97-3.97,3.97c-2.19,0-3.97-1.78-3.97-3.97c0-2.19,1.78-3.97,3.97-3.97
			C240.17,205.98,241.94,207.75,241.94,209.94z"/>
		<circle class="st27" cx="237.97" cy="209.94" r="1.95"/>
	</g>
	<g>
		<circle class="st26" cx="383.06" cy="162.49" r="4.13"/>
		<circle class="st27" cx="383.06" cy="162.49" r="2.03"/>
	</g>
	<g>
		<path class="st26" d="M278.26,74.33c0,1.77-1.43,3.2-3.2,3.2c-1.77,0-3.2-1.43-3.2-3.2c0-1.77,1.43-3.2,3.2-3.2
			C276.82,71.13,278.26,72.56,278.26,74.33z"/>
		<circle class="st27" cx="275.06" cy="74.33" r="1.57"/>
	</g>
	<circle class="st26" cx="395.37" cy="203.44" r="1.73"/>
	<path class="st26" d="M383.15,107.98c0,0.54-0.43,0.97-0.97,0.97c-0.54,0-0.97-0.43-0.97-0.97c0-0.54,0.43-0.97,0.97-0.97
		C382.72,107.01,383.15,107.45,383.15,107.98z"/>
	<path class="st26" d="M251.08,185.94c0,0.54-0.43,0.97-0.97,0.97c-0.54,0-0.97-0.43-0.97-0.97c0-0.54,0.43-0.97,0.97-0.97
		C250.65,184.97,251.08,185.4,251.08,185.94z"/>
	<radialGradient id="SVGID_17_" cx="234.7542" cy="71.1314" r="81.5802" gradientUnits="userSpaceOnUse">
		<stop  offset="0" style="stop-color:#F8359E"/>
		<stop  offset="0.0428" style="stop-color:#E63192"/>
		<stop  offset="0.1941" style="stop-color:#AA246C"/>
		<stop  offset="0.3446" style="stop-color:#76194B"/>
		<stop  offset="0.4909" style="stop-color:#4B1030"/>
		<stop  offset="0.6322" style="stop-color:#2B091B"/>
		<stop  offset="0.7669" style="stop-color:#13040C"/>
		<stop  offset="0.8926" style="stop-color:#050103"/>
		<stop  offset="1" style="stop-color:#000000"/>
	</radialGradient>
	<circle class="st28" cx="234.75" cy="71.13" r="81.58"/>
	<g>
		<g>
			<path class="st25" d="M310.04,156.4c-1.96,0-3.93-0.43-5.42-1.29l-36.48-21.06c-1.51-0.87-2.35-2.06-2.35-3.33
				c0-1.27,0.83-2.45,2.35-3.33l36.29-21.1c2.99-1.73,7.86-1.73,10.85,0l36.48,21.06c1.51,0.87,2.35,2.06,2.35,3.33
				c0,1.27-0.83,2.46-2.35,3.33l-36.29,21.1C313.97,155.97,312.01,156.4,310.04,156.4z M309.85,105.66c-1.84,0-3.68,0.4-5.09,1.21
				l-36.29,21.1c-1.3,0.75-2.01,1.72-2.01,2.74c0,1.02,0.71,1.99,2.01,2.74l36.48,21.06c2.81,1.62,7.37,1.62,10.17,0l36.29-21.1
				c1.3-0.75,2.01-1.72,2.01-2.74c0-1.02-0.71-1.99-2.01-2.74l-36.48-21.06C313.53,106.07,311.69,105.66,309.85,105.66z"/>
			<g>
				<linearGradient id="SVGID_18_" gradientUnits="userSpaceOnUse" x1="261.0408" y1="119.188" x2="322.8357" y2="119.188">
					<stop  offset="0" style="stop-color:#01C8EF"/>
					<stop  offset="0.1297" style="stop-color:#04B1DD"/>
					<stop  offset="0.5466" style="stop-color:#0E6BA7"/>
					<stop  offset="0.8476" style="stop-color:#154085"/>
					<stop  offset="1" style="stop-color:#172F78"/>
				</linearGradient>
				<path class="st29" d="M353.94,119.17L353.94,119.17l-0.01-17.49l-22.1,2.95l-16.55-9.56c-2.9-1.68-7.61-1.68-10.51,0l-2.58,1.64
					l-35.88,4.79v17.7c0,0.01,0,0.02,0,0.03v0.08l0.01,0c0.04,1.07,0.75,2.13,2.16,2.94l36.48,21.06c2.9,1.68,7.61,1.68,10.51,0
					l36.29-21.1c1.4-0.81,2.11-1.87,2.16-2.93l0.02,0V119.17z"/>
				<radialGradient id="SVGID_19_" cx="250.0832" cy="72.8503" r="138.0007" gradientUnits="userSpaceOnUse">
					<stop  offset="0" style="stop-color:#01C8EF"/>
					<stop  offset="0.1396" style="stop-color:#03BAE4"/>
					<stop  offset="0.4033" style="stop-color:#0895C8"/>
					<stop  offset="0.76" style="stop-color:#115A9A"/>
					<stop  offset="1" style="stop-color:#172F78"/>
				</radialGradient>
				<path class="st30" d="M351.76,98.51l-36.48-21.06c-2.9-1.68-7.61-1.68-10.51,0l-36.29,21.1c-2.9,1.68-2.9,4.39,0,6.07
					l36.48,21.06c2.9,1.68,7.61,1.68,10.51,0l36.29-21.1C354.67,102.91,354.67,100.19,351.76,98.51z"/>
				<path class="st31" d="M351.76,103.52l-36.29,21.1c-2.9,1.68-7.61,1.68-10.51,0l-36.48-21.06c-1.22-0.7-1.92-1.59-2.11-2.5
					c-0.27,1.27,0.43,2.59,2.11,3.56l36.48,21.06c2.9,1.68,7.61,1.68,10.51,0l36.29-21.1c1.69-0.97,2.39-2.3,2.11-3.56
					C353.68,101.93,352.98,102.82,351.76,103.52z"/>
				<g>
					<polygon class="st31" points="320.38,130.35 318.65,131.35 318.65,129.35 320.38,128.36 					"/>
					<polygon class="st31" points="323.99,128.27 322.27,129.26 322.27,127.27 323.99,126.27 					"/>
					<polygon class="st31" points="327.61,126.18 325.88,127.18 325.88,125.18 327.61,124.19 					"/>
					<polygon class="st31" points="324.65,131.93 322.93,132.92 322.93,130.93 324.65,129.93 					"/>
					<polygon class="st31" points="327.83,130.09 326.11,131.09 326.11,129.09 327.83,128.09 					"/>
					<polygon class="st31" points="339.2,119.49 337.47,120.49 337.47,118.49 339.2,117.49 					"/>
					<polygon class="st31" points="349.15,113.74 347.42,114.74 347.42,112.75 349.15,111.75 					"/>
					<polygon class="st31" points="331.22,124.09 329.49,125.09 329.49,123.1 331.22,122.1 					"/>
				</g>
			</g>
			<path class="st32" d="M308.06,116.79l-24.54-14.17c-1-0.58-0.87-1.58,0.28-2.25l23.98-13.85c1.15-0.66,2.89-0.74,3.89-0.16
				l24.54,14.17c1,0.58,0.87,1.58-0.28,2.25l-23.98,13.85C310.8,117.29,309.06,117.36,308.06,116.79z"/>
			<path class="st31" d="M298.4,132.12l-20.25-11.69c-0.48-0.28-0.88-1.03-0.88-1.67v-1.5c0-0.64,0.39-0.94,0.88-0.66l20.25,11.69
				c0.48,0.28,0.88,1.03,0.88,1.67v1.5C299.28,132.11,298.89,132.4,298.4,132.12z"/>
			<g>
				<linearGradient id="SVGID_20_" gradientUnits="userSpaceOnUse" x1="261.0408" y1="86.3755" x2="322.8357" y2="86.3755">
					<stop  offset="0" style="stop-color:#01C8EF"/>
					<stop  offset="0.1297" style="stop-color:#04B1DD"/>
					<stop  offset="0.5466" style="stop-color:#0E6BA7"/>
					<stop  offset="0.8476" style="stop-color:#154085"/>
					<stop  offset="1" style="stop-color:#172F78"/>
				</linearGradient>
				<path class="st33" d="M353.94,86.36L353.94,86.36l-0.01-17.49l-22.1,2.95l-16.55-9.56c-2.9-1.68-7.61-1.68-10.51,0l-2.58,1.64
					l-35.88,4.79v17.7c0,0.01,0,0.02,0,0.03v0.08l0.01,0c0.04,1.07,0.75,2.13,2.16,2.94l36.48,21.06c2.9,1.68,7.61,1.68,10.51,0
					l36.29-21.1c1.4-0.81,2.11-1.87,2.16-2.93l0.02,0V86.36z"/>
				<radialGradient id="SVGID_21_" cx="250.0832" cy="40.0379" r="138.0007" gradientUnits="userSpaceOnUse">
					<stop  offset="0" style="stop-color:#01C8EF"/>
					<stop  offset="0.1396" style="stop-color:#03BAE4"/>
					<stop  offset="0.4033" style="stop-color:#0895C8"/>
					<stop  offset="0.76" style="stop-color:#115A9A"/>
					<stop  offset="1" style="stop-color:#172F78"/>
				</radialGradient>
				<path class="st34" d="M351.76,65.7l-36.48-21.06c-2.9-1.68-7.61-1.68-10.51,0l-36.29,21.1c-2.9,1.68-2.9,4.39,0,6.07
					l36.48,21.06c2.9,1.68,7.61,1.68,10.51,0l36.29-21.1C354.67,70.09,354.67,67.38,351.76,65.7z"/>
				<path class="st32" d="M334.39,66.98L313.13,54.7c-1.69-0.98-4.43-0.98-6.12,0L285.86,67c-1.69,0.98-1.69,2.56,0,3.54
					l21.26,12.27c1.69,0.98,4.43,0.98,6.13,0l21.14-12.29C336.08,69.53,336.08,67.95,334.39,66.98z"/>
				<path class="st31" d="M351.76,70.71l-36.29,21.1c-2.9,1.68-7.61,1.68-10.51,0l-36.48-21.06c-1.22-0.7-1.92-1.59-2.11-2.5
					c-0.27,1.27,0.43,2.59,2.11,3.56l36.48,21.06c2.9,1.68,7.61,1.68,10.51,0l36.29-21.1c1.69-0.97,2.39-2.3,2.11-3.56
					C353.68,69.12,352.98,70.01,351.76,70.71z"/>
				<g>
					<polygon class="st31" points="320.38,97.54 318.65,98.54 318.65,96.54 320.38,95.54 					"/>
					<polygon class="st31" points="323.99,95.45 322.27,96.45 322.27,94.46 323.99,93.46 					"/>
					<polygon class="st31" points="327.61,93.37 325.88,94.36 325.88,92.37 327.61,91.37 					"/>
					<polygon class="st31" points="324.65,99.11 322.93,100.11 322.93,98.12 324.65,97.12 					"/>
					<polygon class="st31" points="327.83,97.28 326.11,98.27 326.11,96.28 327.83,95.28 					"/>
					<polygon class="st31" points="339.2,86.68 337.47,87.67 337.47,85.68 339.2,84.68 					"/>
					<polygon class="st31" points="349.15,80.93 347.42,81.93 347.42,79.93 349.15,78.94 					"/>
					<polygon class="st31" points="331.22,91.28 329.49,92.28 329.49,90.28 331.22,89.29 					"/>
				</g>
			</g>
			<g>
				<linearGradient id="SVGID_22_" gradientUnits="userSpaceOnUse" x1="261.0408" y1="53.563" x2="322.8357" y2="53.563">
					<stop  offset="0" style="stop-color:#01C8EF"/>
					<stop  offset="0.1297" style="stop-color:#04B1DD"/>
					<stop  offset="0.5466" style="stop-color:#0E6BA7"/>
					<stop  offset="0.8476" style="stop-color:#154085"/>
					<stop  offset="1" style="stop-color:#172F78"/>
				</linearGradient>
				<path class="st35" d="M353.94,53.54L353.94,53.54l-0.01-17.49L331.83,39l-16.55-9.56c-2.9-1.68-7.61-1.68-10.51,0l-2.58,1.64
					l-35.88,4.79v17.69c0,0.01,0,0.02,0,0.03v0.08l0.01,0c0.04,1.07,0.75,2.13,2.16,2.94l36.48,21.06c2.9,1.68,7.61,1.68,10.51,0
					l36.29-21.1c1.4-0.81,2.11-1.87,2.16-2.93l0.02,0V53.54z"/>
				<radialGradient id="SVGID_23_" cx="250.0832" cy="7.2254" r="138.0007" gradientUnits="userSpaceOnUse">
					<stop  offset="0" style="stop-color:#01C8EF"/>
					<stop  offset="0.1396" style="stop-color:#03BAE4"/>
					<stop  offset="0.4033" style="stop-color:#0895C8"/>
					<stop  offset="0.76" style="stop-color:#115A9A"/>
					<stop  offset="1" style="stop-color:#172F78"/>
				</radialGradient>
				<path class="st36" d="M351.76,32.89l-36.48-21.06c-2.9-1.68-7.61-1.68-10.51,0l-36.29,21.1c-2.9,1.68-2.9,4.39,0,6.07
					l36.48,21.06c2.9,1.68,7.61,1.68,10.51,0l36.29-21.1C354.67,37.28,354.67,34.56,351.76,32.89z"/>
				<path class="st31" d="M351.76,37.9L315.48,59c-2.9,1.68-7.61,1.68-10.51,0l-36.48-21.06c-1.22-0.7-1.92-1.59-2.11-2.5
					c-0.27,1.27,0.43,2.59,2.11,3.56l36.48,21.06c2.9,1.68,7.61,1.68,10.51,0l36.29-21.1c1.69-0.97,2.39-2.3,2.11-3.56
					C353.68,36.31,352.98,37.19,351.76,37.9z"/>
				<g>
					<polygon class="st31" points="320.38,64.73 318.65,65.72 318.65,63.73 320.38,62.73 					"/>
					<polygon class="st31" points="323.99,62.64 322.27,63.64 322.27,61.64 323.99,60.65 					"/>
					<polygon class="st31" points="327.61,60.55 325.88,61.55 325.88,59.56 327.61,58.56 					"/>
					<polygon class="st31" points="324.65,66.3 322.93,67.3 322.93,65.3 324.65,64.31 					"/>
					<polygon class="st31" points="327.83,64.46 326.11,65.46 326.11,63.47 327.83,62.47 					"/>
					<polygon class="st31" points="339.2,53.86 337.47,54.86 337.47,52.87 339.2,51.87 					"/>
					<polygon class="st31" points="349.15,48.12 347.42,49.11 347.42,47.12 349.15,46.12 					"/>
					<polygon class="st31" points="331.22,58.47 329.49,59.47 329.49,57.47 331.22,56.47 					"/>
				</g>
			</g>
		</g>
		<g>
			<path class="st25" d="M245.52,193.74c-1.97,0-3.93-0.43-5.43-1.29l-36.48-21.06c-1.51-0.87-2.35-2.06-2.35-3.33
				c0-1.27,0.83-2.46,2.35-3.33l36.29-21.1c2.99-1.73,7.86-1.73,10.85,0l36.48,21.06c1.51,0.87,2.35,2.06,2.35,3.33
				c0,1.27-0.83,2.46-2.35,3.33l-36.29,21.1C249.45,193.31,247.48,193.74,245.52,193.74z M245.32,143c-1.84,0-3.68,0.41-5.09,1.21
				l-36.29,21.1c-1.3,0.75-2.01,1.72-2.01,2.74c0,1.02,0.71,1.99,2.01,2.74l36.48,21.06c2.81,1.62,7.37,1.62,10.17,0l36.29-21.1
				c1.3-0.75,2.01-1.72,2.01-2.74c0-1.02-0.71-1.99-2.01-2.74l-36.48-21.06C249.01,143.4,247.17,143,245.32,143z"/>
			<g>
				<linearGradient id="SVGID_24_" gradientUnits="userSpaceOnUse" x1="196.5147" y1="156.5206" x2="258.3096" y2="156.5206">
					<stop  offset="0" style="stop-color:#01C8EF"/>
					<stop  offset="0.1297" style="stop-color:#04B1DD"/>
					<stop  offset="0.5466" style="stop-color:#0E6BA7"/>
					<stop  offset="0.8476" style="stop-color:#154085"/>
					<stop  offset="1" style="stop-color:#172F78"/>
				</linearGradient>
				<path class="st37" d="M289.41,156.5L289.41,156.5l-0.01-17.49l-22.1,2.95l-16.55-9.56c-2.9-1.68-7.61-1.68-10.51,0l-2.58,1.64
					l-35.88,4.79v17.69c0,0.01,0,0.02,0,0.03v0.08l0.01,0c0.04,1.07,0.75,2.13,2.16,2.94l36.48,21.06c2.9,1.68,7.61,1.68,10.51,0
					l36.29-21.1c1.4-0.81,2.11-1.87,2.16-2.93l0.02,0V156.5z"/>
				<radialGradient id="SVGID_25_" cx="185.5571" cy="110.183" r="138.0007" gradientUnits="userSpaceOnUse">
					<stop  offset="0" style="stop-color:#01C8EF"/>
					<stop  offset="0.1396" style="stop-color:#03BAE4"/>
					<stop  offset="0.4033" style="stop-color:#0895C8"/>
					<stop  offset="0.76" style="stop-color:#115A9A"/>
					<stop  offset="1" style="stop-color:#172F78"/>
				</radialGradient>
				<path class="st38" d="M287.24,135.85l-36.48-21.06c-2.9-1.68-7.61-1.68-10.51,0l-36.29,21.1c-2.9,1.68-2.9,4.39,0,6.07
					l36.48,21.06c2.9,1.68,7.61,1.68,10.51,0l36.29-21.1C290.14,140.24,290.14,137.52,287.24,135.85z"/>
				<path class="st31" d="M287.24,140.85l-36.29,21.1c-2.9,1.68-7.61,1.68-10.51,0l-36.48-21.06c-1.22-0.7-1.92-1.59-2.11-2.5
					c-0.27,1.27,0.43,2.59,2.11,3.56l36.48,21.06c2.9,1.68,7.61,1.68,10.51,0l36.29-21.1c1.69-0.97,2.39-2.3,2.11-3.56
					C289.15,139.27,288.46,140.15,287.24,140.85z"/>
				<g>
					<polygon class="st31" points="255.86,167.68 254.13,168.68 254.13,166.69 255.86,165.69 					"/>
					<polygon class="st31" points="259.47,165.6 257.74,166.59 257.74,164.6 259.47,163.6 					"/>
					<polygon class="st31" points="263.08,163.51 261.35,164.51 261.35,162.51 263.08,161.52 					"/>
					<polygon class="st31" points="260.13,169.26 258.4,170.25 258.4,168.26 260.13,167.26 					"/>
					<polygon class="st31" points="263.31,167.42 261.58,168.42 261.58,166.42 263.31,165.43 					"/>
					<polygon class="st31" points="274.67,156.82 272.94,157.82 272.94,155.82 274.67,154.83 					"/>
					<polygon class="st31" points="284.62,151.07 282.9,152.07 282.9,150.08 284.62,149.08 					"/>
					<polygon class="st31" points="266.69,161.43 264.97,162.42 264.97,160.43 266.69,159.43 					"/>
				</g>
			</g>
			<path class="st32" d="M243.53,154.12l-24.54-14.17c-1-0.58-0.87-1.58,0.28-2.25l23.98-13.85c1.15-0.67,2.89-0.74,3.89-0.16
				l24.54,14.17c1,0.58,0.87,1.58-0.28,2.25l-23.98,13.85C246.27,154.62,244.53,154.69,243.53,154.12z"/>
			<path class="st31" d="M233.88,169.46l-20.25-11.69c-0.48-0.28-0.88-1.03-0.88-1.67v-1.5c0-0.64,0.39-0.94,0.88-0.66l20.25,11.69
				c0.48,0.28,0.88,1.03,0.88,1.67v1.5C234.75,169.44,234.36,169.73,233.88,169.46z"/>
			<g>
				<linearGradient id="SVGID_26_" gradientUnits="userSpaceOnUse" x1="196.5147" y1="123.7082" x2="258.3096" y2="123.7082">
					<stop  offset="0" style="stop-color:#01C8EF"/>
					<stop  offset="0.1297" style="stop-color:#04B1DD"/>
					<stop  offset="0.5466" style="stop-color:#0E6BA7"/>
					<stop  offset="0.8476" style="stop-color:#154085"/>
					<stop  offset="1" style="stop-color:#172F78"/>
				</linearGradient>
				<path class="st39" d="M289.41,123.69L289.41,123.69l-0.01-17.49l-22.1,2.95l-16.55-9.56c-2.9-1.68-7.61-1.68-10.51,0l-2.58,1.64
					l-35.88,4.79v17.7c0,0.01,0,0.02,0,0.03v0.08l0.01,0c0.04,1.07,0.75,2.13,2.16,2.94l36.48,21.06c2.9,1.68,7.61,1.68,10.51,0
					l36.29-21.1c1.4-0.81,2.11-1.87,2.16-2.93l0.02,0V123.69z"/>
				<radialGradient id="SVGID_27_" cx="185.5571" cy="77.3705" r="138.0007" gradientUnits="userSpaceOnUse">
					<stop  offset="0" style="stop-color:#01C8EF"/>
					<stop  offset="0.1396" style="stop-color:#03BAE4"/>
					<stop  offset="0.4033" style="stop-color:#0895C8"/>
					<stop  offset="0.76" style="stop-color:#115A9A"/>
					<stop  offset="1" style="stop-color:#172F78"/>
				</radialGradient>
				<path class="st40" d="M287.24,103.03l-36.48-21.06c-2.9-1.68-7.61-1.68-10.51,0l-36.29,21.1c-2.9,1.68-2.9,4.39,0,6.07
					l36.48,21.06c2.9,1.68,7.61,1.68,10.51,0l36.29-21.1C290.14,107.43,290.14,104.71,287.24,103.03z"/>
				<path class="st32" d="M269.86,104.31l-21.26-12.27c-1.69-0.98-4.43-0.98-6.12,0l-21.14,12.29c-1.69,0.98-1.69,2.56,0,3.54
					l21.26,12.27c1.69,0.98,4.43,0.98,6.13,0l21.14-12.29C271.55,106.87,271.55,105.28,269.86,104.31z"/>
				<path class="st31" d="M287.24,108.04l-36.29,21.1c-2.9,1.68-7.61,1.68-10.51,0l-36.48-21.06c-1.22-0.7-1.92-1.59-2.11-2.5
					c-0.27,1.27,0.43,2.59,2.11,3.56l36.48,21.06c2.9,1.68,7.61,1.68,10.51,0l36.29-21.1c1.69-0.97,2.39-2.3,2.11-3.56
					C289.15,106.45,288.46,107.34,287.24,108.04z"/>
				<g>
					<polygon class="st31" points="255.86,134.87 254.13,135.87 254.13,133.87 255.86,132.88 					"/>
					<polygon class="st31" points="259.47,132.79 257.74,133.78 257.74,131.79 259.47,130.79 					"/>
					<polygon class="st31" points="263.08,130.7 261.35,131.7 261.35,129.7 263.08,128.71 					"/>
					<polygon class="st31" points="260.13,136.45 258.4,137.44 258.4,135.45 260.13,134.45 					"/>
					<polygon class="st31" points="263.31,134.61 261.58,135.61 261.58,133.61 263.31,132.61 					"/>
					<polygon class="st31" points="274.67,124.01 272.94,125.01 272.94,123.01 274.67,122.01 					"/>
					<polygon class="st31" points="284.62,118.26 282.9,119.26 282.9,117.27 284.62,116.27 					"/>
					<polygon class="st31" points="266.69,128.61 264.97,129.61 264.97,127.62 266.69,126.62 					"/>
				</g>
			</g>
			<g>
				<linearGradient id="SVGID_28_" gradientUnits="userSpaceOnUse" x1="196.5147" y1="90.8957" x2="258.3096" y2="90.8957">
					<stop  offset="0" style="stop-color:#01C8EF"/>
					<stop  offset="0.1297" style="stop-color:#04B1DD"/>
					<stop  offset="0.5466" style="stop-color:#0E6BA7"/>
					<stop  offset="0.8476" style="stop-color:#154085"/>
					<stop  offset="1" style="stop-color:#172F78"/>
				</linearGradient>
				<path class="st41" d="M289.41,90.88L289.41,90.88l-0.01-17.49l-22.1,2.95l-16.55-9.56c-2.9-1.68-7.61-1.68-10.51,0l-2.58,1.64
					l-35.88,4.79V90.9c0,0.01,0,0.02,0,0.03v0.08l0.01,0c0.04,1.07,0.75,2.13,2.16,2.94l36.48,21.06c2.9,1.68,7.61,1.68,10.51,0
					l36.29-21.1c1.4-0.81,2.11-1.87,2.16-2.93l0.02,0V90.88z"/>
				<radialGradient id="SVGID_29_" cx="185.5571" cy="44.5581" r="138.0007" gradientUnits="userSpaceOnUse">
					<stop  offset="0" style="stop-color:#01C8EF"/>
					<stop  offset="0.1396" style="stop-color:#03BAE4"/>
					<stop  offset="0.4033" style="stop-color:#0895C8"/>
					<stop  offset="0.76" style="stop-color:#115A9A"/>
					<stop  offset="1" style="stop-color:#172F78"/>
				</radialGradient>
				<path class="st42" d="M287.24,70.22l-36.48-21.06c-2.9-1.68-7.61-1.68-10.51,0l-36.29,21.1c-2.9,1.68-2.9,4.39,0,6.07
					l36.48,21.06c2.9,1.68,7.61,1.68,10.51,0l36.29-21.1C290.14,74.61,290.14,71.9,287.24,70.22z"/>
				<radialGradient id="SVGID_30_" cx="197.7345" cy="52.8737" r="94.8803" gradientUnits="userSpaceOnUse">
					<stop  offset="0" style="stop-color:#F9636B"/>
					<stop  offset="1" style="stop-color:#B6246E"/>
				</radialGradient>
				<path class="st43" d="M287.24,70.22l-36.48-21.06c-2.9-1.68-7.61-1.68-10.51,0l-36.29,21.1c-2.9,1.68-2.9,4.39,0,6.07
					l36.48,21.06c2.9,1.68,7.61,1.68,10.51,0l36.29-21.1C290.14,74.61,290.14,71.9,287.24,70.22z"/>
				<path class="st44" d="M245.66,90.57c-1.34,0-2.68-0.3-3.72-0.9l-24.17-13.96c-1.08-0.63-1.68-1.48-1.68-2.42
					c0-0.94,0.6-1.8,1.68-2.42l24.04-13.98c2.09-1.21,5.35-1.2,7.44,0l24.17,13.96c1.08,0.63,1.68,1.48,1.68,2.42
					c0,0.94-0.6,1.8-1.68,2.42l-24.04,13.98C248.34,90.27,247,90.57,245.66,90.57z M245.53,56.93c-1.18,0-2.35,0.26-3.25,0.77
					l-24.04,13.98c-0.78,0.45-1.21,1.02-1.21,1.6c0,0.58,0.43,1.15,1.21,1.6l24.17,13.96c1.79,1.03,4.7,1.03,6.49,0l24.04-13.98
					c0.78-0.45,1.21-1.02,1.21-1.6c0-0.58-0.43-1.15-1.21-1.6l-24.17-13.96C247.89,57.19,246.71,56.93,245.53,56.93z"/>
				<path class="st31" d="M287.24,75.23l-36.29,21.1c-2.9,1.68-7.61,1.68-10.51,0l-36.48-21.06c-1.22-0.7-1.92-1.59-2.11-2.5
					c-0.27,1.27,0.43,2.59,2.11,3.56l36.48,21.06c2.9,1.68,7.61,1.68,10.51,0l36.29-21.1c1.69-0.97,2.39-2.3,2.11-3.56
					C289.15,73.64,288.46,74.53,287.24,75.23z"/>
				<g>
					<polygon class="st31" points="255.86,102.06 254.13,103.06 254.13,101.06 255.86,100.06 					"/>
					<polygon class="st31" points="259.47,99.97 257.74,100.97 257.74,98.98 259.47,97.98 					"/>
					<polygon class="st31" points="263.08,97.89 261.35,98.88 261.35,96.89 263.08,95.89 					"/>
					<polygon class="st31" points="260.13,103.63 258.4,104.63 258.4,102.64 260.13,101.64 					"/>
					<polygon class="st31" points="263.31,101.8 261.58,102.79 261.58,100.8 263.31,99.8 					"/>
					<polygon class="st31" points="274.67,91.2 272.94,92.19 272.94,90.2 274.67,89.2 					"/>
					<polygon class="st31" points="284.62,85.45 282.9,86.45 282.9,84.45 284.62,83.46 					"/>
					<polygon class="st31" points="266.69,95.8 264.97,96.8 264.97,94.8 266.69,93.81 					"/>
				</g>
			</g>
		</g>
		<g>
			<path class="st25" d="M374.33,193.7c-1.96,0-3.93-0.43-5.42-1.29l-36.48-21.06c-1.51-0.87-2.35-2.06-2.35-3.33
				c0-1.27,0.83-2.46,2.35-3.33l36.29-21.1c2.99-1.73,7.86-1.73,10.85,0l36.48,21.06c1.51,0.87,2.35,2.06,2.35,3.33
				c0,1.27-0.83,2.45-2.35,3.33l-36.29,21.1C378.27,193.27,376.3,193.7,374.33,193.7z M374.14,142.96c-1.84,0-3.68,0.41-5.09,1.21
				l-36.29,21.1c-1.3,0.75-2.01,1.72-2.01,2.74c0,1.02,0.71,1.99,2.01,2.74l36.48,21.06c2.81,1.62,7.37,1.62,10.17,0l36.29-21.1
				c1.3-0.75,2.01-1.72,2.01-2.74c0-1.02-0.71-1.99-2.01-2.74l-36.48-21.06C377.83,143.37,375.98,142.96,374.14,142.96z"/>
			<g>
				<linearGradient id="SVGID_31_" gradientUnits="userSpaceOnUse" x1="325.3339" y1="156.4839" x2="387.1288" y2="156.4839">
					<stop  offset="0" style="stop-color:#01C8EF"/>
					<stop  offset="0.1297" style="stop-color:#04B1DD"/>
					<stop  offset="0.5466" style="stop-color:#0E6BA7"/>
					<stop  offset="0.8476" style="stop-color:#154085"/>
					<stop  offset="1" style="stop-color:#172F78"/>
				</linearGradient>
				<path class="st45" d="M418.23,156.46L418.23,156.46l-0.01-17.49l-22.1,2.95l-16.55-9.56c-2.9-1.68-7.61-1.68-10.51,0l-2.58,1.64
					l-35.88,4.79v17.7c0,0.01,0,0.02,0,0.03v0.08l0.01,0c0.04,1.07,0.75,2.13,2.16,2.94l36.48,21.06c2.9,1.68,7.61,1.68,10.51,0
					l36.29-21.1c1.4-0.81,2.11-1.87,2.16-2.93l0.02,0V156.46z"/>
				<radialGradient id="SVGID_32_" cx="314.3763" cy="110.1462" r="138.0007" gradientUnits="userSpaceOnUse">
					<stop  offset="0" style="stop-color:#01C8EF"/>
					<stop  offset="0.1396" style="stop-color:#03BAE4"/>
					<stop  offset="0.4033" style="stop-color:#0895C8"/>
					<stop  offset="0.76" style="stop-color:#115A9A"/>
					<stop  offset="1" style="stop-color:#172F78"/>
				</radialGradient>
				<path class="st46" d="M416.06,135.81l-36.48-21.06c-2.9-1.68-7.61-1.68-10.51,0l-36.29,21.1c-2.9,1.68-2.9,4.39,0,6.07
					l36.48,21.06c2.9,1.68,7.61,1.68,10.51,0l36.29-21.1C418.96,140.2,418.96,137.49,416.06,135.81z"/>
				<path class="st31" d="M416.06,140.82l-36.29,21.1c-2.9,1.68-7.61,1.68-10.51,0l-36.48-21.06c-1.22-0.7-1.92-1.59-2.11-2.5
					c-0.27,1.27,0.43,2.59,2.11,3.56l36.48,21.06c2.9,1.68,7.61,1.68,10.51,0l36.29-21.1c1.69-0.97,2.39-2.3,2.11-3.56
					C417.97,139.23,417.27,140.12,416.06,140.82z"/>
				<g>
					<polygon class="st31" points="384.67,167.65 382.95,168.64 382.95,166.65 384.67,165.65 					"/>
					<polygon class="st31" points="388.29,165.56 386.56,166.56 386.56,164.56 388.29,163.57 					"/>
					<polygon class="st31" points="391.9,163.47 390.17,164.47 390.17,162.48 391.9,161.48 					"/>
					<polygon class="st31" points="388.95,169.22 387.22,170.22 387.22,168.22 388.95,167.23 					"/>
					<polygon class="st31" points="392.13,167.38 390.4,168.38 390.4,166.39 392.13,165.39 					"/>
					<polygon class="st31" points="403.49,156.78 401.76,157.78 401.76,155.79 403.49,154.79 					"/>
					<polygon class="st31" points="413.44,151.04 411.72,152.04 411.72,150.04 413.44,149.04 					"/>
					<polygon class="st31" points="395.51,161.39 393.79,162.39 393.79,160.39 395.51,159.39 					"/>
				</g>
			</g>
			<path class="st32" d="M372.35,154.08l-24.54-14.17c-1-0.58-0.87-1.58,0.28-2.25l23.98-13.85c1.15-0.67,2.89-0.74,3.89-0.16
				l24.54,14.17c1,0.58,0.87,1.58-0.28,2.25l-23.98,13.85C375.09,154.58,373.35,154.66,372.35,154.08z"/>
			<path class="st31" d="M362.7,169.42l-20.25-11.69c-0.48-0.28-0.88-1.03-0.88-1.67v-1.5c0-0.64,0.39-0.94,0.88-0.66l20.25,11.69
				c0.48,0.28,0.88,1.03,0.88,1.67v1.5C363.57,169.4,363.18,169.7,362.7,169.42z"/>
			<g>
				<linearGradient id="SVGID_33_" gradientUnits="userSpaceOnUse" x1="325.3339" y1="123.6714" x2="387.1288" y2="123.6714">
					<stop  offset="0" style="stop-color:#01C8EF"/>
					<stop  offset="0.1297" style="stop-color:#04B1DD"/>
					<stop  offset="0.5466" style="stop-color:#0E6BA7"/>
					<stop  offset="0.8476" style="stop-color:#154085"/>
					<stop  offset="1" style="stop-color:#172F78"/>
				</linearGradient>
				<path class="st47" d="M418.23,123.65L418.23,123.65l-0.01-17.49l-22.1,2.95l-16.55-9.56c-2.9-1.68-7.61-1.68-10.51,0l-2.58,1.64
					l-35.88,4.79v17.69c0,0.01,0,0.02,0,0.03v0.08l0.01,0c0.04,1.07,0.75,2.13,2.16,2.94l36.48,21.06c2.9,1.68,7.61,1.68,10.51,0
					l36.29-21.1c1.4-0.81,2.11-1.87,2.16-2.93l0.02,0V123.65z"/>
				<radialGradient id="SVGID_34_" cx="314.3763" cy="77.3338" r="138.0007" gradientUnits="userSpaceOnUse">
					<stop  offset="0" style="stop-color:#01C8EF"/>
					<stop  offset="0.1396" style="stop-color:#03BAE4"/>
					<stop  offset="0.4033" style="stop-color:#0895C8"/>
					<stop  offset="0.76" style="stop-color:#115A9A"/>
					<stop  offset="1" style="stop-color:#172F78"/>
				</radialGradient>
				<path class="st48" d="M416.06,103l-36.48-21.06c-2.9-1.68-7.61-1.68-10.51,0l-36.29,21.1c-2.9,1.68-2.9,4.39,0,6.07l36.48,21.06
					c2.9,1.68,7.61,1.68,10.51,0l36.29-21.1C418.96,107.39,418.96,104.67,416.06,103z"/>
				<path class="st32" d="M398.68,104.27L377.42,92c-1.69-0.98-4.43-0.98-6.13,0l-21.14,12.29c-1.69,0.98-1.69,2.56,0,3.54
					l21.26,12.27c1.69,0.98,4.43,0.98,6.13,0l21.14-12.29C400.37,106.83,400.37,105.25,398.68,104.27z"/>
				<path class="st31" d="M416.06,108.01l-36.29,21.1c-2.9,1.68-7.61,1.68-10.51,0l-36.48-21.06c-1.22-0.7-1.92-1.59-2.11-2.5
					c-0.27,1.27,0.43,2.59,2.11,3.56l36.48,21.06c2.9,1.68,7.61,1.68,10.51,0l36.29-21.1c1.69-0.97,2.39-2.3,2.11-3.56
					C417.97,106.42,417.27,107.3,416.06,108.01z"/>
				<g>
					<polygon class="st31" points="384.67,134.83 382.95,135.83 382.95,133.84 384.67,132.84 					"/>
					<polygon class="st31" points="388.29,132.75 386.56,133.75 386.56,131.75 388.29,130.75 					"/>
					<polygon class="st31" points="391.9,130.66 390.17,131.66 390.17,129.67 391.9,128.67 					"/>
					<polygon class="st31" points="388.95,136.41 387.22,137.41 387.22,135.41 388.95,134.41 					"/>
					<polygon class="st31" points="392.13,134.57 390.4,135.57 390.4,133.57 392.13,132.58 					"/>
					<polygon class="st31" points="403.49,123.97 401.76,124.97 401.76,122.97 403.49,121.98 					"/>
					<polygon class="st31" points="413.44,118.23 411.72,119.22 411.72,117.23 413.44,116.23 					"/>
					<polygon class="st31" points="395.51,128.58 393.79,129.57 393.79,127.58 395.51,126.58 					"/>
				</g>
			</g>
			<g>
				<linearGradient id="SVGID_35_" gradientUnits="userSpaceOnUse" x1="325.3339" y1="90.8589" x2="387.1288" y2="90.8589">
					<stop  offset="0" style="stop-color:#01C8EF"/>
					<stop  offset="0.1297" style="stop-color:#04B1DD"/>
					<stop  offset="0.5466" style="stop-color:#0E6BA7"/>
					<stop  offset="0.8476" style="stop-color:#154085"/>
					<stop  offset="1" style="stop-color:#172F78"/>
				</linearGradient>
				<path class="st49" d="M418.23,90.84L418.23,90.84l-0.01-17.49l-22.1,2.95l-16.55-9.56c-2.9-1.68-7.61-1.68-10.51,0l-2.58,1.64
					l-35.88,4.79v17.69c0,0.01,0,0.02,0,0.03v0.08l0.01,0c0.04,1.07,0.75,2.13,2.16,2.94l36.48,21.06c2.9,1.68,7.61,1.68,10.51,0
					l36.29-21.1c1.4-0.81,2.11-1.87,2.16-2.93l0.02,0V90.84z"/>
				<radialGradient id="SVGID_36_" cx="314.3763" cy="44.5213" r="138.0007" gradientUnits="userSpaceOnUse">
					<stop  offset="0" style="stop-color:#01C8EF"/>
					<stop  offset="0.1396" style="stop-color:#03BAE4"/>
					<stop  offset="0.4033" style="stop-color:#0895C8"/>
					<stop  offset="0.76" style="stop-color:#115A9A"/>
					<stop  offset="1" style="stop-color:#172F78"/>
				</radialGradient>
				<path class="st50" d="M416.06,70.18l-36.48-21.06c-2.9-1.68-7.61-1.68-10.51,0l-36.29,21.1c-2.9,1.68-2.9,4.39,0,6.07
					l36.48,21.06c2.9,1.68,7.61,1.68,10.51,0l36.29-21.1C418.96,74.58,418.96,71.86,416.06,70.18z"/>
				<path class="st31" d="M416.06,75.19l-36.29,21.1c-2.9,1.68-7.61,1.68-10.51,0l-36.48-21.06c-1.22-0.7-1.92-1.59-2.11-2.5
					c-0.27,1.27,0.43,2.59,2.11,3.56l36.48,21.06c2.9,1.68,7.61,1.68,10.51,0l36.29-21.1c1.69-0.97,2.39-2.3,2.11-3.56
					C417.97,73.6,417.27,74.49,416.06,75.19z"/>
				<g>
					<polygon class="st31" points="384.67,102.02 382.95,103.02 382.95,101.02 384.67,100.03 					"/>
					<polygon class="st31" points="388.29,99.94 386.56,100.93 386.56,98.94 388.29,97.94 					"/>
					<polygon class="st31" points="391.9,97.85 390.17,98.85 390.17,96.85 391.9,95.86 					"/>
					<polygon class="st31" points="388.95,103.6 387.22,104.59 387.22,102.6 388.95,101.6 					"/>
					<polygon class="st31" points="392.13,101.76 390.4,102.76 390.4,100.76 392.13,99.77 					"/>
					<polygon class="st31" points="403.49,91.16 401.76,92.16 401.76,90.16 403.49,89.17 					"/>
					<polygon class="st31" points="413.44,85.41 411.72,86.41 411.72,84.42 413.44,83.42 					"/>
					<polygon class="st31" points="395.51,95.76 393.79,96.76 393.79,94.77 395.51,93.77 					"/>
				</g>
			</g>
		</g>
		<g>
			<path class="st25" d="M309.81,231.03c-1.96,0-3.93-0.43-5.42-1.29l-36.48-21.06c-1.51-0.87-2.35-2.06-2.35-3.33
				c0-1.27,0.83-2.46,2.35-3.33l36.29-21.1c2.99-1.73,7.86-1.73,10.85,0l36.48,21.06c1.51,0.87,2.35,2.06,2.35,3.33
				c0,1.27-0.83,2.46-2.35,3.33l-36.29,21.1C313.74,230.6,311.77,231.03,309.81,231.03z M309.62,180.29c-1.84,0-3.68,0.41-5.09,1.21
				l-36.29,21.1c-1.3,0.75-2.01,1.72-2.01,2.74c0,1.02,0.71,1.99,2.01,2.74l36.48,21.06c2.81,1.62,7.37,1.62,10.17,0l36.29-21.1
				c1.3-0.75,2.01-1.72,2.01-2.74c0-1.02-0.71-1.99-2.01-2.74l-36.48-21.06C313.3,180.7,311.46,180.29,309.62,180.29z"/>
			<path class="st51" d="M342.33,202.94l-28.57-16.5c-2.27-1.31-5.96-1.31-8.23,0l-28.42,16.53c-2.27,1.31-2.27,3.44,0,4.75
				l28.57,16.5c2.27,1.31,5.96,1.31,8.23,0l28.42-16.53C344.6,206.38,344.6,204.25,342.33,202.94z"/>
			<g>
				<linearGradient id="SVGID_37_" gradientUnits="userSpaceOnUse" x1="260.8078" y1="193.8165" x2="322.6028" y2="193.8165">
					<stop  offset="0" style="stop-color:#01C8EF"/>
					<stop  offset="0.1297" style="stop-color:#04B1DD"/>
					<stop  offset="0.5466" style="stop-color:#0E6BA7"/>
					<stop  offset="0.8476" style="stop-color:#154085"/>
					<stop  offset="1" style="stop-color:#172F78"/>
				</linearGradient>
				<path class="st52" d="M353.71,193.8L353.71,193.8l-0.01-17.49l-22.1,2.95l-16.55-9.56c-2.9-1.68-7.61-1.68-10.51,0l-2.58,1.64
					l-35.88,4.79v17.7c0,0.01,0,0.02,0,0.03v0.08l0.01,0c0.04,1.07,0.75,2.13,2.16,2.94l36.48,21.06c2.9,1.68,7.61,1.68,10.51,0
					l36.29-21.1c1.4-0.81,2.11-1.87,2.16-2.93l0.02,0V193.8z"/>
				<radialGradient id="SVGID_38_" cx="249.8502" cy="147.4789" r="138.0007" gradientUnits="userSpaceOnUse">
					<stop  offset="0" style="stop-color:#01C8EF"/>
					<stop  offset="0.1396" style="stop-color:#03BAE4"/>
					<stop  offset="0.4033" style="stop-color:#0895C8"/>
					<stop  offset="0.76" style="stop-color:#115A9A"/>
					<stop  offset="1" style="stop-color:#172F78"/>
				</radialGradient>
				<path class="st53" d="M351.53,173.14l-36.48-21.06c-2.9-1.68-7.61-1.68-10.51,0l-36.29,21.1c-2.9,1.68-2.9,4.39,0,6.07
					l36.48,21.06c2.9,1.68,7.61,1.68,10.51,0l36.29-21.1C354.43,177.53,354.43,174.82,351.53,173.14z"/>
				<path class="st31" d="M351.53,178.15l-36.29,21.1c-2.9,1.68-7.61,1.68-10.51,0l-36.48-21.06c-1.22-0.7-1.92-1.59-2.11-2.5
					c-0.27,1.27,0.43,2.59,2.11,3.56l36.48,21.06c2.9,1.68,7.61,1.68,10.51,0l36.29-21.1c1.69-0.97,2.39-2.3,2.11-3.56
					C353.45,176.56,352.75,177.45,351.53,178.15z"/>
				<g>
					<polygon class="st31" points="320.15,204.98 318.42,205.98 318.42,203.98 320.15,202.99 					"/>
					<polygon class="st31" points="323.76,202.89 322.03,203.89 322.03,201.9 323.76,200.9 					"/>
					<polygon class="st31" points="327.37,200.81 325.65,201.8 325.65,199.81 327.37,198.81 					"/>
					<polygon class="st31" points="324.42,206.55 322.69,207.55 322.69,205.56 324.42,204.56 					"/>
					<polygon class="st31" points="327.6,204.72 325.87,205.71 325.87,203.72 327.6,202.72 					"/>
					<polygon class="st31" points="338.96,194.12 337.24,195.11 337.24,193.12 338.96,192.12 					"/>
					<polygon class="st31" points="348.92,188.37 347.19,189.37 347.19,187.37 348.92,186.38 					"/>
					<polygon class="st31" points="330.99,198.72 329.26,199.72 329.26,197.72 330.99,196.73 					"/>
				</g>
			</g>
			<path class="st32" d="M307.83,191.41l-24.54-14.17c-1-0.58-0.87-1.58,0.28-2.25l23.98-13.85c1.15-0.66,2.89-0.74,3.89-0.16
				l24.54,14.17c1,0.58,0.87,1.58-0.28,2.25l-23.98,13.85C310.57,191.92,308.83,191.99,307.83,191.41z"/>
			<path class="st31" d="M298.17,206.75l-20.25-11.69c-0.48-0.28-0.88-1.03-0.88-1.67v-1.5c0-0.64,0.39-0.94,0.88-0.66l20.25,11.69
				c0.48,0.28,0.88,1.03,0.88,1.67v1.5C299.05,206.73,298.66,207.03,298.17,206.75z"/>
			<g>
				<linearGradient id="SVGID_39_" gradientUnits="userSpaceOnUse" x1="260.8078" y1="161.004" x2="322.6028" y2="161.004">
					<stop  offset="0" style="stop-color:#01C8EF"/>
					<stop  offset="0.1297" style="stop-color:#04B1DD"/>
					<stop  offset="0.5466" style="stop-color:#0E6BA7"/>
					<stop  offset="0.8476" style="stop-color:#154085"/>
					<stop  offset="1" style="stop-color:#172F78"/>
				</linearGradient>
				<path class="st54" d="M353.71,160.98L353.71,160.98l-0.01-17.49l-22.1,2.95l-16.55-9.56c-2.9-1.68-7.61-1.68-10.51,0l-2.58,1.64
					l-35.88,4.79v17.7c0,0.01,0,0.02,0,0.03v0.08l0.01,0c0.04,1.07,0.75,2.13,2.16,2.94l36.48,21.06c2.9,1.68,7.61,1.68,10.51,0
					l36.29-21.1c1.4-0.81,2.11-1.87,2.16-2.93l0.02,0V160.98z"/>
				<radialGradient id="SVGID_40_" cx="249.8502" cy="114.6665" r="138.0007" gradientUnits="userSpaceOnUse">
					<stop  offset="0" style="stop-color:#01C8EF"/>
					<stop  offset="0.1396" style="stop-color:#03BAE4"/>
					<stop  offset="0.4033" style="stop-color:#0895C8"/>
					<stop  offset="0.76" style="stop-color:#115A9A"/>
					<stop  offset="1" style="stop-color:#172F78"/>
				</radialGradient>
				<path class="st55" d="M351.53,140.33l-36.48-21.06c-2.9-1.68-7.61-1.68-10.51,0l-36.29,21.1c-2.9,1.68-2.9,4.39,0,6.07
					l36.48,21.06c2.9,1.68,7.61,1.68,10.51,0l36.29-21.1C354.43,144.72,354.43,142.01,351.53,140.33z"/>
				<path class="st32" d="M334.15,141.6l-21.26-12.27c-1.69-0.98-4.43-0.98-6.13,0l-21.14,12.29c-1.69,0.98-1.69,2.56,0,3.54
					l21.26,12.27c1.69,0.98,4.43,0.98,6.13,0l21.14-12.29C335.85,144.16,335.85,142.58,334.15,141.6z"/>
				<path class="st31" d="M351.53,145.34l-36.29,21.1c-2.9,1.68-7.61,1.68-10.51,0l-36.48-21.06c-1.22-0.7-1.92-1.59-2.11-2.5
					c-0.27,1.27,0.43,2.59,2.11,3.56l36.48,21.06c2.9,1.68,7.61,1.68,10.51,0l36.29-21.1c1.69-0.97,2.39-2.3,2.11-3.56
					C353.45,143.75,352.75,144.64,351.53,145.34z"/>
				<g>
					<polygon class="st31" points="320.15,172.17 318.42,173.16 318.42,171.17 320.15,170.17 					"/>
					<polygon class="st31" points="323.76,170.08 322.03,171.08 322.03,169.08 323.76,168.09 					"/>
					<polygon class="st31" points="327.37,168 325.65,168.99 325.65,167 327.37,166 					"/>
					<polygon class="st31" points="324.42,173.74 322.69,174.74 322.69,172.74 324.42,171.75 					"/>
					<polygon class="st31" points="327.6,171.9 325.87,172.9 325.87,170.91 327.6,169.91 					"/>
					<polygon class="st31" points="338.96,161.3 337.24,162.3 337.24,160.31 338.96,159.31 					"/>
					<polygon class="st31" points="348.92,155.56 347.19,156.56 347.19,154.56 348.92,153.56 					"/>
					<polygon class="st31" points="330.99,165.91 329.26,166.91 329.26,164.91 330.99,163.92 					"/>
				</g>
			</g>
			<g>
				<linearGradient id="SVGID_41_" gradientUnits="userSpaceOnUse" x1="260.8078" y1="128.1916" x2="322.6028" y2="128.1916">
					<stop  offset="0" style="stop-color:#01C8EF"/>
					<stop  offset="0.1297" style="stop-color:#04B1DD"/>
					<stop  offset="0.5466" style="stop-color:#0E6BA7"/>
					<stop  offset="0.8476" style="stop-color:#154085"/>
					<stop  offset="1" style="stop-color:#172F78"/>
				</linearGradient>
				<path class="st56" d="M353.71,128.17L353.71,128.17l-0.01-17.49l-22.1,2.95l-16.55-9.56c-2.9-1.68-7.61-1.68-10.51,0l-2.58,1.64
					l-35.88,4.79v17.7c0,0.01,0,0.02,0,0.03v0.08l0.01,0c0.04,1.07,0.75,2.13,2.16,2.94l36.48,21.06c2.9,1.68,7.61,1.68,10.51,0
					l36.29-21.1c1.4-0.81,2.11-1.87,2.16-2.93l0.02,0V128.17z"/>
				<radialGradient id="SVGID_42_" cx="249.8502" cy="81.854" r="138.0007" gradientUnits="userSpaceOnUse">
					<stop  offset="0" style="stop-color:#01C8EF"/>
					<stop  offset="0.1396" style="stop-color:#03BAE4"/>
					<stop  offset="0.4033" style="stop-color:#0895C8"/>
					<stop  offset="0.76" style="stop-color:#115A9A"/>
					<stop  offset="1" style="stop-color:#172F78"/>
				</radialGradient>
				<path class="st57" d="M351.53,107.52l-36.48-21.06c-2.9-1.68-7.61-1.68-10.51,0l-36.29,21.1c-2.9,1.68-2.9,4.39,0,6.07
					l36.48,21.06c2.9,1.68,7.61,1.68,10.51,0l36.29-21.1C354.43,111.91,354.43,109.19,351.53,107.52z"/>
				<path class="st31" d="M351.53,112.53l-36.29,21.1c-2.9,1.68-7.61,1.68-10.51,0l-36.48-21.06c-1.22-0.7-1.92-1.59-2.11-2.5
					c-0.27,1.27,0.43,2.59,2.11,3.56l36.48,21.06c2.9,1.68,7.61,1.68,10.51,0l36.29-21.1c1.69-0.97,2.39-2.3,2.11-3.56
					C353.45,110.94,352.75,111.82,351.53,112.53z"/>
				<g>
					<polygon class="st31" points="320.15,139.35 318.42,140.35 318.42,138.36 320.15,137.36 					"/>
					<polygon class="st31" points="323.76,137.27 322.03,138.27 322.03,136.27 323.76,135.27 					"/>
					<polygon class="st31" points="327.37,135.18 325.65,136.18 325.65,134.19 327.37,133.19 					"/>
					<polygon class="st31" points="324.42,140.93 322.69,141.93 322.69,139.93 324.42,138.93 					"/>
					<polygon class="st31" points="327.6,139.09 325.87,140.09 325.87,138.1 327.6,137.1 					"/>
					<polygon class="st31" points="338.96,128.49 337.24,129.49 337.24,127.49 338.96,126.5 					"/>
					<polygon class="st31" points="348.92,122.75 347.19,123.74 347.19,121.75 348.92,120.75 					"/>
					<polygon class="st31" points="330.99,133.1 329.26,134.09 329.26,132.1 330.99,131.1 					"/>
				</g>
			</g>
		</g>
	</g>
	<g>
		
			<rect x="427.98" y="164.07" transform="matrix(0.5 -0.866 0.866 0.5 40.6694 471.0833)" class="st25" width="0.68" height="72.51"/>
		<path class="st25" d="M486.19,203.36l-20.06-11.58c-1.83-1.06-4.26-1.75-6.83-1.95l-21.53-1.69c-2.67-0.21-5.2-0.93-7.12-2.04
			l-20.06-11.58l0.34-0.59l20.07,11.58c1.83,1.06,4.25,1.75,6.83,1.95l21.53,1.69c2.67,0.21,5.2,0.94,7.12,2.04l20.06,11.58
			L486.19,203.36z"/>
		<path class="st25" d="M432.9,234.13l-20.06-11.58c-1.95-1.13-3.24-2.64-3.62-4.24l-2.93-12.43c-0.34-1.42-1.51-2.78-3.3-3.81
			l-20.06-11.58l0.34-0.59l20.06,11.58c1.96,1.13,3.24,2.64,3.62,4.24l2.93,12.43c0.34,1.42,1.51,2.78,3.3,3.81l20.06,11.58
			L432.9,234.13z"/>
		<path class="st25" d="M446.22,226.43l-21.38-12.35c-1.09-0.63-1.96-1.36-2.6-2.18l-8.61-11.08c-0.58-0.75-1.39-1.42-2.4-2.01
			l-21.38-12.35l0.34-0.59l21.38,12.35c1.09,0.63,1.96,1.36,2.6,2.18l8.61,11.08c0.58,0.75,1.39,1.42,2.4,2.01l21.38,12.35
			L446.22,226.43z"/>
		<path class="st25" d="M472.87,211.05l-21.39-12.35c-1.02-0.59-2.21-1.06-3.54-1.41l-19.18-4.97c-1.38-0.36-2.63-0.86-3.71-1.48
			l-21.38-12.35l0.34-0.59l21.39,12.35c1.02,0.59,2.22,1.07,3.54,1.41l19.18,4.97c1.39,0.36,2.63,0.86,3.71,1.48l21.39,12.35
			L472.87,211.05z"/>
	</g>
	<g>
		<rect x="522.19" y="260.63" transform="matrix(0.5 -0.866 0.866 0.5 4.1514 600.952)" class="st25" width="0.68" height="72.51"/>
		<path class="st25" d="M580.4,299.92l-20.06-11.58c-1.83-1.06-4.26-1.75-6.83-1.95l-21.53-1.69c-2.67-0.21-5.2-0.93-7.12-2.04
			l-20.06-11.58l0.34-0.59l20.07,11.58c1.83,1.06,4.25,1.75,6.83,1.95l21.53,1.69c2.67,0.21,5.2,0.94,7.12,2.04l20.06,11.58
			L580.4,299.92z"/>
		<path class="st25" d="M527.11,330.69l-20.06-11.58c-1.95-1.13-3.24-2.64-3.62-4.24l-2.93-12.43c-0.34-1.42-1.51-2.78-3.3-3.81
			l-20.06-11.58l0.34-0.59l20.06,11.58c1.96,1.13,3.24,2.64,3.62,4.24l2.93,12.43c0.34,1.42,1.51,2.78,3.3,3.81l20.06,11.58
			L527.11,330.69z"/>
		<path class="st25" d="M540.44,322.99l-21.38-12.35c-1.09-0.63-1.96-1.36-2.6-2.18l-8.61-11.08c-0.58-0.75-1.39-1.42-2.4-2.01
			l-21.38-12.35l0.34-0.59l21.38,12.35c1.09,0.63,1.96,1.36,2.6,2.18l8.61,11.08c0.58,0.75,1.39,1.42,2.4,2.01l21.38,12.35
			L540.44,322.99z"/>
		<path class="st25" d="M567.08,307.61l-21.39-12.35c-1.02-0.59-2.21-1.06-3.54-1.41l-19.18-4.97c-1.38-0.36-2.63-0.86-3.71-1.48
			l-21.38-12.35l0.34-0.59l21.39,12.35c1.02,0.59,2.22,1.07,3.54,1.41l19.18,4.97c1.39,0.36,2.63,0.86,3.71,1.48l21.39,12.35
			L567.08,307.61z"/>
	</g>
	<g>
		
			<rect x="138.67" y="192.28" transform="matrix(0.8664 -0.4994 0.4994 0.8664 -72.6627 113.6959)" class="st25" width="74.89" height="0.68"/>
		
			<rect x="147.94" y="197.64" transform="matrix(0.8664 -0.4994 0.4994 0.8664 -74.0974 119.0436)" class="st25" width="74.89" height="0.68"/>
		
			<rect x="157.22" y="202.99" transform="matrix(0.8664 -0.4994 0.4994 0.8664 -75.5321 124.391)" class="st25" width="74.89" height="0.68"/>
		
			<rect x="166.49" y="208.34" transform="matrix(0.8664 -0.4994 0.4994 0.8664 -76.967 129.7387)" class="st25" width="74.89" height="0.68"/>
	</g>
	<g>
		
			<rect x="361.22" y="287.18" transform="matrix(0.8664 -0.4994 0.4994 0.8664 -90.3142 237.5261)" class="st25" width="74.89" height="0.68"/>
		
			<rect x="370.5" y="292.53" transform="matrix(0.8664 -0.4994 0.4994 0.8664 -91.7488 242.8738)" class="st25" width="74.89" height="0.68"/>
		
			<rect x="379.77" y="297.89" transform="matrix(0.8664 -0.4994 0.4994 0.8664 -93.1835 248.2212)" class="st25" width="74.89" height="0.68"/>
		
			<rect x="389.04" y="303.24" transform="matrix(0.8664 -0.4994 0.4994 0.8664 -94.6184 253.5689)" class="st25" width="74.89" height="0.68"/>
	</g>
	<g>
		
			<rect x="57.71" y="284.5" transform="matrix(0.8664 -0.4994 0.4994 0.8664 -129.5385 85.5873)" class="st25" width="74.89" height="0.68"/>
		
			<rect x="66.98" y="289.85" transform="matrix(0.8664 -0.4994 0.4994 0.8664 -130.9732 90.9349)" class="st25" width="74.89" height="0.68"/>
		
			<rect x="76.26" y="295.21" transform="matrix(0.8664 -0.4994 0.4994 0.8664 -132.4079 96.2823)" class="st25" width="74.89" height="0.68"/>
		
			<rect x="85.53" y="300.56" transform="matrix(0.8664 -0.4994 0.4994 0.8664 -133.8428 101.63)" class="st25" width="74.89" height="0.68"/>
	</g>
</g>
<g class="st1">
	<g class="st2">
		<path class="st22" d="M308.91,212.96c13.7-3.97,29.91-6.21,47.2-6.07c2.28,0.02,4.54,0.08,6.78,0.18
			c15.19,1.39,20.59,17.43,11.43,24.45c-4.2,3.22-9.27,3.19-11.43,3.17c-2.24-0.1-4.5-0.16-6.78-0.18c-17.3-0.14-33.5,2.1-47.2,6.07
			c-13.83,3.37-14.65-10.69-9.81-19.29C300.72,218.4,303.74,214.6,308.91,212.96L308.91,212.96z"/>
		<path class="st25" d="M305.02,241.38c-3.66,0-5.74-1.57-6.89-3.09c-3.33-4.39-2.12-12.11,0.71-17.14
			c1.65-2.94,4.73-6.79,9.98-8.47l0.01,0c14.19-4.12,30.56-6.24,47.29-6.08c2.25,0.02,4.54,0.08,6.79,0.18
			c7.64,0.7,13.77,5.35,15.65,11.85c1.46,5.06-0.09,10.09-4.05,13.13c-4.28,3.28-9.41,3.25-11.62,3.23
			c-2.24-0.1-4.52-0.16-6.78-0.18c-16.71-0.13-32.99,1.96-47.12,6.06C307.49,241.22,306.18,241.38,305.02,241.38z M308.99,213.24
			c-5.07,1.62-8.04,5.35-9.64,8.19c-2.74,4.87-3.93,12.3-0.76,16.5c2.03,2.68,5.57,3.49,10.24,2.36
			c14.17-4.11,30.55-6.22,47.28-6.08c2.27,0.02,4.55,0.08,6.79,0.18c2.13,0.01,7.12,0.05,11.24-3.11c3.76-2.89,5.24-7.67,3.84-12.49
			c-1.81-6.27-7.75-10.75-15.13-11.42c-2.23-0.1-4.51-0.16-6.75-0.18C339.4,207.05,323.13,209.14,308.99,213.24z"/>
	</g>
	<g class="st2">
		<path class="st25" d="M353.81,347.8c-1.79,0-3.59-0.39-4.95-1.18l-33.3-19.23c-1.38-0.8-2.14-1.88-2.14-3.04
			c0-1.16,0.76-2.24,2.14-3.04l33.13-19.26c2.73-1.58,7.17-1.58,9.91,0l33.3,19.23c1.38,0.8,2.14,1.88,2.14,3.04
			c0,1.16-0.76,2.24-2.14,3.04l-33.13,19.26C357.4,347.41,355.61,347.8,353.81,347.8z M353.64,301.48c-1.68,0-3.36,0.37-4.64,1.11
			l-33.13,19.26c-1.18,0.68-1.83,1.57-1.83,2.5c0,0.93,0.65,1.82,1.83,2.5l33.3,19.23c2.56,1.48,6.73,1.48,9.29,0l33.13-19.26
			c1.18-0.68,1.83-1.57,1.83-2.5c0-0.93-0.65-1.82-1.83-2.5l-33.3-19.23C357,301.85,355.32,301.48,353.64,301.48z"/>
		<g>
			<linearGradient id="SVGID_43_" gradientUnits="userSpaceOnUse" x1="309.0778" y1="313.824" x2="365.4943" y2="313.824">
				<stop  offset="0" style="stop-color:#01C8EF"/>
				<stop  offset="0.1297" style="stop-color:#04B1DD"/>
				<stop  offset="0.5466" style="stop-color:#0E6BA7"/>
				<stop  offset="0.8476" style="stop-color:#154085"/>
				<stop  offset="1" style="stop-color:#172F78"/>
			</linearGradient>
			<path class="st58" d="M393.89,313.81L393.89,313.81l-0.01-15.97l-20.18,2.69l-15.11-8.72c-2.65-1.53-6.95-1.53-9.6,0l-2.35,1.5
				l-32.76,4.37v16.15c0,0.01,0,0.02,0,0.03v0.08l0.01,0c0.04,0.97,0.69,1.94,1.97,2.68l33.3,19.23c2.65,1.53,6.95,1.53,9.6,0
				l33.13-19.26c1.28-0.74,1.93-1.7,1.97-2.67l0.02,0V313.81z"/>
			<radialGradient id="SVGID_44_" cx="299.0739" cy="271.5195" r="125.9894" gradientUnits="userSpaceOnUse">
				<stop  offset="0" style="stop-color:#01C8EF"/>
				<stop  offset="0.1396" style="stop-color:#03BAE4"/>
				<stop  offset="0.4033" style="stop-color:#0895C8"/>
				<stop  offset="0.76" style="stop-color:#115A9A"/>
				<stop  offset="1" style="stop-color:#172F78"/>
			</radialGradient>
			<path class="st59" d="M391.9,294.95l-33.3-19.23c-2.65-1.53-6.95-1.53-9.6,0l-33.13,19.26c-2.65,1.53-2.65,4.01,0,5.54
				l33.3,19.23c2.65,1.53,6.95,1.53,9.6,0l33.13-19.26C394.55,298.96,394.55,296.48,391.9,294.95z"/>
			<path class="st31" d="M391.9,299.52l-33.13,19.26c-2.65,1.53-6.95,1.53-9.6,0l-33.3-19.23c-1.11-0.64-1.75-1.45-1.93-2.29
				c-0.25,1.16,0.39,2.37,1.93,3.25l33.3,19.23c2.65,1.53,6.95,1.53,9.6,0l33.13-19.26c1.54-0.89,2.18-2.1,1.93-3.25
				C393.65,298.07,393.02,298.88,391.9,299.52z"/>
			<g>
				<polygon class="st31" points="363.25,324.02 361.68,324.93 361.68,323.11 363.25,322.19 				"/>
				<polygon class="st31" points="366.55,322.11 364.98,323.02 364.98,321.2 366.55,320.29 				"/>
				<polygon class="st31" points="369.85,320.21 368.27,321.12 368.27,319.3 369.85,318.39 				"/>
				<polygon class="st31" points="367.15,325.45 365.58,326.36 365.58,324.54 367.15,323.63 				"/>
				<polygon class="st31" points="370.06,323.78 368.48,324.69 368.48,322.87 370.06,321.96 				"/>
				<polygon class="st31" points="380.43,314.1 378.85,315.01 378.85,313.19 380.43,312.28 				"/>
				<polygon class="st31" points="389.52,308.85 387.94,309.76 387.94,307.94 389.52,307.03 				"/>
				<polygon class="st31" points="373.15,318.3 371.57,319.21 371.57,317.39 373.15,316.48 				"/>
			</g>
		</g>
		<path class="st32" d="M352.01,311.63l-22.41-12.94c-0.91-0.53-0.8-1.44,0.26-2.05l21.9-12.64c1.05-0.61,2.64-0.67,3.55-0.15
			l22.41,12.94c0.91,0.53,0.8,1.44-0.26,2.05l-21.9,12.64C354.51,312.09,352.92,312.16,352.01,311.63z"/>
		<path class="st31" d="M343.19,325.63l-18.49-10.68c-0.44-0.25-0.8-0.94-0.8-1.53v-1.37c0-0.59,0.36-0.86,0.8-0.6l18.49,10.68
			c0.44,0.25,0.8,0.94,0.8,1.53v1.37C343.99,325.62,343.63,325.89,343.19,325.63z"/>
		<g>
			<linearGradient id="SVGID_45_" gradientUnits="userSpaceOnUse" x1="309.0778" y1="283.8675" x2="365.4943" y2="283.8675">
				<stop  offset="0" style="stop-color:#01C8EF"/>
				<stop  offset="0.1297" style="stop-color:#04B1DD"/>
				<stop  offset="0.5466" style="stop-color:#0E6BA7"/>
				<stop  offset="0.8476" style="stop-color:#154085"/>
				<stop  offset="1" style="stop-color:#172F78"/>
			</linearGradient>
			<path class="st60" d="M393.89,283.85L393.89,283.85l-0.01-15.97l-20.18,2.69l-15.11-8.72c-2.65-1.53-6.95-1.53-9.6,0l-2.35,1.5
				l-32.76,4.37v16.15c0,0.01,0,0.02,0,0.03v0.08l0.01,0c0.04,0.97,0.69,1.94,1.97,2.68l33.3,19.23c2.65,1.53,6.95,1.53,9.6,0
				l33.13-19.26c1.28-0.74,1.93-1.7,1.97-2.67l0.02,0V283.85z"/>
			<radialGradient id="SVGID_46_" cx="299.0739" cy="241.563" r="125.9894" gradientUnits="userSpaceOnUse">
				<stop  offset="0" style="stop-color:#01C8EF"/>
				<stop  offset="0.1396" style="stop-color:#03BAE4"/>
				<stop  offset="0.4033" style="stop-color:#0895C8"/>
				<stop  offset="0.76" style="stop-color:#115A9A"/>
				<stop  offset="1" style="stop-color:#172F78"/>
			</radialGradient>
			<path class="st61" d="M391.9,264.99l-33.3-19.23c-2.65-1.53-6.95-1.53-9.6,0l-33.13,19.26c-2.65,1.53-2.65,4.01,0,5.54
				l33.3,19.23c2.65,1.53,6.95,1.53,9.6,0l33.13-19.26C394.55,269,394.55,266.52,391.9,264.99z"/>
			<path class="st32" d="M376.04,266.16l-19.41-11.2c-1.54-0.89-4.05-0.89-5.59,0l-19.3,11.22c-1.54,0.89-1.54,2.34,0,3.23
				l19.41,11.2c1.54,0.89,4.05,0.89,5.59,0l19.3-11.22C377.58,268.49,377.58,267.05,376.04,266.16z"/>
			<path class="st31" d="M391.9,269.57l-33.13,19.26c-2.65,1.53-6.95,1.53-9.6,0l-33.3-19.23c-1.11-0.64-1.75-1.45-1.93-2.29
				c-0.25,1.16,0.39,2.37,1.93,3.25l33.3,19.23c2.65,1.53,6.95,1.53,9.6,0l33.13-19.26c1.54-0.89,2.18-2.1,1.93-3.25
				C393.65,268.11,393.02,268.92,391.9,269.57z"/>
			<g>
				<polygon class="st31" points="363.25,294.06 361.68,294.97 361.68,293.15 363.25,292.24 				"/>
				<polygon class="st31" points="366.55,292.15 364.98,293.06 364.98,291.24 366.55,290.33 				"/>
				<polygon class="st31" points="369.85,290.25 368.27,291.16 368.27,289.34 369.85,288.43 				"/>
				<polygon class="st31" points="367.15,295.5 365.58,296.41 365.58,294.59 367.15,293.68 				"/>
				<polygon class="st31" points="370.06,293.82 368.48,294.73 368.48,292.91 370.06,292 				"/>
				<polygon class="st31" points="380.43,284.14 378.85,285.05 378.85,283.23 380.43,282.32 				"/>
				<polygon class="st31" points="389.52,278.9 387.94,279.81 387.94,277.99 389.52,277.08 				"/>
				<polygon class="st31" points="373.15,288.35 371.57,289.26 371.57,287.44 373.15,286.53 				"/>
			</g>
		</g>
		<g>
			<linearGradient id="SVGID_47_" gradientUnits="userSpaceOnUse" x1="309.0778" y1="253.9109" x2="365.4943" y2="253.9109">
				<stop  offset="0" style="stop-color:#01C8EF"/>
				<stop  offset="0.1297" style="stop-color:#04B1DD"/>
				<stop  offset="0.5466" style="stop-color:#0E6BA7"/>
				<stop  offset="0.8476" style="stop-color:#154085"/>
				<stop  offset="1" style="stop-color:#172F78"/>
			</linearGradient>
			<path class="st62" d="M393.89,253.89L393.89,253.89l-0.01-15.97l-20.18,2.69l-15.11-8.72c-2.65-1.53-6.95-1.53-9.6,0l-2.35,1.5
				l-32.76,4.37v16.15c0,0.01,0,0.02,0,0.03v0.08l0.01,0c0.04,0.97,0.69,1.94,1.97,2.68l33.3,19.23c2.65,1.53,6.95,1.53,9.6,0
				l33.13-19.26c1.28-0.74,1.93-1.7,1.97-2.67l0.02,0V253.89z"/>
			<radialGradient id="SVGID_48_" cx="299.0739" cy="211.6064" r="125.9894" gradientUnits="userSpaceOnUse">
				<stop  offset="0" style="stop-color:#01C8EF"/>
				<stop  offset="0.1396" style="stop-color:#03BAE4"/>
				<stop  offset="0.4033" style="stop-color:#0895C8"/>
				<stop  offset="0.76" style="stop-color:#115A9A"/>
				<stop  offset="1" style="stop-color:#172F78"/>
			</radialGradient>
			<path class="st63" d="M391.9,235.04l-33.3-19.23c-2.65-1.53-6.95-1.53-9.6,0l-33.13,19.26c-2.65,1.53-2.65,4.01,0,5.54
				l33.3,19.23c2.65,1.53,6.95,1.53,9.6,0l33.13-19.26C394.55,239.05,394.55,236.57,391.9,235.04z"/>
			<radialGradient id="SVGID_49_" cx="310.1914" cy="219.1983" r="86.6221" gradientUnits="userSpaceOnUse">
				<stop  offset="0" style="stop-color:#F9636B"/>
				<stop  offset="1" style="stop-color:#B6246E"/>
			</radialGradient>
			<path class="st64" d="M391.9,235.04l-33.3-19.23c-2.65-1.53-6.95-1.53-9.6,0l-33.13,19.26c-2.65,1.53-2.65,4.01,0,5.54
				l33.3,19.23c2.65,1.53,6.95,1.53,9.6,0l33.13-19.26C394.55,239.05,394.55,236.57,391.9,235.04z"/>
			<path class="st44" d="M353.95,253.61c-1.22,0-2.44-0.27-3.4-0.82l-22.07-12.74c-0.99-0.57-1.53-1.36-1.53-2.21
				c0-0.85,0.54-1.64,1.53-2.21l21.95-12.76c1.91-1.1,4.89-1.1,6.79,0l22.07,12.74c0.99,0.57,1.53,1.36,1.53,2.21
				c0,0.85-0.54,1.64-1.53,2.21l-21.95,12.76C356.39,253.34,355.17,253.61,353.95,253.61z M353.83,222.9
				c-1.07,0-2.15,0.24-2.96,0.71l-21.95,12.76c-0.71,0.41-1.1,0.93-1.1,1.46c0,0.53,0.39,1.05,1.1,1.46l22.07,12.74
				c1.63,0.94,4.29,0.94,5.93,0l21.95-12.76c0.71-0.41,1.1-0.93,1.1-1.46c0-0.53-0.39-1.05-1.1-1.46l-22.07-12.74
				C355.98,223.14,354.9,222.9,353.83,222.9z"/>
			<path class="st31" d="M391.9,239.61l-33.13,19.26c-2.65,1.53-6.95,1.53-9.6,0l-33.3-19.23c-1.11-0.64-1.75-1.45-1.93-2.29
				c-0.25,1.16,0.39,2.37,1.93,3.25l33.3,19.23c2.65,1.53,6.95,1.53,9.6,0l33.13-19.26c1.54-0.89,2.18-2.1,1.93-3.25
				C393.65,238.16,393.02,238.97,391.9,239.61z"/>
			<g>
				<polygon class="st31" points="363.25,264.1 361.68,265.01 361.68,263.19 363.25,262.28 				"/>
				<polygon class="st31" points="366.55,262.2 364.98,263.11 364.98,261.29 366.55,260.38 				"/>
				<polygon class="st31" points="369.85,260.29 368.27,261.2 368.27,259.38 369.85,258.47 				"/>
				<polygon class="st31" points="367.15,265.54 365.58,266.45 365.58,264.63 367.15,263.72 				"/>
				<polygon class="st31" points="370.06,263.86 368.48,264.77 368.48,262.95 370.06,262.04 				"/>
				<polygon class="st31" points="380.43,254.19 378.85,255.1 378.85,253.27 380.43,252.36 				"/>
				<polygon class="st31" points="389.52,248.94 387.94,249.85 387.94,248.03 389.52,247.12 				"/>
				<polygon class="st31" points="373.15,258.39 371.57,259.3 371.57,257.48 373.15,256.57 				"/>
			</g>
		</g>
	</g>
	<g class="st2">
		<path class="st22" d="M359.67,298.33c-2.18,0.06-4.38,0.08-6.6,0.06c-17.36-0.14-33.45-2.66-46.88-6.89
			c-13.41-3.58-14.22,10.45-9.54,19.12c3.33,6.17,7.84,7.86,9.54,8.5c13.43,4.23,29.52,6.75,46.88,6.89c2.22,0.02,4.42,0,6.6-0.06
			c15.76-1.16,19.89-16.3,12.52-23.36C370.14,300.62,366.3,298.28,359.67,298.33L359.67,298.33z"/>
		<g>
			<g class="st65">
				<path class="st25" d="M441.27,281.13l-0.24-0.48c-0.22-0.44-0.48-1.07-0.79-1.92c-2.93-8.55-11.49-16.31-24.75-22.44
					c-9.22-5.24-11.45-12.81-11.99-15.82l0,0c-0.63-3.55,0.08-8.59,3.14-11.25c2.24-1.95,5.29-2.32,9.06-1.1
					c13.45,6.21,22.12,14.08,25.09,22.79c0.63,2.46,1.12,4.38,1.12,13.06v14.73c0,1.29,0,1.37-0.37,1.97L441.27,281.13z
					 M404.09,240.38c0.52,2.93,2.69,10.29,11.67,15.39c13.39,6.18,22.06,14.06,25.04,22.76c0.18,0.5,0.35,0.92,0.5,1.26
					c0.03-0.21,0.03-0.51,0.03-1.1v-14.72c-0.01-8.61-0.49-10.5-1.09-12.89c-2.92-8.53-11.48-16.28-24.74-22.41
					c-3.53-1.14-6.39-0.81-8.46,1C404.15,232.18,403.48,236.98,404.09,240.38L404.09,240.38z"/>
				<path class="st25" d="M267.86,285.2l-0.59-0.03v-27.62c0-0.25,0-0.49,0.01-0.74c0.17-4.58,1.91-9.05,5.18-13.31l0.13-0.13
					c0.63-0.62,1.49-1.47,2.38-1.6c1.19-0.17,2.25,0.43,3.06,1.73c2.72,4.35,2.47,16.81-5.08,27.96
					C268.52,277.45,268.23,280.87,267.86,285.2z M275.34,242.34c-0.1,0-0.2,0.01-0.3,0.02c-0.7,0.1-1.47,0.87-2.04,1.43l-0.1,0.1
					c-3.16,4.13-4.87,8.49-5.03,12.94c-0.01,0.24-0.01,0.48-0.01,0.72v22.97c0.57-2.68,1.73-5.51,4.6-9.39
					c7.41-10.94,7.7-23.09,5.06-27.3C277.08,243.13,276.37,242.34,275.34,242.34z"/>
			</g>
			<g>
				<g>
					<path class="st25" d="M274.15,299.57c-0.73,0-1.68-0.39-2.73-1.82c-3.59-4.91-3.94-9.7-4.15-12.56l0-27.64h0.59
						c0,4.17,1.36,8.29,4.04,12.24c5.89,9.74,6.59,19.36,6.07,23.51l0,0c-0.42,3.4-1.69,5.78-3.31,6.2
						C274.51,299.54,274.34,299.57,274.15,299.57z M267.86,262.37v22.8c0.2,2.78,0.54,7.46,4.04,12.23
						c0.62,0.85,1.58,1.79,2.62,1.53c1.36-0.35,2.48-2.59,2.87-5.7c0.51-4.07-0.18-13.53-5.98-23.12
						C269.69,267.6,268.51,265.01,267.86,262.37z"/>
					<path class="st25" d="M354.6,326.31c-0.51,0-1.02,0-1.53-0.01c-16.82-0.14-33.06-2.52-46.97-6.9
						c-1.74-0.65-6.33-2.37-9.71-8.64c-2.8-5.18-3.93-13-0.54-17.3c1.49-1.89,4.52-3.82,10.42-2.24
						c13.87,4.36,30.05,6.74,46.81,6.88c2.19,0.02,4.41,0,6.59-0.06h0.01c0.08,0,0.15,0,0.23,0c6.59,0,10.43,2.35,12.5,4.34
						c3.44,3.3,4.54,8.56,2.81,13.4c-2.16,6-7.96,9.92-15.51,10.47C358,326.29,356.3,326.31,354.6,326.31z M302.25,291.23
						c-2.55,0-4.57,0.87-5.93,2.6c-3.24,4.1-2.11,11.65,0.59,16.66c3.28,6.08,7.72,7.74,9.39,8.36c13.84,4.36,30.02,6.73,46.78,6.87
						c2.2,0.02,4.41,0,6.59-0.06c7.3-0.54,12.9-4.31,14.98-10.08c1.66-4.61,0.62-9.63-2.66-12.77c-2.01-1.93-5.79-4.23-12.31-4.17
						c-2.19,0.06-4.41,0.08-6.61,0.06c-16.82-0.14-33.06-2.52-46.97-6.9C304.72,291.42,303.43,291.23,302.25,291.23z"/>
					<path class="st25" d="M409.47,316.22c-2.69,0-4.92-0.98-6.48-2.89c-3.02-3.68-3.09-10.37-0.17-15.9
						c3.29-6.23,8.4-8.95,10.32-9.97c13.76-5.9,22.93-13.51,26.53-22c0.4-0.85,0.75-1.49,1.04-1.92l0.07-0.11l0.67-0.09l0.08,0.23
						c0.24,0.67,0.34,0.95,0.37,4.26v8.5c-0.08,11.99-0.78,14.18-1.68,16.96c-3.67,8.66-12.94,16.38-26.83,22.33
						C412.01,316.01,410.69,316.22,409.47,316.22z M441.08,264.05c-0.25,0.4-0.54,0.95-0.87,1.64c-3.66,8.63-12.93,16.34-26.82,22.3
						c-1.86,0.99-6.85,3.65-10.06,9.72c-2.81,5.33-2.77,11.74,0.1,15.25c1.5,1.83,4.41,3.67,9.75,2.1
						c13.71-5.88,22.88-13.49,26.48-21.98c0.87-2.7,1.57-4.86,1.64-16.75v-8.5C441.29,265.15,441.23,264.53,441.08,264.05z"/>
				</g>
			</g>
		</g>
	</g>
</g>
<g class="st1">
	
		<radialGradient id="SVGID_50_" cx="161.8963" cy="404.0316" r="65.4945" gradientTransform="matrix(1 0 0 0.4826 0 117.9607)" gradientUnits="userSpaceOnUse">
		<stop  offset="0" style="stop-color:#F8359E"/>
		<stop  offset="0.0428" style="stop-color:#E63192"/>
		<stop  offset="0.1941" style="stop-color:#AA246C"/>
		<stop  offset="0.3446" style="stop-color:#76194B"/>
		<stop  offset="0.4909" style="stop-color:#4B1030"/>
		<stop  offset="0.6322" style="stop-color:#2B091B"/>
		<stop  offset="0.7669" style="stop-color:#13040C"/>
		<stop  offset="0.8926" style="stop-color:#050103"/>
		<stop  offset="1" style="stop-color:#000000"/>
	</radialGradient>
	<ellipse class="st66" cx="161.9" cy="312.95" rx="65.49" ry="31.61"/>
	<g class="st2">
		<g>
			<linearGradient id="SVGID_51_" gradientUnits="userSpaceOnUse" x1="133.3497" y1="312.1774" x2="191.8658" y2="312.1774">
				<stop  offset="0" style="stop-color:#B6246E"/>
				<stop  offset="1" style="stop-color:#F9636B"/>
			</linearGradient>
			<path class="st67" d="M183.54,320.51h-41.86c-4.6,0-8.33-3.73-8.33-8.33l0,0c0-4.6,3.73-8.33,8.33-8.33h41.86
				c4.6,0,8.33,3.73,8.33,8.33l0,0C191.87,316.78,188.14,320.51,183.54,320.51z"/>
		</g>
		<g>
			<path class="st25" d="M254.66,320.51H212.8c-4.6,0-8.33-3.73-8.33-8.33l0,0c0-4.6,3.73-8.33,8.33-8.33h41.86
				c4.6,0,8.33,3.73,8.33,8.33l0,0C262.99,316.78,259.26,320.51,254.66,320.51z"/>
		</g>
		<g>
			<path class="st31" d="M217.21,315.18v-5.85h0.82v5.27h1.49v0.59H217.21z"/>
			<path class="st31" d="M220.08,315.18v-5.85h2.27v0.6h-1.45v1.93h1.18v0.58h-1.18v2.15h1.47v0.59H220.08z"/>
			<path class="st31" d="M222.7,315.18l1.25-5.85h0.79l1.25,5.85h-0.78l-0.27-1.48h-1.19l-0.28,1.48H222.7z M223.86,313.12h0.98
				l-0.49-2.64L223.86,313.12z"/>
			<path class="st31" d="M226.58,315.18v-5.85h1.18c0.59,0,1.03,0.12,1.3,0.36c0.28,0.24,0.42,0.64,0.42,1.19
				c0,0.75-0.24,1.21-0.72,1.37l0.84,2.94h-0.79l-0.77-2.75h-0.63v2.75H226.58z M227.4,311.85h0.31c0.36,0,0.61-0.07,0.76-0.21
				c0.15-0.14,0.23-0.39,0.23-0.76c0-0.36-0.07-0.61-0.2-0.75c-0.13-0.14-0.38-0.21-0.74-0.21h-0.36V311.85z"/>
			<path class="st31" d="M230.33,315.18v-5.85h0.55l1.66,3.89v-3.89h0.68v5.85h-0.52l-1.69-4v4H230.33z"/>
			<path class="st31" d="M235.78,315.18l0.11-5.85h0.8l1.03,4.75l1.04-4.75h0.8l0.11,5.85h-0.66l-0.06-4.25l-0.99,4.25h-0.46
				l-0.99-4.25l-0.06,4.25H235.78z"/>
			<path class="st31" d="M242.06,315.24c-0.29,0-0.54-0.04-0.75-0.13c-0.21-0.09-0.37-0.21-0.5-0.38c-0.12-0.17-0.21-0.37-0.27-0.59
				c-0.06-0.23-0.08-0.49-0.08-0.79v-2.22c0-0.61,0.12-1.07,0.37-1.39c0.25-0.31,0.66-0.47,1.23-0.47c0.57,0,0.98,0.16,1.23,0.47
				c0.25,0.32,0.37,0.78,0.37,1.38v2.22c0,0.61-0.13,1.08-0.38,1.41C243.04,315.08,242.63,315.24,242.06,315.24z M241.67,314.53
				c0.1,0.05,0.24,0.07,0.4,0.07c0.16,0,0.29-0.03,0.4-0.07c0.1-0.05,0.18-0.13,0.24-0.23c0.05-0.1,0.09-0.21,0.11-0.33
				c0.02-0.12,0.03-0.27,0.03-0.45v-2.56c0-0.18-0.01-0.32-0.03-0.44c-0.02-0.12-0.06-0.23-0.11-0.33c-0.05-0.1-0.13-0.17-0.24-0.22
				c-0.1-0.05-0.24-0.07-0.4-0.07c-0.16,0-0.29,0.02-0.4,0.07c-0.11,0.05-0.18,0.12-0.24,0.22c-0.05,0.1-0.09,0.21-0.11,0.33
				c-0.02,0.12-0.03,0.26-0.03,0.44v2.56c0,0.18,0.01,0.33,0.03,0.45c0.02,0.12,0.06,0.23,0.11,0.33
				C241.48,314.4,241.56,314.48,241.67,314.53z"/>
			<path class="st31" d="M244.47,315.18v-5.85h1.18c0.59,0,1.03,0.12,1.3,0.36c0.28,0.24,0.41,0.64,0.41,1.19
				c0,0.75-0.24,1.21-0.72,1.37l0.84,2.94h-0.79l-0.77-2.75h-0.63v2.75H244.47z M245.29,311.85h0.31c0.36,0,0.61-0.07,0.76-0.21
				c0.15-0.14,0.23-0.39,0.23-0.76c0-0.36-0.07-0.61-0.2-0.75c-0.13-0.14-0.38-0.21-0.74-0.21h-0.36V311.85z"/>
			<path class="st31" d="M248.22,315.18v-5.85h2.27v0.6h-1.45v1.93h1.18v0.58h-1.18v2.15h1.47v0.59H248.22z"/>
		</g>
		<g>
			<path class="st31" d="M148.12,315.18v-5.25h-1.07v-0.6h2.92v0.6h-1.03v5.25H148.12z"/>
			<path class="st31" d="M150.42,315.18v-5.85h1.18c0.59,0,1.03,0.12,1.3,0.36c0.28,0.24,0.41,0.64,0.41,1.19
				c0,0.75-0.24,1.21-0.72,1.37l0.84,2.94h-0.79l-0.77-2.75h-0.63v2.75H150.42z M151.23,311.85h0.31c0.36,0,0.61-0.07,0.76-0.21
				c0.15-0.14,0.23-0.39,0.23-0.76c0-0.36-0.07-0.61-0.2-0.75c-0.13-0.14-0.38-0.21-0.74-0.21h-0.36V311.85z"/>
			<path class="st31" d="M155.06,315.18v-2.07l-1.26-3.79h0.76l0.89,2.82l0.88-2.82h0.77l-1.26,3.79v2.07H155.06z"/>
			<path class="st31" d="M159.34,315.18v-5.85h0.8v5.85H159.34z"/>
			<path class="st31" d="M161.69,315.18v-5.25h-1.07v-0.6h2.92v0.6h-1.03v5.25H161.69z"/>
			<path class="st31" d="M165.64,315.18v-5.85h0.55l1.66,3.89v-3.89h0.68v5.85h-0.52l-1.69-4v4H165.64z"/>
			<path class="st31" d="M170.94,315.24c-0.29,0-0.54-0.04-0.75-0.13c-0.21-0.09-0.37-0.21-0.5-0.38c-0.12-0.17-0.21-0.37-0.27-0.59
				c-0.06-0.23-0.08-0.49-0.08-0.79v-2.22c0-0.61,0.12-1.07,0.37-1.39c0.25-0.31,0.66-0.47,1.23-0.47c0.57,0,0.98,0.16,1.22,0.47
				c0.25,0.32,0.37,0.78,0.37,1.38v2.22c0,0.61-0.13,1.08-0.38,1.41C171.91,315.08,171.51,315.24,170.94,315.24z M170.54,314.53
				c0.1,0.05,0.24,0.07,0.4,0.07c0.16,0,0.29-0.03,0.4-0.07c0.1-0.05,0.18-0.13,0.24-0.23c0.05-0.1,0.09-0.21,0.11-0.33
				c0.02-0.12,0.03-0.27,0.03-0.45v-2.56c0-0.18-0.01-0.32-0.03-0.44c-0.02-0.12-0.06-0.23-0.11-0.33c-0.05-0.1-0.13-0.17-0.24-0.22
				c-0.1-0.05-0.24-0.07-0.4-0.07c-0.16,0-0.29,0.02-0.4,0.07c-0.1,0.05-0.18,0.12-0.24,0.22c-0.05,0.1-0.09,0.21-0.11,0.33
				c-0.02,0.12-0.03,0.26-0.03,0.44v2.56c0,0.18,0.01,0.33,0.03,0.45s0.06,0.23,0.11,0.33C170.36,314.4,170.44,314.48,170.54,314.53
				z"/>
			<path class="st31" d="M174.1,315.18l-0.96-5.85h0.68l0.63,4.21l0.79-4.19h0.58l0.79,4.21l0.61-4.23h0.67l-0.94,5.85h-0.59
				l-0.82-4.33l-0.83,4.33H174.1z"/>
		</g>
	</g>
</g>
<g>
	<g>
		<path class="st22" d="M517.09,249.99l-36.95-21.33c-2.09-1.21-3.79-4.45-3.79-7.24v-69.98c0-2.79,1.7-4.07,3.79-2.86l36.95,21.33
			c2.09,1.21,3.79,4.45,3.79,7.24v69.98C520.88,249.92,519.18,251.2,517.09,249.99z"/>
		<path class="st25" d="M518.6,250.76c-0.53,0-1.09-0.17-1.66-0.5l-36.95-21.33c-2.17-1.26-3.94-4.62-3.94-7.51v-69.98
			c0-1.58,0.53-2.79,1.46-3.33c0.79-0.45,1.78-0.38,2.79,0.2l36.95,21.33c2.17,1.26,3.94,4.62,3.94,7.51v69.98
			c0,1.58-0.53,2.79-1.46,3.33C519.38,250.66,519,250.76,518.6,250.76z M517.24,249.72c0.81,0.47,1.58,0.54,2.17,0.2
			c0.73-0.42,1.15-1.44,1.15-2.79v-69.98c0-2.69-1.63-5.81-3.63-6.97l-36.95-21.33c-0.81-0.47-1.58-0.54-2.17-0.2
			c-0.73,0.42-1.15,1.44-1.15,2.79v69.98c0,2.69,1.63,5.81,3.63,6.97L517.24,249.72z"/>
	</g>
	<g>
		<path class="st22" d="M421.84,249.99l36.95-21.33c2.09-1.21,3.79-4.45,3.79-7.24v-69.98c0-2.79-1.7-4.07-3.79-2.86l-36.95,21.33
			c-2.09,1.21-3.79,4.45-3.79,7.24v69.98C418.06,249.92,419.75,251.2,421.84,249.99z"/>
		<path class="st25" d="M420.34,250.76c-0.4,0-0.79-0.1-1.13-0.3c-0.93-0.54-1.46-1.75-1.46-3.33v-69.98c0-2.88,1.77-6.25,3.94-7.51
			l36.95-21.33c1.01-0.58,2-0.66,2.79-0.2c0.93,0.54,1.46,1.75,1.46,3.33v69.98c0,2.88-1.77,6.25-3.94,7.51L422,250.26
			C421.43,250.59,420.86,250.76,420.34,250.76z M460.3,148.43c-0.42,0-0.88,0.14-1.35,0.41L422,170.17c-2,1.16-3.63,4.28-3.63,6.97
			v69.98c0,1.35,0.42,2.37,1.15,2.8c0.59,0.34,1.36,0.27,2.17-0.2l36.95-21.33c2-1.16,3.63-4.28,3.63-6.97v-69.98
			c0-1.35-0.42-2.37-1.16-2.79C460.87,148.5,460.6,148.43,460.3,148.43z"/>
	</g>
	<path class="st25" d="M468.5,289.9c-1.79,0-3.58-0.39-4.94-1.18l-33.24-19.19c-1.38-0.8-2.14-1.87-2.14-3.03
		c0-1.16,0.76-2.24,2.14-3.03l33.07-19.23c2.73-1.58,7.16-1.58,9.89,0l33.24,19.19c1.38,0.8,2.14,1.87,2.14,3.03
		c0,1.16-0.76,2.24-2.14,3.03l-33.07,19.23C472.09,289.51,470.29,289.9,468.5,289.9z M468.33,243.66c-1.68,0-3.36,0.37-4.63,1.11
		L430.63,264c-1.18,0.68-1.83,1.57-1.83,2.5c0,0.93,0.65,1.82,1.83,2.5l33.24,19.19c2.55,1.48,6.71,1.48,9.27,0l33.07-19.23
		c1.18-0.68,1.83-1.57,1.83-2.5c0-0.93-0.65-1.82-1.83-2.5l-33.24-19.19C471.68,244.03,470.01,243.66,468.33,243.66z"/>
	<g>
		<linearGradient id="SVGID_52_" gradientUnits="userSpaceOnUse" x1="423.852" y1="255.9857" x2="480.1614" y2="255.9857">
			<stop  offset="0" style="stop-color:#01C8EF"/>
			<stop  offset="0.1297" style="stop-color:#04B1DD"/>
			<stop  offset="0.5466" style="stop-color:#0E6BA7"/>
			<stop  offset="0.8476" style="stop-color:#154085"/>
			<stop  offset="1" style="stop-color:#172F78"/>
		</linearGradient>
		<path class="st68" d="M508.51,255.97L508.51,255.97l-0.01-15.94l-20.14,2.69l-15.08-8.71c-2.65-1.53-6.93-1.53-9.58,0l-2.35,1.49
			l-32.7,4.36v16.12c0,0.01,0,0.02,0,0.03v0.08l0.01,0c0.04,0.97,0.69,1.94,1.97,2.68l33.24,19.19c2.65,1.53,6.93,1.53,9.58,0
			l33.07-19.23c1.28-0.74,1.93-1.7,1.97-2.67l0.02,0V255.97z"/>
		<radialGradient id="SVGID_53_" cx="413.8671" cy="213.7615" r="125.7504" gradientUnits="userSpaceOnUse">
			<stop  offset="0" style="stop-color:#01C8EF"/>
			<stop  offset="0.1396" style="stop-color:#03BAE4"/>
			<stop  offset="0.4033" style="stop-color:#0895C8"/>
			<stop  offset="0.76" style="stop-color:#115A9A"/>
			<stop  offset="1" style="stop-color:#172F78"/>
		</radialGradient>
		<path class="st69" d="M506.52,237.15l-33.24-19.19c-2.65-1.53-6.93-1.53-9.58,0l-33.07,19.23c-2.65,1.53-2.65,4,0,5.53
			l33.24,19.19c2.65,1.53,6.93,1.53,9.58,0l33.07-19.23C509.17,241.15,509.17,238.67,506.52,237.15z"/>
		<path class="st31" d="M506.52,241.71l-33.07,19.23c-2.65,1.53-6.93,1.53-9.58,0l-33.24-19.19c-1.11-0.64-1.75-1.45-1.93-2.28
			c-0.25,1.16,0.39,2.36,1.93,3.25l33.24,19.19c2.65,1.53,6.93,1.53,9.58,0l33.07-19.23c1.54-0.89,2.17-2.09,1.93-3.25
			C508.27,240.26,507.63,241.07,506.52,241.71z"/>
		<g>
			<polygon class="st31" points="477.93,266.16 476.35,267.07 476.35,265.25 477.93,264.34 			"/>
			<polygon class="st31" points="481.22,264.26 479.64,265.17 479.64,263.35 481.22,262.44 			"/>
			<polygon class="st31" points="484.51,262.36 482.94,263.26 482.94,261.45 484.51,260.54 			"/>
			<polygon class="st31" points="481.82,267.59 480.24,268.5 480.24,266.68 481.82,265.78 			"/>
			<polygon class="st31" points="484.72,265.92 483.14,266.83 483.14,265.01 484.72,264.1 			"/>
			<polygon class="st31" points="495.07,256.26 493.5,257.17 493.5,255.35 495.07,254.44 			"/>
			<polygon class="st31" points="504.14,251.02 502.57,251.93 502.57,250.11 504.14,249.21 			"/>
			<polygon class="st31" points="487.8,260.46 486.23,261.36 486.23,259.55 487.8,258.64 			"/>
		</g>
	</g>
	<path class="st32" d="M466.7,253.8l-22.36-12.91c-0.91-0.52-0.8-1.44,0.25-2.05l21.85-12.62c1.05-0.61,2.64-0.67,3.55-0.15
		l22.36,12.91c0.91,0.52,0.8,1.44-0.25,2.05l-21.85,12.62C469.19,254.26,467.61,254.32,466.7,253.8z"/>
	<path class="st31" d="M457.9,267.77l-18.45-10.65c-0.44-0.25-0.8-0.94-0.8-1.52v-1.37c0-0.59,0.36-0.86,0.8-0.6l18.45,10.65
		c0.44,0.25,0.8,0.94,0.8,1.52v1.37C458.7,267.76,458.34,268.03,457.9,267.77z"/>
	<g>
		<linearGradient id="SVGID_54_" gradientUnits="userSpaceOnUse" x1="423.852" y1="226.086" x2="480.1614" y2="226.086">
			<stop  offset="0" style="stop-color:#01C8EF"/>
			<stop  offset="0.1297" style="stop-color:#04B1DD"/>
			<stop  offset="0.5466" style="stop-color:#0E6BA7"/>
			<stop  offset="0.8476" style="stop-color:#154085"/>
			<stop  offset="1" style="stop-color:#172F78"/>
		</linearGradient>
		<path class="st70" d="M508.51,226.07L508.51,226.07l-0.01-15.94l-20.14,2.69l-15.08-8.71c-2.65-1.53-6.93-1.53-9.58,0l-2.35,1.49
			l-32.7,4.36v16.12c0,0.01,0,0.02,0,0.03v0.08l0.01,0c0.04,0.97,0.69,1.94,1.97,2.68l33.24,19.19c2.65,1.53,6.93,1.53,9.58,0
			l33.07-19.23c1.28-0.74,1.93-1.7,1.97-2.67l0.02,0V226.07z"/>
		<radialGradient id="SVGID_55_" cx="413.8671" cy="183.8618" r="125.7504" gradientUnits="userSpaceOnUse">
			<stop  offset="0" style="stop-color:#01C8EF"/>
			<stop  offset="0.1396" style="stop-color:#03BAE4"/>
			<stop  offset="0.4033" style="stop-color:#0895C8"/>
			<stop  offset="0.76" style="stop-color:#115A9A"/>
			<stop  offset="1" style="stop-color:#172F78"/>
		</radialGradient>
		<path class="st71" d="M506.52,207.25l-33.24-19.19c-2.65-1.53-6.93-1.53-9.58,0l-33.07,19.23c-2.65,1.53-2.65,4,0,5.53L463.88,232
			c2.65,1.53,6.93,1.53,9.58,0l33.07-19.23C509.17,211.25,509.17,208.77,506.52,207.25z"/>
		<path class="st32" d="M490.69,208.41l-19.37-11.18c-1.54-0.89-4.04-0.89-5.58,0l-19.27,11.2c-1.54,0.89-1.54,2.33,0,3.22
			l19.37,11.18c1.54,0.89,4.04,0.89,5.58,0l19.27-11.2C492.23,210.74,492.23,209.3,490.69,208.41z"/>
		<path class="st31" d="M506.52,211.81l-33.07,19.23c-2.65,1.53-6.93,1.53-9.58,0l-33.24-19.19c-1.11-0.64-1.75-1.45-1.93-2.28
			c-0.25,1.16,0.39,2.36,1.93,3.25L463.88,232c2.65,1.53,6.93,1.53,9.58,0l33.07-19.23c1.54-0.89,2.17-2.09,1.93-3.25
			C508.27,210.36,507.63,211.17,506.52,211.81z"/>
		<g>
			<polygon class="st31" points="477.93,236.26 476.35,237.17 476.35,235.35 477.93,234.44 			"/>
			<polygon class="st31" points="481.22,234.36 479.64,235.27 479.64,233.45 481.22,232.54 			"/>
			<polygon class="st31" points="484.51,232.46 482.94,233.37 482.94,231.55 484.51,230.64 			"/>
			<polygon class="st31" points="481.82,237.69 480.24,238.6 480.24,236.78 481.82,235.88 			"/>
			<polygon class="st31" points="484.72,236.02 483.14,236.93 483.14,235.11 484.72,234.2 			"/>
			<polygon class="st31" points="495.07,226.36 493.5,227.27 493.5,225.45 495.07,224.54 			"/>
			<polygon class="st31" points="504.14,221.12 502.57,222.03 502.57,220.22 504.14,219.31 			"/>
			<polygon class="st31" points="487.8,230.56 486.23,231.46 486.23,229.65 487.8,228.74 			"/>
		</g>
	</g>
	<g>
		<linearGradient id="SVGID_56_" gradientUnits="userSpaceOnUse" x1="423.852" y1="196.1864" x2="480.1614" y2="196.1864">
			<stop  offset="0" style="stop-color:#01C8EF"/>
			<stop  offset="0.1297" style="stop-color:#04B1DD"/>
			<stop  offset="0.5466" style="stop-color:#0E6BA7"/>
			<stop  offset="0.8476" style="stop-color:#154085"/>
			<stop  offset="1" style="stop-color:#172F78"/>
		</linearGradient>
		<path class="st72" d="M508.51,196.17L508.51,196.17l-0.01-15.94l-20.14,2.69l-15.08-8.71c-2.65-1.53-6.93-1.53-9.58,0l-2.35,1.49
			l-32.7,4.36v16.12c0,0.01,0,0.02,0,0.03v0.08l0.01,0c0.04,0.97,0.69,1.94,1.97,2.68l33.24,19.19c2.65,1.53,6.93,1.53,9.58,0
			l33.07-19.23c1.28-0.74,1.93-1.7,1.97-2.67l0.02,0V196.17z"/>
		<radialGradient id="SVGID_57_" cx="413.8671" cy="153.9621" r="125.7504" gradientUnits="userSpaceOnUse">
			<stop  offset="0" style="stop-color:#01C8EF"/>
			<stop  offset="0.1396" style="stop-color:#03BAE4"/>
			<stop  offset="0.4033" style="stop-color:#0895C8"/>
			<stop  offset="0.76" style="stop-color:#115A9A"/>
			<stop  offset="1" style="stop-color:#172F78"/>
		</radialGradient>
		<path class="st73" d="M506.52,177.35l-33.24-19.19c-2.65-1.53-6.93-1.53-9.58,0l-33.07,19.23c-2.65,1.53-2.65,4,0,5.53
			l33.24,19.19c2.65,1.53,6.93,1.53,9.58,0l33.07-19.23C509.17,181.35,509.17,178.87,506.52,177.35z"/>
		<path class="st31" d="M506.52,181.91l-33.07,19.23c-2.65,1.53-6.93,1.53-9.58,0l-33.24-19.19c-1.11-0.64-1.75-1.45-1.93-2.28
			c-0.25,1.16,0.39,2.36,1.93,3.25l33.24,19.19c2.65,1.53,6.93,1.53,9.58,0l33.07-19.23c1.54-0.89,2.17-2.09,1.93-3.25
			C508.27,180.46,507.63,181.27,506.52,181.91z"/>
		<g>
			<polygon class="st31" points="477.93,206.36 476.35,207.27 476.35,205.45 477.93,204.54 			"/>
			<polygon class="st31" points="481.22,204.46 479.64,205.37 479.64,203.55 481.22,202.64 			"/>
			<polygon class="st31" points="484.51,202.56 482.94,203.47 482.94,201.65 484.51,200.74 			"/>
			<polygon class="st31" points="481.82,207.79 480.24,208.7 480.24,206.88 481.82,205.98 			"/>
			<polygon class="st31" points="484.72,206.12 483.14,207.03 483.14,205.21 484.72,204.3 			"/>
			<polygon class="st31" points="495.07,196.46 493.5,197.37 493.5,195.55 495.07,194.64 			"/>
			<polygon class="st31" points="504.14,191.22 502.57,192.13 502.57,190.32 504.14,189.41 			"/>
			<polygon class="st31" points="487.8,200.66 486.23,201.56 486.23,199.75 487.8,198.84 			"/>
		</g>
	</g>
	<path class="st31" d="M457.9,238.54l-18.45-10.65c-0.44-0.25-0.8-0.94-0.8-1.52v-1.37c0-0.59,0.36-0.86,0.8-0.6l18.45,10.65
		c0.44,0.25,0.8,0.94,0.8,1.52v1.37C458.7,238.52,458.34,238.79,457.9,238.54z"/>
	<path class="st31" d="M457.9,209.31l-18.45-10.65c-0.44-0.25-0.8-0.94-0.8-1.52v-1.37c0-0.59,0.36-0.86,0.8-0.6l18.45,10.65
		c0.44,0.25,0.8,0.94,0.8,1.52v1.37C458.7,209.29,458.34,209.56,457.9,209.31z"/>
</g>
<g>
	<path class="st25" d="M162.97,285.19c-1.79,0-3.58-0.39-4.94-1.18l-33.24-19.19c-1.38-0.8-2.14-1.87-2.14-3.03
		c0-1.16,0.76-2.24,2.14-3.03l33.07-19.23c2.73-1.58,7.16-1.58,9.89,0l33.24,19.19c1.38,0.8,2.14,1.87,2.14,3.03
		c0,1.16-0.76,2.24-2.14,3.03l-33.07,19.23C166.55,284.79,164.76,285.19,162.97,285.19z M162.8,238.95c-1.68,0-3.36,0.37-4.63,1.11
		l-33.07,19.23c-1.18,0.68-1.83,1.57-1.83,2.5c0,0.93,0.65,1.82,1.83,2.5l33.24,19.19c2.55,1.48,6.71,1.48,9.27,0l33.07-19.23
		c1.18-0.68,1.83-1.57,1.83-2.5c0-0.93-0.65-1.82-1.83-2.5l-33.24-19.19C166.15,239.32,164.48,238.95,162.8,238.95z"/>
	<path class="st25" d="M53.18,346.42c-1.79,0-3.58-0.39-4.94-1.18L15,326.05c-1.38-0.8-2.14-1.87-2.14-3.03
		c0-1.16,0.76-2.24,2.14-3.03l33.07-19.23c2.73-1.58,7.16-1.58,9.89,0l33.24,19.19c1.38,0.8,2.14,1.87,2.14,3.03
		c0,1.16-0.76,2.24-2.14,3.03l-33.07,19.23C56.77,346.02,54.98,346.42,53.18,346.42z M53.01,300.18c-1.68,0-3.36,0.37-4.63,1.11
		l-33.07,19.23c-1.18,0.68-1.83,1.57-1.83,2.5c0,0.93,0.65,1.82,1.83,2.5l33.24,19.19c2.55,1.48,6.71,1.48,9.27,0l33.07-19.23
		c1.18-0.68,1.83-1.57,1.83-2.5c0-0.93-0.65-1.82-1.83-2.5l-33.24-19.19C56.37,300.55,54.69,300.18,53.01,300.18z"/>
	<g>
		<linearGradient id="SVGID_58_" gradientUnits="userSpaceOnUse" x1="118.3217" y1="251.2727" x2="174.6312" y2="251.2727">
			<stop  offset="0" style="stop-color:#01C8EF"/>
			<stop  offset="0.1297" style="stop-color:#04B1DD"/>
			<stop  offset="0.5466" style="stop-color:#0E6BA7"/>
			<stop  offset="0.8476" style="stop-color:#154085"/>
			<stop  offset="1" style="stop-color:#172F78"/>
		</linearGradient>
		<path class="st74" d="M202.98,251.26L202.98,251.26l-0.01-15.94l-20.14,2.69l-15.08-8.71c-2.65-1.53-6.93-1.53-9.58,0l-2.35,1.49
			l-32.7,4.36v16.12c0,0.01,0,0.02,0,0.03v0.08l0.01,0c0.04,0.97,0.69,1.94,1.97,2.68l33.24,19.19c2.65,1.53,6.93,1.53,9.58,0
			l33.07-19.23c1.28-0.74,1.93-1.7,1.97-2.67l0.02,0V251.26z"/>
		<radialGradient id="SVGID_59_" cx="108.3369" cy="209.0484" r="125.7504" gradientUnits="userSpaceOnUse">
			<stop  offset="0" style="stop-color:#01C8EF"/>
			<stop  offset="0.1396" style="stop-color:#03BAE4"/>
			<stop  offset="0.4033" style="stop-color:#0895C8"/>
			<stop  offset="0.76" style="stop-color:#115A9A"/>
			<stop  offset="1" style="stop-color:#172F78"/>
		</radialGradient>
		<path class="st75" d="M200.99,232.43l-33.24-19.19c-2.65-1.53-6.93-1.53-9.58,0l-33.07,19.23c-2.65,1.53-2.65,4,0,5.53
			l33.24,19.19c2.65,1.53,6.93,1.53,9.58,0l33.07-19.23C203.64,236.44,203.64,233.96,200.99,232.43z"/>
		<path class="st31" d="M200.99,237l-33.07,19.23c-2.65,1.53-6.93,1.53-9.58,0l-33.24-19.19c-1.11-0.64-1.75-1.45-1.93-2.28
			c-0.25,1.16,0.39,2.36,1.93,3.25l33.24,19.19c2.65,1.53,6.93,1.53,9.58,0l33.07-19.23c1.54-0.89,2.17-2.09,1.93-3.25
			C202.74,235.55,202.1,236.36,200.99,237z"/>
		<g>
			<polygon class="st31" points="172.39,261.44 170.82,262.35 170.82,260.54 172.39,259.63 			"/>
			<polygon class="st31" points="175.69,259.54 174.11,260.45 174.11,258.64 175.69,257.73 			"/>
			<polygon class="st31" points="178.98,257.64 177.41,258.55 177.41,256.73 178.98,255.83 			"/>
			<polygon class="st31" points="176.29,262.88 174.71,263.79 174.71,261.97 176.29,261.06 			"/>
			<polygon class="st31" points="179.19,261.21 177.61,262.11 177.61,260.3 179.19,259.39 			"/>
			<polygon class="st31" points="189.54,251.55 187.97,252.45 187.97,250.64 189.54,249.73 			"/>
			<polygon class="st31" points="198.61,246.31 197.03,247.22 197.03,245.4 198.61,244.49 			"/>
			<polygon class="st31" points="182.27,255.74 180.7,256.65 180.7,254.83 182.27,253.93 			"/>
		</g>
	</g>
	<path class="st32" d="M161.17,249.08l-22.36-12.91c-0.91-0.52-0.79-1.44,0.25-2.05l21.85-12.62c1.05-0.61,2.64-0.67,3.55-0.15
		l22.36,12.91c0.91,0.52,0.8,1.44-0.25,2.05l-21.85,12.62C163.66,249.54,162.08,249.61,161.17,249.08z"/>
	<path class="st31" d="M152.37,263.06l-18.45-10.65c-0.44-0.25-0.8-0.94-0.8-1.52v-1.37c0-0.59,0.36-0.86,0.8-0.6l18.45,10.65
		c0.44,0.25,0.8,0.94,0.8,1.52v1.37C153.17,263.04,152.81,263.31,152.37,263.06z"/>
	<g>
		<linearGradient id="SVGID_60_" gradientUnits="userSpaceOnUse" x1="118.3217" y1="221.373" x2="174.6312" y2="221.373">
			<stop  offset="0" style="stop-color:#01C8EF"/>
			<stop  offset="0.1297" style="stop-color:#04B1DD"/>
			<stop  offset="0.5466" style="stop-color:#0E6BA7"/>
			<stop  offset="0.8476" style="stop-color:#154085"/>
			<stop  offset="1" style="stop-color:#172F78"/>
		</linearGradient>
		<path class="st76" d="M202.98,221.36L202.98,221.36l-0.01-15.94l-20.14,2.69l-15.08-8.71c-2.65-1.53-6.93-1.53-9.58,0l-2.35,1.49
			l-32.7,4.36v16.12c0,0.01,0,0.02,0,0.03v0.08l0.01,0c0.04,0.97,0.69,1.94,1.97,2.68l33.24,19.19c2.65,1.53,6.93,1.53,9.58,0
			l33.07-19.23c1.28-0.74,1.93-1.7,1.97-2.67l0.02,0V221.36z"/>
		<radialGradient id="SVGID_61_" cx="108.3369" cy="179.1487" r="125.7504" gradientUnits="userSpaceOnUse">
			<stop  offset="0" style="stop-color:#01C8EF"/>
			<stop  offset="0.1396" style="stop-color:#03BAE4"/>
			<stop  offset="0.4033" style="stop-color:#0895C8"/>
			<stop  offset="0.76" style="stop-color:#115A9A"/>
			<stop  offset="1" style="stop-color:#172F78"/>
		</radialGradient>
		<path class="st77" d="M200.99,202.53l-33.24-19.19c-2.65-1.53-6.93-1.53-9.58,0l-33.07,19.23c-2.65,1.53-2.65,4,0,5.53
			l33.24,19.19c2.65,1.53,6.93,1.53,9.58,0l33.07-19.23C203.64,206.54,203.64,204.06,200.99,202.53z"/>
		<path class="st32" d="M185.16,203.69l-19.37-11.18c-1.54-0.89-4.04-0.89-5.58,0l-19.27,11.2c-1.54,0.89-1.54,2.33,0,3.22
			l19.37,11.18c1.54,0.89,4.04,0.89,5.58,0l19.27-11.2C186.7,206.03,186.7,204.58,185.16,203.69z"/>
		<path class="st31" d="M200.99,207.1l-33.07,19.23c-2.65,1.53-6.93,1.53-9.58,0l-33.24-19.19c-1.11-0.64-1.75-1.45-1.93-2.28
			c-0.25,1.16,0.39,2.36,1.93,3.25l33.24,19.19c2.65,1.53,6.93,1.53,9.58,0l33.07-19.23c1.54-0.89,2.17-2.09,1.93-3.25
			C202.74,205.65,202.1,206.46,200.99,207.1z"/>
		<g>
			<polygon class="st31" points="172.39,231.55 170.82,232.45 170.82,230.64 172.39,229.73 			"/>
			<polygon class="st31" points="175.69,229.64 174.11,230.55 174.11,228.74 175.69,227.83 			"/>
			<polygon class="st31" points="178.98,227.74 177.41,228.65 177.41,226.84 178.98,225.93 			"/>
			<polygon class="st31" points="176.29,232.98 174.71,233.89 174.71,232.07 176.29,231.16 			"/>
			<polygon class="st31" points="179.19,231.31 177.61,232.21 177.61,230.4 179.19,229.49 			"/>
			<polygon class="st31" points="189.54,221.65 187.97,222.56 187.97,220.74 189.54,219.83 			"/>
			<polygon class="st31" points="198.61,216.41 197.03,217.32 197.03,215.5 198.61,214.59 			"/>
			<polygon class="st31" points="182.27,225.84 180.7,226.75 180.7,224.93 182.27,224.03 			"/>
		</g>
	</g>
	<g>
		<linearGradient id="SVGID_62_" gradientUnits="userSpaceOnUse" x1="118.3217" y1="191.4733" x2="174.6312" y2="191.4733">
			<stop  offset="0" style="stop-color:#01C8EF"/>
			<stop  offset="0.1297" style="stop-color:#04B1DD"/>
			<stop  offset="0.5466" style="stop-color:#0E6BA7"/>
			<stop  offset="0.8476" style="stop-color:#154085"/>
			<stop  offset="1" style="stop-color:#172F78"/>
		</linearGradient>
		<path class="st78" d="M202.98,191.46L202.98,191.46l-0.01-15.94l-20.14,2.69l-15.08-8.71c-2.65-1.53-6.93-1.53-9.58,0l-2.35,1.49
			l-32.7,4.36v16.12c0,0.01,0,0.02,0,0.03v0.08l0.01,0c0.04,0.97,0.69,1.94,1.97,2.68l33.24,19.19c2.65,1.53,6.93,1.53,9.58,0
			l33.07-19.23c1.28-0.74,1.93-1.7,1.97-2.67l0.02,0V191.46z"/>
		<radialGradient id="SVGID_63_" cx="108.3369" cy="149.249" r="125.7504" gradientUnits="userSpaceOnUse">
			<stop  offset="0" style="stop-color:#01C8EF"/>
			<stop  offset="0.1396" style="stop-color:#03BAE4"/>
			<stop  offset="0.4033" style="stop-color:#0895C8"/>
			<stop  offset="0.76" style="stop-color:#115A9A"/>
			<stop  offset="1" style="stop-color:#172F78"/>
		</radialGradient>
		<path class="st79" d="M200.99,172.63l-33.24-19.19c-2.65-1.53-6.93-1.53-9.58,0l-33.07,19.23c-2.65,1.53-2.65,4,0,5.53
			l33.24,19.19c2.65,1.53,6.93,1.53,9.58,0l33.07-19.23C203.64,176.64,203.64,174.16,200.99,172.63z"/>
		<path class="st31" d="M200.99,177.2l-33.07,19.23c-2.65,1.53-6.93,1.53-9.58,0l-33.24-19.19c-1.11-0.64-1.75-1.45-1.93-2.28
			c-0.25,1.16,0.39,2.36,1.93,3.25l33.24,19.19c2.65,1.53,6.93,1.53,9.58,0l33.07-19.23c1.54-0.89,2.17-2.09,1.93-3.25
			C202.74,175.75,202.1,176.56,200.99,177.2z"/>
		<g>
			<polygon class="st31" points="172.39,201.65 170.82,202.55 170.82,200.74 172.39,199.83 			"/>
			<polygon class="st31" points="175.69,199.74 174.11,200.65 174.11,198.84 175.69,197.93 			"/>
			<polygon class="st31" points="178.98,197.84 177.41,198.75 177.41,196.94 178.98,196.03 			"/>
			<polygon class="st31" points="176.29,203.08 174.71,203.99 174.71,202.17 176.29,201.26 			"/>
			<polygon class="st31" points="179.19,201.41 177.61,202.31 177.61,200.5 179.19,199.59 			"/>
			<polygon class="st31" points="189.54,191.75 187.97,192.66 187.97,190.84 189.54,189.93 			"/>
			<polygon class="st31" points="198.61,186.51 197.03,187.42 197.03,185.6 198.61,184.69 			"/>
			<polygon class="st31" points="182.27,195.94 180.7,196.85 180.7,195.03 182.27,194.13 			"/>
		</g>
	</g>
	<g>
		<linearGradient id="SVGID_64_" gradientUnits="userSpaceOnUse" x1="8.7737" y1="312.3544" x2="65.0832" y2="312.3544">
			<stop  offset="0" style="stop-color:#01C8EF"/>
			<stop  offset="0.1297" style="stop-color:#04B1DD"/>
			<stop  offset="0.5466" style="stop-color:#0E6BA7"/>
			<stop  offset="0.8476" style="stop-color:#154085"/>
			<stop  offset="1" style="stop-color:#172F78"/>
		</linearGradient>
		<path class="st80" d="M93.43,312.34L93.43,312.34l-0.01-15.94l-20.14,2.69l-15.08-8.71c-2.65-1.53-6.93-1.53-9.58,0l-2.35,1.49
			l-32.7,4.36v16.12c0,0.01,0,0.02,0,0.03v0.08l0.01,0c0.04,0.97,0.69,1.94,1.97,2.68l33.24,19.19c2.65,1.53,6.93,1.53,9.58,0
			l33.07-19.23c1.28-0.74,1.93-1.7,1.97-2.67l0.02,0V312.34z"/>
		<radialGradient id="SVGID_65_" cx="-1.2111" cy="270.1302" r="125.7504" gradientUnits="userSpaceOnUse">
			<stop  offset="0" style="stop-color:#01C8EF"/>
			<stop  offset="0.1396" style="stop-color:#03BAE4"/>
			<stop  offset="0.4033" style="stop-color:#0895C8"/>
			<stop  offset="0.76" style="stop-color:#115A9A"/>
			<stop  offset="1" style="stop-color:#172F78"/>
		</radialGradient>
		<path class="st81" d="M91.44,293.51L58.2,274.32c-2.65-1.53-6.93-1.53-9.58,0l-33.07,19.23c-2.65,1.53-2.65,4,0,5.53l33.24,19.19
			c2.65,1.53,6.93,1.53,9.58,0l33.07-19.23C94.09,297.52,94.09,295.04,91.44,293.51z"/>
		<path class="st31" d="M91.44,298.08l-33.07,19.23c-2.65,1.53-6.93,1.53-9.58,0l-33.24-19.19c-1.11-0.64-1.75-1.45-1.93-2.28
			c-0.25,1.16,0.39,2.36,1.93,3.25l33.24,19.19c2.65,1.53,6.93,1.53,9.58,0l33.07-19.23c1.54-0.89,2.17-2.09,1.93-3.25
			C93.19,296.63,92.55,297.44,91.44,298.08z"/>
		<g>
			<polygon class="st31" points="62.85,322.53 61.27,323.44 61.27,321.62 62.85,320.71 			"/>
			<polygon class="st31" points="66.14,320.63 64.57,321.53 64.57,319.72 66.14,318.81 			"/>
			<polygon class="st31" points="69.43,318.72 67.86,319.63 67.86,317.82 69.43,316.91 			"/>
			<polygon class="st31" points="66.74,323.96 65.17,324.87 65.17,323.05 66.74,322.14 			"/>
			<polygon class="st31" points="69.64,322.29 68.06,323.2 68.06,321.38 69.64,320.47 			"/>
			<polygon class="st31" points="79.99,312.63 78.42,313.54 78.42,311.72 79.99,310.81 			"/>
			<polygon class="st31" points="89.06,307.39 87.49,308.3 87.49,306.48 89.06,305.57 			"/>
			<polygon class="st31" points="72.72,316.82 71.15,317.73 71.15,315.92 72.72,315.01 			"/>
		</g>
	</g>
	<path class="st31" d="M152.37,233.83l-18.45-10.65c-0.44-0.25-0.8-0.94-0.8-1.52v-1.37c0-0.59,0.36-0.86,0.8-0.6l18.45,10.65
		c0.44,0.25,0.8,0.94,0.8,1.52v1.37C153.17,233.81,152.81,234.08,152.37,233.83z"/>
	<path class="st31" d="M152.37,204.6l-18.45-10.65c-0.44-0.25-0.8-0.94-0.8-1.52v-1.37c0-0.59,0.36-0.86,0.8-0.6l18.45,10.65
		c0.44,0.25,0.8,0.94,0.8,1.52v1.37C153.17,204.58,152.81,204.85,152.37,204.6z"/>
</g>
</svg>
